<svg version="1.1" id="Layer_1" xmlns="http://www.w3.org/2000/svg" xmlns:xlink="http://www.w3.org/1999/xlink" x="0px" y="0px"
	 width="100%" viewBox="0 0 500 500" enable-background="new 0 0 500 500" xml:space="preserve">
<path fill="#020202" opacity="1.000000" stroke="none" 
	d="
M234.000000,1.000000 
	C244.354233,1.000000 254.708450,1.000000 265.701141,1.395484 
	C286.460663,2.942637 306.092010,6.734416 325.301147,12.772152 
	C419.691223,42.440487 488.538147,125.307114 499.162048,224.600235 
	C499.606232,228.751526 500.379852,232.867554 501.000000,237.000000 
	C501.000000,246.020889 501.000000,255.041794 500.621185,264.728027 
	C498.736145,277.047821 497.966980,288.855072 495.589203,300.328949 
	C487.617035,338.798218 471.995636,373.880432 447.340546,404.691101 
	C403.706238,459.219482 347.216339,490.721161 277.870819,499.157227 
	C273.897949,499.640564 269.956238,500.379852 266.000000,501.000000 
	C256.312439,501.000000 246.624878,501.000000 236.288818,500.610687 
	C225.468994,498.867706 215.219406,497.940002 205.139618,496.088013 
	C156.586075,487.167084 114.391983,465.490112 78.838631,431.342957 
	C34.865795,389.109344 9.574478,337.498383 2.907851,276.821930 
	C2.472465,272.859253 1.645057,268.939636 1.000000,265.000000 
	C1.000000,261.638702 1.000000,258.277435 1.376377,254.309937 
	C1.501836,251.469162 1.250918,249.234589 1.000000,247.000000 
	C1.000000,244.299988 1.000000,241.599976 1.392033,238.268860 
	C2.871885,216.005661 6.910806,194.911621 13.622167,174.345169 
	C29.842730,124.638512 58.905025,83.976265 100.396927,52.264271 
	C134.739716,26.016306 173.446136,10.016027 216.238647,3.879732 
	C222.174683,3.028525 228.080307,1.965154 234.000000,1.000000 
M402.340057,90.152504 
	C346.342560,39.387127 281.000031,20.365612 206.841110,34.514187 
	C164.406830,42.610104 127.292961,62.401852 96.695381,93.140083 
	C43.941963,146.135971 22.228672,210.195190 32.476345,284.150879 
	C38.448215,327.248871 56.770092,365.414520 86.076744,397.855072 
	C126.498047,442.598785 177.027817,467.278412 237.070755,471.730469 
	C266.339600,473.900726 294.989594,469.669922 322.848236,459.995667 
	C422.518005,425.384125 485.960846,325.035217 469.614929,217.495438 
	C462.072479,167.873459 439.437958,125.383209 402.340057,90.152504 
z"/>
<path fill="#EBF2EF" opacity="1.000000" stroke="none" 
	d="
M1.000000,265.468658 
	C1.645057,268.939636 2.472465,272.859253 2.907851,276.821930 
	C9.574478,337.498383 34.865795,389.109344 78.838631,431.342957 
	C114.391983,465.490112 156.586075,487.167084 205.139618,496.088013 
	C215.219406,497.940002 225.468994,498.867706 235.820160,500.610687 
	C157.739471,501.000000 79.478951,501.000000 1.000000,501.000000 
	C1.000000,422.645905 1.000000,344.291626 1.000000,265.468658 
z"/>
<path fill="#EBF2EF" opacity="1.000000" stroke="none" 
	d="
M233.531342,1.000000 
	C228.080307,1.965154 222.174683,3.028525 216.238647,3.879732 
	C173.446136,10.016027 134.739716,26.016306 100.396927,52.264271 
	C58.905025,83.976265 29.842730,124.638512 13.622167,174.345169 
	C6.910806,194.911621 2.871885,216.005661 1.392033,237.818878 
	C1.000000,159.073578 1.000000,80.147148 1.000000,1.000000 
	C78.354088,1.000000 155.708389,1.000000 233.531342,1.000000 
z"/>
<path fill="#EBF2EF" opacity="1.000000" stroke="none" 
	d="
M501.000000,236.531342 
	C500.379852,232.867554 499.606232,228.751526 499.162048,224.600235 
	C488.538147,125.307114 419.691223,42.440487 325.301147,12.772152 
	C306.092010,6.734416 286.460663,2.942637 266.169800,1.395484 
	C344.260529,1.000000 422.521057,1.000000 501.000000,1.000000 
	C501.000000,79.354095 501.000000,157.708389 501.000000,236.531342 
z"/>
<path fill="#EBF2EF" opacity="1.000000" stroke="none" 
	d="
M266.468658,501.000000 
	C269.956238,500.379852 273.897949,499.640564 277.870819,499.157227 
	C347.216339,490.721161 403.706238,459.219482 447.340546,404.691101 
	C471.995636,373.880432 487.617035,338.798218 495.589203,300.328949 
	C497.966980,288.855072 498.736145,277.047821 500.621185,265.196655 
	C501.000000,343.593536 501.000000,422.187103 501.000000,501.000000 
	C422.979248,501.000000 344.958282,501.000000 266.468658,501.000000 
z"/>
<path fill="#727574" opacity="1.000000" stroke="none" 
	d="
M1.000000,247.437500 
	C1.250918,249.234589 1.501836,251.469162 1.376377,253.851868 
	C1.000000,251.958328 1.000000,249.916672 1.000000,247.437500 
z"/>
<path fill="#ECF3F0" opacity="1.000000" stroke="none" 
	d="
M402.593628,90.398087 
	C439.437958,125.383209 462.072479,167.873459 469.614929,217.495438 
	C485.960846,325.035217 422.518005,425.384125 322.848236,459.995667 
	C294.989594,469.669922 266.339600,473.900726 237.070755,471.730469 
	C177.027817,467.278412 126.498047,442.598785 86.076744,397.855072 
	C56.770092,365.414520 38.448215,327.248871 32.476345,284.150879 
	C22.228672,210.195190 43.941963,146.135971 96.695381,93.140083 
	C127.292961,62.401852 164.406830,42.610104 206.841110,34.514187 
	C281.000031,20.365612 346.342560,39.387127 402.593628,90.398087 
z"/>
</svg>