<svg version="1.1" id="Layer_1" xmlns="http://www.w3.org/2000/svg" xmlns:xlink="http://www.w3.org/1999/xlink" x="0px" y="0px"
	 width="100%" viewBox="0 0 512 512" enable-background="new 0 0 512 512" xml:space="preserve">
<path fill="#54BBFF" opacity="1.000000" stroke="none" 
	d="
M235.000000,1.000000 
	C249.020889,1.000000 263.041779,1.000000 277.613678,1.277116 
	C279.125336,1.761062 280.086029,1.967892 281.356384,2.378614 
	C291.063385,4.658588 300.624176,6.183010 309.828735,8.909886 
	C342.963959,18.726309 371.232880,36.907856 395.444763,61.221516 
	C409.780762,75.617744 421.947113,91.829346 432.433624,109.396790 
	C458.800659,153.568130 470.122406,201.781418 471.822266,252.602905 
	C472.181488,263.342407 471.239105,274.215057 469.896271,284.900665 
	C467.931854,300.532013 466.248169,316.352264 462.363800,331.560516 
	C449.694946,381.162781 425.987427,424.574799 387.975067,459.672211 
	C366.856567,479.171326 343.059662,494.093567 315.788727,503.063843 
	C304.471252,506.786560 292.641388,508.951569 280.700500,511.892029 
	C279.570984,512.306091 278.785492,512.653015 278.000000,513.000000 
	C263.979095,513.000000 249.958206,513.000000 235.234329,512.649841 
	C227.828537,511.532135 221.085281,511.017334 214.430176,509.951874 
	C189.942337,506.031433 166.527359,498.555084 144.295410,487.614288 
	C124.428123,477.837189 105.602150,466.272583 89.543182,450.893188 
	C77.487045,439.347290 65.316246,427.722565 54.773182,414.842377 
	C39.406506,396.069214 27.544149,374.944092 18.663652,352.258209 
	C10.972542,332.610718 5.405547,312.423309 2.960555,291.417725 
	C2.476464,287.258759 1.662072,283.138245 0.999999,279.000000 
	C1.000000,264.645782 1.000000,250.291550 1.350169,235.234314 
	C2.467866,227.828506 2.982647,221.085205 4.048123,214.430084 
	C7.968602,189.942276 15.444963,166.527298 26.385752,144.295364 
	C36.162849,124.428085 47.727448,105.602119 63.106842,89.543144 
	C74.652763,77.487038 86.277435,65.316200 99.157654,54.773144 
	C117.930801,39.406467 139.055908,27.544136 161.741791,18.663643 
	C181.389297,10.972535 201.576691,5.405555 222.582275,2.960558 
	C226.741241,2.476468 230.861755,1.662074 235.000000,1.000000 
z"/>
<path fill="#2EA2EF" opacity="1.000000" stroke="none" 
	d="
M281.044525,511.824951 
	C292.641388,508.951569 304.471252,506.786560 315.788727,503.063843 
	C343.059662,494.093567 366.856567,479.171326 387.975067,459.672211 
	C425.987427,424.574799 449.694946,381.162781 462.363800,331.560516 
	C466.248169,316.352264 467.931854,300.532013 469.896271,284.900665 
	C471.239105,274.215057 472.181488,263.342407 471.822266,252.602905 
	C470.122406,201.781418 458.800659,153.568130 432.433624,109.396790 
	C421.947113,91.829346 409.780762,75.617744 395.444763,61.221516 
	C371.232880,36.907856 342.963959,18.726309 309.828735,8.909886 
	C300.624176,6.183010 291.063385,4.658588 281.798706,2.315975 
	C289.065186,3.016160 296.212006,3.896757 303.330536,4.965391 
	C326.644257,8.465247 348.661987,16.147182 369.747772,26.426498 
	C389.567444,36.088558 407.844391,48.144726 424.437408,62.809147 
	C440.222656,76.759727 454.494049,91.969933 466.723328,109.145233 
	C479.526062,127.125908 489.799011,146.459961 497.449371,167.092834 
	C504.103851,185.039810 508.972931,203.520996 511.040741,222.648102 
	C511.488281,226.787628 512.336365,230.883835 513.000000,235.000000 
	C513.000000,249.354233 513.000000,263.708466 512.630920,278.742950 
	C510.522064,290.744690 509.168030,302.141815 506.966797,313.372864 
	C501.367889,341.939301 490.007843,368.227386 474.664398,392.884766 
	C460.784515,415.190247 443.562103,434.537506 423.803406,451.794525 
	C409.396362,464.377502 393.713379,475.037903 376.880096,483.956787 
	C355.685425,495.186615 333.358337,503.544647 309.716583,507.931213 
	C300.244507,509.688690 290.606812,510.553711 281.044525,511.824951 
z"/>
<path fill="#FFFFFF" opacity="1.000000" stroke="none" 
	d="
M513.000000,234.531342 
	C512.336365,230.883835 511.488281,226.787628 511.040741,222.648102 
	C508.972931,203.520996 504.103851,185.039810 497.449371,167.092834 
	C489.799011,146.459961 479.526062,127.125908 466.723328,109.145233 
	C454.494049,91.969933 440.222656,76.759727 424.437408,62.809147 
	C407.844391,48.144726 389.567444,36.088558 369.747772,26.426498 
	C348.661987,16.147182 326.644257,8.465247 303.330536,4.965391 
	C296.212006,3.896757 289.065186,3.016160 281.489014,2.112084 
	C280.086029,1.967892 279.125336,1.761062 278.082336,1.277116 
	C356.260223,1.000000 434.520416,1.000000 513.000000,1.000000 
	C513.000000,78.687424 513.000000,156.375046 513.000000,234.531342 
z"/>
<path fill="#FFFFFF" opacity="1.000000" stroke="none" 
	d="
M280.700500,511.892059 
	C290.606812,510.553711 300.244507,509.688690 309.716583,507.931213 
	C333.358337,503.544647 355.685425,495.186615 376.880096,483.956787 
	C393.713379,475.037903 409.396362,464.377502 423.803406,451.794525 
	C443.562103,434.537506 460.784515,415.190247 474.664398,392.884766 
	C490.007843,368.227386 501.367889,341.939301 506.966797,313.372864 
	C509.168030,302.141815 510.522064,290.744690 512.630920,279.211609 
	C513.000000,356.927185 513.000000,434.854370 513.000000,513.000000 
	C434.979248,513.000000 356.958282,513.000000 278.468658,513.000000 
	C278.785492,512.653015 279.570984,512.306091 280.700500,511.892059 
z"/>
<path fill="#FFFFFF" opacity="1.000000" stroke="none" 
	d="
M234.531342,1.000000 
	C230.861755,1.662074 226.741241,2.476468 222.582275,2.960558 
	C201.576691,5.405555 181.389297,10.972535 161.741791,18.663643 
	C139.055908,27.544136 117.930801,39.406467 99.157654,54.773144 
	C86.277435,65.316200 74.652763,77.487038 63.106842,89.543144 
	C47.727448,105.602119 36.162849,124.428085 26.385752,144.295364 
	C15.444963,166.527298 7.968602,189.942276 4.048123,214.430084 
	C2.982647,221.085205 2.467866,227.828506 1.350169,234.765656 
	C1.000000,157.072952 1.000000,79.145912 1.000000,1.000000 
	C78.687424,1.000000 156.375061,1.000000 234.531342,1.000000 
z"/>
<path fill="#FFFFFF" opacity="1.000000" stroke="none" 
	d="
M0.999999,279.468658 
	C1.662072,283.138245 2.476464,287.258759 2.960555,291.417725 
	C5.405547,312.423309 10.972542,332.610718 18.663652,352.258209 
	C27.544149,374.944092 39.406506,396.069214 54.773182,414.842377 
	C65.316246,427.722565 77.487045,439.347290 89.543182,450.893188 
	C105.602150,466.272583 124.428123,477.837189 144.295410,487.614288 
	C166.527359,498.555084 189.942337,506.031433 214.430176,509.951874 
	C221.085281,511.017334 227.828537,511.532135 234.765671,512.649841 
	C157.072968,513.000000 79.145927,513.000000 1.000000,513.000000 
	C1.000000,435.312561 1.000000,357.624939 0.999999,279.468658 
z"/>
</svg>