<svg version="1.1" id="Layer_1" xmlns="http://www.w3.org/2000/svg" xmlns:xlink="http://www.w3.org/1999/xlink" x="0px" y="0px"
	 width="100%" viewBox="0 0 500 500" enable-background="new 0 0 500 500" xml:space="preserve">
<path fill="#FC7BD7" opacity="1.000000" stroke="none" 
	d="
M242.000000,501.000000 
	C237.643097,501.000000 233.286194,501.000000 228.164978,500.708923 
	C221.457855,499.953400 215.488861,499.703918 209.577057,498.984467 
	C191.175110,496.745087 172.639816,495.164185 154.440979,491.791473 
	C123.940643,486.138885 93.811829,479.012177 68.004807,460.134613 
	C55.889572,451.272430 47.582073,441.155334 47.626671,424.810730 
	C47.939396,310.198853 47.795555,195.585754 48.079918,81.178040 
	C53.915188,92.798378 62.689533,101.186340 73.398155,107.644547 
	C93.979065,120.056595 116.548164,127.243156 139.825729,132.430054 
	C165.250595,138.095428 190.880173,142.364670 217.207275,143.199280 
	C218.278305,143.285110 219.143280,143.161621 220.418884,143.105743 
	C228.221985,143.441498 235.614441,143.709641 243.331726,144.228836 
	C248.102066,144.311523 252.547592,144.143173 257.462097,143.980469 
	C275.141144,143.011124 292.450928,142.874161 309.534943,140.840302 
	C329.088196,138.512451 348.564270,135.082962 367.836090,131.007660 
	C380.119965,128.410049 391.972015,123.770409 404.014893,120.509995 
	C404.009277,223.897995 404.004517,326.822357 404.007935,429.746735 
	C404.008148,436.863129 401.412964,442.978271 397.042511,448.470703 
	C388.103394,459.704620 376.133636,466.971527 363.352234,472.543182 
	C342.487762,481.638458 320.776550,488.483032 298.246277,492.065491 
	C280.747498,494.847839 263.101654,496.700714 245.536331,499.078583 
	C244.293625,499.246796 243.175873,500.338013 242.000000,501.000000 
z"/>
<path fill="#FBB1E6" opacity="1.000000" stroke="none" 
	d="
M243.006912,143.977783 
	C235.614441,143.709641 228.221985,143.441498 220.215179,142.887512 
	C218.734283,142.731094 217.867752,142.860519 217.001205,142.989944 
	C190.880173,142.364670 165.250595,138.095428 139.825729,132.430054 
	C116.548164,127.243156 93.979065,120.056595 73.398155,107.644547 
	C62.689533,101.186340 53.915188,92.798378 47.886307,80.897949 
	C47.316280,79.269600 47.222034,78.126343 47.336678,76.697617 
	C47.648270,75.226669 47.750977,74.041206 47.872589,72.432556 
	C49.566490,66.873444 50.314766,61.156075 53.100071,56.716774 
	C59.913467,45.857380 70.338966,38.700798 81.671204,33.230610 
	C122.948174,13.305799 167.118210,5.635842 212.428452,2.937365 
	C217.306793,2.646832 222.143814,1.662498 227.000000,0.999999 
	C241.687561,1.000000 256.375122,1.000000 271.849335,1.266700 
	C287.852234,2.736452 303.225189,2.963665 318.247223,5.376147 
	C339.639984,8.811746 360.953552,13.140349 381.968079,18.414064 
	C401.382141,23.286133 420.137482,30.562077 436.079071,43.186626 
	C445.546326,50.684040 454.289246,59.098728 454.035583,73.167496 
	C453.695587,76.101837 453.370178,78.592018 452.978027,81.431686 
	C449.152710,91.923103 441.731903,99.107544 432.904510,104.549194 
	C423.619537,110.272903 413.674377,114.925644 404.017700,120.046356 
	C391.972015,123.770409 380.119965,128.410049 367.836090,131.007660 
	C348.564270,135.082962 329.088196,138.512451 309.534943,140.840302 
	C292.450928,142.874161 275.141144,143.011124 257.134766,143.734787 
	C251.894577,143.648209 247.450745,143.812988 243.006912,143.977783 
z"/>
<path fill="#FFFFFF" opacity="1.000000" stroke="none" 
	d="
M47.127792,76.983093 
	C47.222034,78.126343 47.316280,79.269600 47.604130,80.692940 
	C47.795555,195.585754 47.939396,310.198853 47.626671,424.810730 
	C47.582073,441.155334 55.889572,451.272430 68.004807,460.134613 
	C93.811829,479.012177 123.940643,486.138885 154.440979,491.791473 
	C172.639816,495.164185 191.175110,496.745087 209.577057,498.984467 
	C215.488861,499.703918 221.457855,499.953400 227.700348,500.708923 
	C152.368073,501.000000 76.736160,501.000000 1.052119,501.000000 
	C1.052119,334.444611 1.052119,167.889236 1.052119,1.000000 
	C76.020561,1.000000 151.041626,1.000000 226.531342,0.999999 
	C222.143814,1.662498 217.306793,2.646832 212.428452,2.937365 
	C167.118210,5.635842 122.948174,13.305799 81.671204,33.230610 
	C70.338966,38.700798 59.913467,45.857380 53.100071,56.716774 
	C50.314766,61.156075 49.566490,66.873444 47.658653,72.723007 
	C47.326469,74.618797 47.227131,75.800941 47.127792,76.983093 
z"/>
<path fill="#FFFFFF" opacity="1.000000" stroke="none" 
	d="
M454.050232,72.723320 
	C454.289246,59.098728 445.546326,50.684040 436.079071,43.186626 
	C420.137482,30.562077 401.382141,23.286133 381.968079,18.414064 
	C360.953552,13.140349 339.639984,8.811746 318.247223,5.376147 
	C303.225189,2.963665 287.852234,2.736452 272.317993,1.266700 
	C348.298279,1.000000 424.596558,1.000000 500.947418,1.000000 
	C500.947418,167.555069 500.947418,334.110168 500.947418,501.000000 
	C426.646118,501.000000 352.291718,501.000000 277.748779,500.686981 
	C290.075897,499.266296 302.611694,498.346954 315.102570,497.008331 
	C335.673065,494.803925 355.873199,490.832428 375.876892,485.342377 
	C395.311584,480.008514 413.940674,473.451172 430.911774,462.245453 
	C442.866150,454.352173 451.913177,444.886047 454.511749,429.890991 
	C454.705566,425.668121 454.703583,421.822174 454.730103,417.510345 
	C454.771881,359.218536 454.796417,301.392609 454.795074,243.566681 
	C454.793854,189.740662 454.765045,135.914642 454.840302,81.648956 
	C454.638245,78.380623 454.344238,75.551971 454.050232,72.723320 
z"/>
<path fill="#FB66D0" opacity="1.000000" stroke="none" 
	d="
M454.748352,82.088631 
	C454.765045,135.914642 454.793854,189.740662 454.795074,243.566681 
	C454.796417,301.392609 454.771881,359.218536 454.539246,417.866882 
	C454.318604,422.548828 454.317261,426.408386 454.315948,430.267944 
	C451.913177,444.886047 442.866150,454.352173 430.911774,462.245453 
	C413.940674,473.451172 395.311584,480.008514 375.876892,485.342377 
	C355.873199,490.832428 335.673065,494.803925 315.102570,497.008331 
	C302.611694,498.346954 290.075897,499.266296 277.280151,500.686981 
	C265.645782,501.000000 254.291550,501.000000 242.468658,501.000000 
	C243.175873,500.338013 244.293625,499.246796 245.536331,499.078583 
	C263.101654,496.700714 280.747498,494.847839 298.246277,492.065491 
	C320.776550,488.483032 342.487762,481.638458 363.352234,472.543182 
	C376.133636,466.971527 388.103394,459.704620 397.042511,448.470703 
	C401.412964,442.978271 404.008148,436.863129 404.007935,429.746735 
	C404.004517,326.822357 404.009277,223.897995 404.014893,120.509995 
	C413.674377,114.925644 423.619537,110.272903 432.904510,104.549194 
	C441.731903,99.107544 449.152710,91.923103 453.207977,81.523026 
	C453.919189,81.539474 454.333801,81.814056 454.748352,82.088631 
z"/>
<path fill="#FF9DE3" opacity="1.000000" stroke="none" 
	d="
M243.331726,144.228836 
	C247.450745,143.812988 251.894577,143.648209 256.665771,143.729126 
	C252.547592,144.143173 248.102066,144.311523 243.331726,144.228836 
z"/>
<path fill="#FF9DE3" opacity="1.000000" stroke="none" 
	d="
M217.207275,143.199280 
	C217.867752,142.860519 218.734283,142.731094 219.804535,142.819901 
	C219.143280,143.161621 218.278305,143.285110 217.207275,143.199280 
z"/>
<path fill="#F29DDA" opacity="1.000000" stroke="none" 
	d="
M454.840332,81.648956 
	C454.333801,81.814056 453.919189,81.539474 453.274658,81.173546 
	C453.370178,78.592018 453.695587,76.101837 454.035614,73.167496 
	C454.344238,75.551971 454.638245,78.380623 454.840332,81.648956 
z"/>
<path fill="#FCC6ED" opacity="1.000000" stroke="none" 
	d="
M47.336678,76.697617 
	C47.227131,75.800941 47.326469,74.618797 47.639744,73.146194 
	C47.750977,74.041206 47.648270,75.226669 47.336678,76.697617 
z"/>
<path fill="#F29DDA" opacity="1.000000" stroke="none" 
	d="
M454.511749,429.890991 
	C454.317261,426.408386 454.318604,422.548828 454.510773,418.332764 
	C454.703583,421.822174 454.705566,425.668121 454.511749,429.890991 
z"/>
</svg>