<svg version="1.1" id="Layer_1" xmlns="http://www.w3.org/2000/svg" xmlns:xlink="http://www.w3.org/1999/xlink" x="0px" y="0px"
	 width="100%" viewBox="0 0 496 496" enable-background="new 0 0 496 496" xml:space="preserve">
<path fill="#000000" opacity="1.000000" stroke="none" 
	d="
M82.656769,216.999908 
	C82.657059,169.678253 82.916046,122.854179 82.473480,76.036736 
	C82.365036,64.564117 87.257050,57.032864 96.195824,51.251823 
	C111.005936,41.673553 127.717697,37.210964 144.724731,33.700287 
	C172.669418,27.931803 200.971817,25.656765 229.456482,24.558399 
	C262.667694,23.277782 295.717194,24.797943 328.641632,28.877024 
	C350.123322,31.538437 371.394135,35.515102 391.575500,43.805817 
	C399.472992,47.050179 406.980072,51.005108 413.005463,57.266758 
	C417.224365,61.651073 419.396790,66.745972 419.393524,72.982735 
	C419.331451,191.453094 419.319061,309.923553 419.414124,428.393860 
	C419.420319,436.121490 416.018341,441.783478 410.523956,446.537323 
	C399.119537,456.404572 385.186096,461.058228 371.034363,464.970184 
	C347.698151,471.421021 323.783447,474.451385 299.686310,476.268005 
	C278.741730,477.847015 257.767822,478.754944 236.779617,478.047821 
	C198.974289,476.774078 161.303360,474.112305 124.785965,463.176819 
	C112.626244,459.535492 100.827637,454.909363 91.107307,446.298157 
	C85.466423,441.300903 82.566521,435.251221 82.581017,427.445831 
	C82.710991,357.464050 82.656952,287.481934 82.656769,216.999908 
M187.791046,458.626709 
	C203.391373,459.635498 218.978806,461.148285 234.594711,461.547150 
	C266.233948,462.355316 297.818176,461.030151 329.190857,456.579254 
	C348.309326,453.866913 367.226959,450.132294 385.365326,443.214294 
	C390.207458,441.367462 394.926483,439.249207 399.055817,436.076355 
	C404.105072,432.196716 404.099579,429.300537 399.241547,425.317932 
	C397.955933,424.263977 396.512054,423.336487 395.450653,422.087585 
	C391.831177,417.828857 393.521362,411.329834 398.646332,409.154175 
	C400.001923,408.578674 401.711945,409.102417 402.413086,408.247375 
	C402.413086,303.471619 402.413086,199.185272 402.413086,94.712746 
	C353.486053,115.667870 302.300568,118.906746 250.939026,118.911751 
	C199.465607,118.916771 148.199692,115.474693 99.759064,94.911682 
	C98.541306,97.890007 99.071281,100.749863 99.069824,103.528847 
	C99.020210,198.506882 99.009460,293.484924 98.996605,388.462982 
	C98.995880,393.794952 99.026588,399.126923 99.038979,404.458893 
	C99.043846,406.553314 99.180840,408.341125 101.935730,408.849304 
	C105.610939,409.527222 107.670425,412.081665 108.239647,415.720459 
	C108.816429,419.407532 107.145096,422.039459 104.268402,424.274811 
	C97.434013,429.585480 97.546074,432.585724 104.810493,437.342102 
	C112.424179,442.327179 121.030502,445.031433 129.658890,447.600708 
	C148.363937,453.170593 167.622238,455.887207 187.791046,458.626709 
M379.175659,86.608795 
	C385.956421,84.252464 392.635010,81.632401 398.544861,77.480286 
	C404.274780,73.454590 404.334839,69.810699 398.715881,65.714241 
	C392.448914,61.145363 385.229950,58.524254 377.913818,56.191673 
	C341.735718,44.657131 304.297058,41.773586 266.700226,40.482853 
	C245.905365,39.768951 225.106888,40.584873 204.323105,42.179951 
	C181.566757,43.926422 159.024017,46.803532 136.908234,52.464363 
	C125.463081,55.393902 114.002388,58.543560 104.013657,65.237740 
	C97.473495,69.620789 97.549118,73.344971 104.035789,77.855820 
	C109.980347,81.989677 116.706444,84.492584 123.508583,86.734787 
	C159.134796,98.478325 196.087814,101.393677 233.209885,102.566925 
	C259.510986,103.398163 285.803894,102.564926 312.023499,99.809845 
	C334.558685,97.441917 356.837860,93.966560 379.175659,86.608795 
z"/>
<path fill="#000000" opacity="1.000000" stroke="none" 
	d="
M185.221252,389.440308 
	C187.043488,386.919373 189.395111,386.005493 191.913132,385.796844 
	C201.184082,385.028564 210.463516,384.346283 219.748306,383.769257 
	C223.617874,383.528778 227.056625,384.575073 228.924286,388.415741 
	C231.318909,393.339996 228.624466,398.735291 222.771683,399.495514 
	C215.037552,400.500092 207.206207,400.759216 199.415604,401.324219 
	C197.591660,401.456543 195.760147,401.489624 193.937790,401.637878 
	C185.877304,402.293854 182.298157,397.553345 185.221252,389.440308 
z"/>
<path fill="#000000" opacity="1.000000" stroke="none" 
	d="
M273.608765,399.440613 
	C266.645416,399.366943 260.145660,399.387573 253.650833,399.219452 
	C247.715485,399.065826 244.156693,396.005707 244.025848,391.216614 
	C243.895538,386.447113 247.257706,383.198242 253.468750,383.143829 
	C262.787415,383.062225 272.118103,383.363922 281.429382,383.804535 
	C286.919159,384.064331 290.429047,387.653107 290.279358,392.101807 
	C290.118652,396.878235 286.335419,399.997040 280.546906,399.964172 
	C278.388550,399.951904 276.231903,399.632172 273.608765,399.440613 
z"/>
<path fill="#000000" opacity="1.000000" stroke="none" 
	d="
M166.402130,391.337524 
	C171.909851,397.873291 170.123428,403.989594 162.355392,405.749115 
	C152.794434,407.914825 143.173050,409.818939 133.559692,411.745819 
	C129.308258,412.598022 126.194595,410.661224 125.014153,406.722870 
	C123.849724,402.837982 124.273071,398.597412 128.751282,397.040375 
	C139.462067,393.316284 150.639465,391.445740 161.840912,389.874695 
	C163.172318,389.687958 164.666763,390.663666 166.402130,391.337524 
z"/>
<path fill="#000000" opacity="1.000000" stroke="none" 
	d="
M304.712799,394.838165 
	C305.531952,388.051392 308.005920,385.815369 314.196838,386.496368 
	C323.589233,387.529510 332.979797,388.655151 342.315186,390.102509 
	C348.117218,391.002045 351.031952,394.993378 350.074097,399.695831 
	C349.109070,404.433441 345.076355,406.582275 339.262817,405.746155 
	C330.726135,404.518463 322.171356,403.408539 313.610992,402.356750 
	C309.123749,401.805389 305.521942,400.337891 304.712799,394.838165 
z"/>
<path fill="#000000" opacity="1.000000" stroke="none" 
	d="
M370.430542,396.901489 
	C377.696442,396.815643 383.809357,399.589691 389.774139,402.385834 
	C393.616272,404.186951 394.916901,407.914886 393.418518,412.122131 
	C391.968597,416.193146 388.247437,418.100098 383.768127,416.855164 
	C379.303101,415.614166 374.959625,413.942505 370.527283,412.575073 
	C366.659241,411.381683 364.025299,409.035919 363.851990,404.891541 
	C363.677185,400.710815 366.023407,398.099670 370.430542,396.901489 
z"/>
</svg>