<svg version="1.1" id="Layer_1" xmlns="http://www.w3.org/2000/svg" xmlns:xlink="http://www.w3.org/1999/xlink" x="0px" y="0px"
	 width="100%" viewBox="0 0 496 496" enable-background="new 0 0 496 496" xml:space="preserve">
<path fill="#000000" opacity="1.000000" stroke="none" 
	d="
M251.666672,1.000000 
	C253.766739,6.289388 257.191895,10.667045 259.999695,15.370930 
	C295.855499,75.439430 335.707397,132.676331 381.167969,185.921066 
	C399.364960,207.233902 418.668854,227.488846 439.297119,246.475281 
	C444.159973,250.951080 444.151245,251.146317 439.346588,255.536285 
	C372.667542,316.460663 319.894592,388.420929 273.038727,465.071899 
	C266.695770,475.448273 260.599854,485.975677 254.194794,496.716553 
	C252.285645,497.000000 250.571289,497.000000 248.428467,497.000000 
	C236.327423,476.436676 223.898651,456.337891 210.886963,436.597412 
	C178.306000,387.167694 142.957047,339.861420 103.172104,295.944519 
	C89.963295,281.363861 75.786263,267.765381 61.428047,254.348480 
	C58.875957,251.963715 58.180416,250.302429 61.212132,247.594635 
	C105.788933,207.780655 143.585220,162.012497 178.399323,113.652763 
	C204.300690,77.673584 227.915131,40.230579 249.864502,1.322308 
	C250.444443,1.000000 250.888901,1.000000 251.666672,1.000000 
M119.262352,255.257172 
	C168.730865,306.837341 210.833282,364.183411 250.820892,424.903961 
	C291.082977,362.028229 334.757294,303.436523 386.556854,250.842361 
	C335.358215,197.564545 291.907349,138.828247 251.174927,76.916389 
	C247.426147,82.718086 244.388199,87.469666 241.301392,92.189285 
	C205.123032,147.504868 165.310226,199.962479 119.072342,247.348404 
	C116.514893,249.969315 115.636978,252.150024 119.262352,255.257172 
z"/>
</svg>