<svg version="1.1" id="Layer_1" xmlns="http://www.w3.org/2000/svg" xmlns:xlink="http://www.w3.org/1999/xlink" x="0px" y="0px"
	 width="100%" viewBox="0 0 500 500" enable-background="new 0 0 500 500" xml:space="preserve">
<path fill="#FF5467" opacity="1.000000" stroke="none" 
	d="
M256.000000,501.000000 
	C252.637894,501.000000 249.275803,501.000000 245.226593,500.694519 
	C230.654297,498.143463 220.148254,490.736450 211.542374,479.789429 
	C159.972839,414.190857 108.272430,348.695099 56.587231,283.187500 
	C39.762280,261.862976 39.693306,240.275650 56.482231,219.004532 
	C72.371414,198.873322 88.243591,178.728668 104.121460,158.588516 
	C140.004700,113.072716 175.932465,67.591866 211.732666,22.010830 
	C219.285873,12.394026 228.360474,5.322766 240.402771,2.415813 
	C241.958450,2.040280 243.468704,1.476552 245.000000,1.000001 
	C248.362106,1.000000 251.724197,1.000000 255.765778,1.288550 
	C258.268982,2.044522 260.092682,2.511943 261.888092,3.349624 
	C256.513947,15.145310 256.549347,26.350199 263.831299,36.922844 
	C267.505066,42.256752 271.786102,47.173508 275.811249,52.264084 
	C300.591675,83.603813 325.390350,114.929131 350.156128,146.280426 
	C363.048676,162.601242 375.872772,178.976105 388.752838,195.306824 
	C400.299255,209.946640 411.964203,224.493881 423.411926,239.210251 
	C429.638641,247.214813 429.370819,255.522354 423.433716,263.011810 
	C393.653992,300.578125 363.915283,338.177032 334.196625,375.791718 
	C313.555420,401.917206 292.948578,428.069977 272.379425,454.252167 
	C268.679962,458.961151 264.796539,463.612518 261.772339,468.746552 
	C255.902313,478.711914 257.877380,488.937958 261.672516,499.250610 
	C259.603058,499.994263 257.801544,500.497131 256.000000,501.000000 
z"/>
<path fill="#FFFFFF" opacity="1.000000" stroke="none" 
	d="
M244.531342,1.000001 
	C243.468704,1.476552 241.958450,2.040280 240.402771,2.415813 
	C228.360474,5.322766 219.285873,12.394026 211.732666,22.010830 
	C175.932465,67.591866 140.004700,113.072716 104.121460,158.588516 
	C88.243591,178.728668 72.371414,198.873322 56.482231,219.004532 
	C39.693306,240.275650 39.762280,261.862976 56.587231,283.187500 
	C108.272430,348.695099 159.972839,414.190857 211.542374,479.789429 
	C220.148254,490.736450 230.654297,498.143463 244.769745,500.694519 
	C163.702698,501.000000 82.405380,501.000000 1.054036,501.000000 
	C1.054036,334.443207 1.054036,167.886368 1.054036,1.000000 
	C82.020599,1.000000 163.041641,1.000000 244.531342,1.000001 
z"/>
<path fill="#FFFFFF" opacity="1.000000" stroke="none" 
	d="
M256.467834,501.000000 
	C257.801544,500.497131 259.603058,499.994263 262.076782,499.287659 
	C263.880310,498.855377 265.051331,498.744904 266.136719,498.379761 
	C276.272919,494.969940 283.900940,488.346558 290.441528,480.036591 
	C342.643890,413.712524 394.983521,347.496521 447.176331,281.165009 
	C462.355713,261.873657 461.763947,239.160950 446.391693,219.752777 
	C413.937500,178.777771 381.632660,137.684448 349.259705,96.645081 
	C328.739777,70.631874 308.316132,44.541512 287.617218,18.671434 
	C281.053253,10.467580 272.812927,4.390724 261.916412,2.979364 
	C260.092682,2.511943 258.268982,2.044522 256.222626,1.288550 
	C337.630676,1.000000 419.261353,1.000000 500.946014,1.000000 
	C500.946014,167.557220 500.946014,334.114471 500.946014,501.000000 
	C419.645538,501.000000 338.290619,501.000000 256.467834,501.000000 
z"/>
<path fill="#C53350" opacity="1.000000" stroke="none" 
	d="
M261.888092,3.349623 
	C272.812927,4.390724 281.053253,10.467580 287.617218,18.671434 
	C308.316132,44.541512 328.739777,70.631874 349.259705,96.645081 
	C381.632660,137.684448 413.937500,178.777771 446.391693,219.752777 
	C461.763947,239.160950 462.355713,261.873657 447.176331,281.165009 
	C394.983521,347.496521 342.643890,413.712524 290.441528,480.036591 
	C283.900940,488.346558 276.272919,494.969940 266.136719,498.379761 
	C265.051331,498.744904 263.880310,498.855377 262.344727,499.046875 
	C257.877380,488.937958 255.902313,478.711914 261.772339,468.746552 
	C264.796539,463.612518 268.679962,458.961151 272.379425,454.252167 
	C292.948578,428.069977 313.555420,401.917206 334.196625,375.791718 
	C363.915283,338.177032 393.653992,300.578125 423.433716,263.011810 
	C429.370819,255.522354 429.638641,247.214813 423.411926,239.210251 
	C411.964203,224.493881 400.299255,209.946640 388.752838,195.306824 
	C375.872772,178.976105 363.048676,162.601242 350.156128,146.280426 
	C325.390350,114.929131 300.591675,83.603813 275.811249,52.264084 
	C271.786102,47.173508 267.505066,42.256752 263.831299,36.922844 
	C256.549347,26.350199 256.513947,15.145310 261.888092,3.349623 
z"/>
</svg>