<svg version="1.1" id="Layer_1" xmlns="http://www.w3.org/2000/svg" xmlns:xlink="http://www.w3.org/1999/xlink" x="0px" y="0px"
	 width="100%" viewBox="0 0 500 500" enable-background="new 0 0 500 500" xml:space="preserve">
<path fill="#FEFFFF" opacity="1.000000" stroke="none" 
	d="
M250.000000,501.000000 
	C167.036102,501.000000 84.072220,501.000000 1.054164,501.000000 
	C1.054164,334.441956 1.054164,167.883911 1.054164,1.000000 
	C83.688393,1.000000 166.377213,1.000000 249.431961,1.331990 
	C239.717758,7.720468 229.637619,13.776955 219.366547,19.864624 
	C219.175598,19.895805 218.966736,20.221552 218.725616,20.242599 
	C218.166153,20.398540 217.952728,20.630150 217.500793,21.002022 
	C157.613800,55.358364 98.084167,89.695381 38.485039,123.911377 
	C35.549553,125.596642 34.810089,127.549805 34.813026,130.686966 
	C34.887665,210.463593 34.918430,290.240356 34.773945,370.016815 
	C34.765942,374.437073 36.085072,376.775665 39.924335,378.970551 
	C81.819542,402.921967 123.581772,427.105774 165.414093,451.167389 
	C182.851044,461.197021 200.369141,471.085571 217.977051,481.261536 
	C218.416473,481.595520 218.729187,481.706299 219.059662,481.905457 
	C219.077423,481.993835 219.252914,481.952545 219.410797,482.239014 
	C221.271927,483.548218 222.979996,484.563049 224.677582,485.595154 
	C233.119904,490.727570 241.559464,495.864594 250.000000,501.000000 
z"/>
<path fill="#FFFFFF" opacity="1.000000" stroke="none" 
	d="
M252.000000,0.999997 
	C334.963867,1.000000 417.927765,1.000000 500.945801,1.000000 
	C500.945801,167.557999 500.945801,334.116028 500.945801,501.000000 
	C418.311615,501.000000 335.622772,501.000000 252.577423,500.672424 
	C254.225830,499.161438 256.220978,497.961121 258.237091,496.797058 
	C326.568054,457.345428 394.899017,417.893768 463.241608,378.462219 
	C465.733063,377.024719 467.682343,375.809692 467.676605,372.166046 
	C467.549652,291.502502 467.568970,210.838684 467.653748,130.175018 
	C467.656982,127.092606 466.591888,125.441338 463.959656,123.927582 
	C405.518463,90.318794 347.109985,56.652897 288.743683,22.914133 
	C276.398407,15.777910 264.242920,8.313297 252.000000,0.999997 
z"/>
<path fill="#03D38F" opacity="1.000000" stroke="none" 
	d="
M251.666672,0.999997 
	C264.242920,8.313297 276.398407,15.777910 288.743683,22.914133 
	C347.109985,56.652897 405.518463,90.318794 463.959656,123.927582 
	C466.591888,125.441338 467.656982,127.092606 467.653748,130.175018 
	C467.568970,210.838684 467.549652,291.502502 467.676605,372.166046 
	C467.682343,375.809692 465.733063,377.024719 463.241608,378.462219 
	C394.899017,417.893768 326.568054,457.345428 258.237091,496.797058 
	C256.220978,497.961121 254.225830,499.161438 252.110443,500.672424 
	C251.555557,501.000000 251.111099,501.000000 250.333328,501.000000 
	C241.559464,495.864594 233.119904,490.727570 224.677582,485.595154 
	C222.979996,484.563049 221.271927,483.548218 219.762360,482.248230 
	C221.856461,480.734741 223.690613,479.378967 225.668243,478.281830 
	C237.080887,471.950531 248.582092,465.777283 259.950287,459.367767 
	C279.363678,448.422363 298.704224,437.347687 318.069061,426.316223 
	C336.610321,415.753906 355.150116,405.188965 373.678497,394.604126 
	C391.947723,384.167358 410.159851,373.629639 428.495758,363.311584 
	C432.464111,361.078491 434.043396,358.126038 434.039642,353.684753 
	C433.981537,284.565033 433.980438,215.445282 434.062836,146.325638 
	C434.066467,143.265198 433.077820,141.406586 430.467621,139.921738 
	C419.557953,133.715576 408.768188,127.298279 397.846405,121.113899 
	C380.910339,111.523972 363.859131,102.137184 346.937805,92.521576 
	C331.531830,83.767059 316.277557,74.745682 300.875397,65.984406 
	C286.819885,57.989166 272.617737,50.251976 258.550507,42.277058 
	C245.504501,34.881104 232.551468,27.321177 219.557495,19.833443 
	C229.637619,13.776955 239.717758,7.720468 249.898941,1.331990 
	C250.444443,1.000000 250.888901,1.000000 251.666672,0.999997 
z"/>
<path fill="#00E499" opacity="1.000000" stroke="none" 
	d="
M219.366547,19.864624 
	C232.551468,27.321177 245.504501,34.881104 258.550507,42.277058 
	C272.617737,50.251976 286.819885,57.989166 300.875397,65.984406 
	C316.277557,74.745682 331.531830,83.767059 346.937805,92.521576 
	C363.859131,102.137184 380.910339,111.523972 397.846405,121.113899 
	C408.768188,127.298279 419.557953,133.715576 430.467621,139.921738 
	C433.077820,141.406586 434.066467,143.265198 434.062836,146.325638 
	C433.980438,215.445282 433.981537,284.565033 434.039642,353.684753 
	C434.043396,358.126038 432.464111,361.078491 428.495758,363.311584 
	C410.159851,373.629639 391.947723,384.167358 373.678497,394.604126 
	C355.150116,405.188965 336.610321,415.753906 318.069061,426.316223 
	C298.704224,437.347687 279.363678,448.422363 259.950287,459.367767 
	C248.582092,465.777283 237.080887,471.950531 225.668243,478.281830 
	C223.690613,479.378967 221.856461,480.734741 219.604477,481.961792 
	C219.252914,481.952545 219.077423,481.993835 218.903503,481.717468 
	C218.477264,481.217896 218.184174,481.083649 217.850327,481.038300 
	C200.369141,471.085571 182.851044,461.197021 165.414093,451.167389 
	C123.581772,427.105774 81.819542,402.921967 39.924335,378.970551 
	C36.085072,376.775665 34.765942,374.437073 34.773945,370.016815 
	C34.918430,290.240356 34.887665,210.463593 34.813026,130.686966 
	C34.810089,127.549805 35.549553,125.596642 38.485039,123.911377 
	C98.084167,89.695381 157.613800,55.358364 217.725281,20.942074 
	C218.588089,20.709734 218.812607,20.504055 218.966736,20.221552 
	C218.966736,20.221552 219.175598,19.895805 219.366547,19.864624 
z"/>
<path fill="#03D38F" opacity="1.000000" stroke="none" 
	d="
M218.725616,20.242599 
	C218.812607,20.504055 218.588089,20.709734 218.068726,20.898533 
	C217.952728,20.630150 218.166153,20.398540 218.725616,20.242599 
z"/>
<path fill="#03D38F" opacity="1.000000" stroke="none" 
	d="
M217.977051,481.261536 
	C218.184174,481.083649 218.477264,481.217896 218.885742,481.629089 
	C218.729187,481.706299 218.416473,481.595520 217.977051,481.261536 
z"/>
</svg>