<svg version="1.1" id="Layer_1" xmlns="http://www.w3.org/2000/svg" xmlns:xlink="http://www.w3.org/1999/xlink" x="0px" y="0px"
	 width="100%" viewBox="0 0 500 500" enable-background="new 0 0 500 500" xml:space="preserve">
<path fill="#020202" opacity="1.000000" stroke="none" 
	d="
M241.000000,1.000000 
	C246.688034,1.000000 252.376083,1.000000 258.672546,1.375819 
	C266.935730,4.273252 275.132507,5.768589 282.159332,9.479351 
	C336.840729,38.355801 391.314484,67.625977 445.814209,96.845757 
	C468.673889,109.101868 479.764252,128.559525 479.808960,154.262299 
	C479.920868,218.575806 479.895569,282.889709 479.819061,347.203339 
	C479.788177,373.162262 468.417755,392.557434 445.464539,404.929413 
	C408.453979,424.878510 371.725586,445.383575 334.282288,464.486176 
	C308.923462,477.423615 285.700439,495.089386 257.000000,501.000000 
	C252.643097,501.000000 248.286194,501.000000 243.297821,500.641052 
	C235.622055,497.991364 228.062759,496.672882 221.614319,493.257233 
	C166.256622,463.935028 111.083466,434.264008 55.890877,404.630676 
	C33.426300,392.569305 22.110712,373.482452 22.026621,348.173309 
	C21.810715,283.191895 21.799643,218.208847 22.017353,153.227478 
	C22.102236,127.892120 33.452934,108.514244 56.044018,96.896011 
	C117.802490,65.134628 177.110382,28.643946 241.000000,1.000000 
M326.083862,79.404129 
	C305.391876,68.368240 284.665924,57.395298 264.023926,46.266724 
	C255.272736,41.548763 246.898239,41.497456 238.025177,46.262474 
	C183.979263,75.286263 129.854660,104.163841 75.708412,133.000244 
	C67.196358,137.533463 63.106506,144.270035 63.117630,153.931747 
	C63.191868,218.416763 63.202374,282.901978 63.103474,347.386932 
	C63.088329,357.261475 67.224907,364.117828 75.886559,368.742584 
	C129.853119,397.557220 183.807129,426.396057 237.665924,455.411346 
	C247.037125,460.459839 255.706741,460.324738 265.019592,455.297546 
	C318.406433,426.478790 371.856171,397.775452 425.396729,369.243408 
	C434.821014,364.221130 439.141113,357.117462 439.113342,346.418060 
	C438.947784,282.599884 438.965302,218.780914 439.115997,154.962646 
	C439.140717,144.504486 435.010986,137.400803 425.692169,132.501785 
	C392.607239,115.108574 359.687531,97.401100 326.083862,79.404129 
z"/>
<path fill="#EBF2EF" opacity="1.000000" stroke="none" 
	d="
M257.468658,501.000000 
	C285.700439,495.089386 308.923462,477.423615 334.282288,464.486176 
	C371.725586,445.383575 408.453979,424.878510 445.464539,404.929413 
	C468.417755,392.557434 479.788177,373.162262 479.819061,347.203339 
	C479.895569,282.889709 479.920868,218.575806 479.808960,154.262299 
	C479.764252,128.559525 468.673889,109.101868 445.814209,96.845757 
	C391.314484,67.625977 336.840729,38.355801 282.159332,9.479351 
	C275.132507,5.768589 266.935730,4.273252 259.140472,1.375819 
	C339.630859,1.000000 420.261719,1.000000 500.946289,1.000000 
	C500.946289,167.556854 500.946289,334.113708 500.946289,501.000000 
	C419.979401,501.000000 338.958374,501.000000 257.468658,501.000000 
z"/>
<path fill="#EBF2EF" opacity="1.000000" stroke="none" 
	d="
M240.531342,1.000000 
	C177.110382,28.643946 117.802490,65.134628 56.044018,96.896011 
	C33.452934,108.514244 22.102236,127.892120 22.017353,153.227478 
	C21.799643,218.208847 21.810715,283.191895 22.026621,348.173309 
	C22.110712,373.482452 33.426300,392.569305 55.890877,404.630676 
	C111.083466,434.264008 166.256622,463.935028 221.614319,493.257233 
	C228.062759,496.672882 235.622055,497.991364 242.833176,500.641052 
	C162.369278,501.000000 81.738556,501.000000 1.053918,501.000000 
	C1.053918,334.443573 1.053918,167.887100 1.053918,1.000000 
	C80.687256,1.000000 160.374969,1.000000 240.531342,1.000000 
z"/>
<path fill="#ECF3F0" opacity="1.000000" stroke="none" 
	d="
M326.394531,79.608398 
	C359.687531,97.401100 392.607239,115.108574 425.692169,132.501785 
	C435.010986,137.400803 439.140717,144.504486 439.115997,154.962646 
	C438.965302,218.780914 438.947784,282.599884 439.113342,346.418060 
	C439.141113,357.117462 434.821014,364.221130 425.396729,369.243408 
	C371.856171,397.775452 318.406433,426.478790 265.019592,455.297546 
	C255.706741,460.324738 247.037125,460.459839 237.665924,455.411346 
	C183.807129,426.396057 129.853119,397.557220 75.886559,368.742584 
	C67.224907,364.117828 63.088329,357.261475 63.103474,347.386932 
	C63.202374,282.901978 63.191868,218.416763 63.117630,153.931747 
	C63.106506,144.270035 67.196358,137.533463 75.708412,133.000244 
	C129.854660,104.163841 183.979263,75.286263 238.025177,46.262474 
	C246.898239,41.497456 255.272736,41.548763 264.023926,46.266724 
	C284.665924,57.395298 305.391876,68.368240 326.394531,79.608398 
z"/>
</svg>