<svg version="1.1" id="Layer_1" xmlns="http://www.w3.org/2000/svg" xmlns:xlink="http://www.w3.org/1999/xlink" x="0px" y="0px"
	 width="100%" viewBox="0 0 500 500" enable-background="new 0 0 500 500" xml:space="preserve">
<path fill="#ECF3F0" opacity="1.000000" stroke="none" 
	d="
M1.000002,200.000000 
	C1.000000,133.698990 1.000000,67.397987 1.000000,1.048489 
	C167.553116,1.048489 334.106232,1.048489 501.000000,1.048489 
	C501.000000,67.020500 501.000000,133.041595 500.650665,199.544296 
	C495.057556,195.760651 489.883362,191.406296 484.556580,187.247330 
	C470.321411,176.132904 456.079865,165.024963 441.733612,154.054703 
	C412.386841,131.613922 382.971161,109.263237 353.581085,86.879105 
	C340.388733,76.831505 327.165253,66.824631 313.999756,56.742001 
	C296.068787,43.009804 278.268127,29.105513 260.231140,15.514496 
	C252.527817,9.709992 248.702255,9.989846 241.161728,15.761701 
	C219.834457,32.086544 198.548157,48.464893 177.232697,64.805191 
	C159.355988,78.509331 141.475296,92.208344 123.570518,105.875771 
	C100.253517,123.674561 76.867638,141.383408 53.593594,159.238098 
	C35.995636,172.738388 18.526484,186.406555 1.000002,200.000000 
z"/>
<path fill="#EBF2EF" opacity="1.000000" stroke="none" 
	d="
M501.000000,210.000000 
	C501.000000,306.961273 501.000000,403.922516 501.000000,500.941895 
	C334.438660,500.941895 167.877274,500.941895 1.000000,500.941895 
	C1.000000,404.310913 1.000000,307.621490 1.382792,210.480164 
	C14.531782,247.972733 27.406635,285.881073 40.037594,323.870544 
	C57.084320,375.141052 73.935585,426.476501 90.888947,477.778076 
	C94.799332,489.611115 96.466415,490.817810 109.115082,490.823944 
	C198.600189,490.867371 288.085297,490.890717 377.570404,490.914703 
	C384.069275,490.916443 390.569031,490.931732 397.066711,490.832611 
	C403.117584,490.740326 407.533752,488.327881 409.466309,482.140137 
	C411.498535,475.633270 413.838379,469.223114 415.985138,462.751221 
	C440.265350,389.553802 464.488892,316.337494 488.854614,243.168533 
	C492.572998,232.002457 496.935455,221.050827 501.000000,210.000000 
z"/>
<path fill="#050505" opacity="1.000000" stroke="none" 
	d="
M501.000000,209.545898 
	C496.935455,221.050827 492.572998,232.002457 488.854614,243.168533 
	C464.488892,316.337494 440.265350,389.553802 415.985138,462.751221 
	C413.838379,469.223114 411.498535,475.633270 409.466309,482.140137 
	C407.533752,488.327881 403.117584,490.740326 397.066711,490.832611 
	C390.569031,490.931732 384.069275,490.916443 377.570404,490.914703 
	C288.085297,490.890717 198.600189,490.867371 109.115082,490.823944 
	C96.466415,490.817810 94.799332,489.611115 90.888947,477.778076 
	C73.935585,426.476501 57.084320,375.141052 40.037594,323.870544 
	C27.406635,285.881073 14.531782,247.972733 1.382792,210.014130 
	C1.000000,206.969406 1.000000,203.938812 1.000002,200.454102 
	C18.526484,186.406555 35.995636,172.738388 53.593594,159.238098 
	C76.867638,141.383408 100.253517,123.674561 123.570518,105.875771 
	C141.475296,92.208344 159.355988,78.509331 177.232697,64.805191 
	C198.548157,48.464893 219.834457,32.086544 241.161728,15.761701 
	C248.702255,9.989846 252.527817,9.709992 260.231140,15.514496 
	C278.268127,29.105513 296.068787,43.009804 313.999756,56.742001 
	C327.165253,66.824631 340.388733,76.831505 353.581085,86.879105 
	C382.971161,109.263237 412.386841,131.613922 441.733612,154.054703 
	C456.079865,165.024963 470.321411,176.132904 484.556580,187.247330 
	C489.883362,191.406296 495.057556,195.760651 500.650665,200.012955 
	C501.000000,203.030594 501.000000,206.061188 501.000000,209.545898 
M25.026733,207.832016 
	C24.915081,209.092133 24.405621,210.477386 24.756224,211.592117 
	C27.063143,218.926941 29.555056,226.203598 31.987289,233.499008 
	C45.986294,275.488678 59.996960,317.474457 73.981064,359.469086 
	C85.642059,394.487305 97.351456,429.489899 108.808739,464.574738 
	C110.144875,468.666290 111.803467,470.198700 116.240036,470.188812 
	C168.735062,470.071747 221.230545,470.185913 273.725922,470.207275 
	C311.222778,470.222534 348.719788,470.135986 386.216187,470.260925 
	C389.941254,470.273376 391.960693,469.377350 392.961731,465.587646 
	C394.507843,459.734467 396.500305,453.994812 398.413330,448.243530 
	C412.229950,406.706329 426.040741,365.167145 439.919952,323.650818 
	C452.106262,287.198547 464.292816,250.745682 476.727142,214.377853 
	C478.211426,210.036697 477.573608,207.716934 473.897308,205.017242 
	C459.212860,194.233673 444.733063,183.169418 430.248657,172.115829 
	C399.403442,148.576675 368.600189,124.982529 337.784271,101.404976 
	C310.254333,80.341537 282.711792,59.294376 255.233093,38.164276 
	C252.521286,36.078995 250.401749,35.454548 247.377335,37.798267 
	C229.589905,51.582325 211.695435,65.228783 193.790176,78.860085 
	C178.382843,90.589722 162.847992,102.152550 147.485138,113.939835 
	C121.569481,133.823868 95.768700,153.857544 69.873528,173.768372 
	C55.191696,185.057281 40.418186,196.226959 25.026733,207.832016 
z"/>
<path fill="#ECF3F0" opacity="1.000000" stroke="none" 
	d="
M25.356344,207.641174 
	C40.418186,196.226959 55.191696,185.057281 69.873528,173.768372 
	C95.768700,153.857544 121.569481,133.823868 147.485138,113.939835 
	C162.847992,102.152550 178.382843,90.589722 193.790176,78.860085 
	C211.695435,65.228783 229.589905,51.582325 247.377335,37.798267 
	C250.401749,35.454548 252.521286,36.078995 255.233093,38.164276 
	C282.711792,59.294376 310.254333,80.341537 337.784271,101.404976 
	C368.600189,124.982529 399.403442,148.576675 430.248657,172.115829 
	C444.733063,183.169418 459.212860,194.233673 473.897308,205.017242 
	C477.573608,207.716934 478.211426,210.036697 476.727142,214.377853 
	C464.292816,250.745682 452.106262,287.198547 439.919952,323.650818 
	C426.040741,365.167145 412.229950,406.706329 398.413330,448.243530 
	C396.500305,453.994812 394.507843,459.734467 392.961731,465.587646 
	C391.960693,469.377350 389.941254,470.273376 386.216187,470.260925 
	C348.719788,470.135986 311.222778,470.222534 273.725922,470.207275 
	C221.230545,470.185913 168.735062,470.071747 116.240036,470.188812 
	C111.803467,470.198700 110.144875,468.666290 108.808739,464.574738 
	C97.351456,429.489899 85.642059,394.487305 73.981064,359.469086 
	C59.996960,317.474457 45.986294,275.488678 31.987289,233.499008 
	C29.555056,226.203598 27.063143,218.926941 24.756224,211.592117 
	C24.405621,210.477386 24.915081,209.092133 25.356344,207.641174 
z"/>
</svg>