<svg version="1.1" id="Layer_1" xmlns="http://www.w3.org/2000/svg" xmlns:xlink="http://www.w3.org/1999/xlink" x="0px" y="0px"
	 width="100%" viewBox="0 0 500 500" enable-background="new 0 0 500 500" xml:space="preserve">
<path fill="#FF77AB" opacity="1.000000" stroke="none" 
	d="
M1.000001,196.000000 
	C1.000000,195.555664 1.000000,195.111328 1.356488,194.429611 
	C2.861946,193.554520 4.092155,193.028763 5.147998,192.262695 
	C31.011927,173.497375 56.855091,154.703461 82.706543,135.920944 
	C129.821579,101.689240 176.939590,67.461586 224.137390,33.546967 
	C227.666183,36.621895 231.015518,39.516815 234.578232,42.119659 
	C252.819504,55.446289 271.119507,68.692551 289.391876,81.976639 
	C311.412781,97.985901 333.448090,113.975426 355.436981,130.028580 
	C375.041718,144.341171 394.547974,158.788879 414.180664,173.062805 
	C428.028717,183.131012 442.049896,192.960953 455.906616,203.017410 
	C458.228058,204.702209 461.686646,205.708115 460.180878,210.235626 
	C454.247955,228.074249 448.689423,246.036987 442.828522,263.900024 
	C434.699036,288.677429 426.353485,313.383972 418.226837,338.162292 
	C408.801086,366.901520 399.460236,395.668884 390.181061,424.455811 
	C383.345428,445.662231 376.668060,466.919647 369.457581,488.190491 
	C280.900818,488.225037 192.806671,488.223511 104.712502,488.221436 
	C103.213745,488.221405 101.534248,488.643799 100.260536,488.106750 
	C98.545692,487.383667 96.334641,486.232330 95.747581,484.717865 
	C93.225060,478.210358 91.190170,471.511993 89.029747,464.866211 
	C60.631008,377.507843 32.245621,290.145111 3.824655,202.793961 
	C3.068222,200.469070 1.949678,198.262009 1.000001,196.000000 
z"/>
<path fill="#FFFFFF" opacity="1.000000" stroke="none" 
	d="
M224.056351,33.232246 
	C176.939590,67.461586 129.821579,101.689240 82.706543,135.920944 
	C56.855091,154.703461 31.011927,173.497375 5.147998,192.262695 
	C4.092155,193.028763 2.861946,193.554520 1.356488,194.096115 
	C1.000000,129.698395 1.000000,65.396797 1.000000,1.047597 
	C167.552719,1.047597 334.105469,1.047597 501.000000,1.047597 
	C501.000000,65.353821 501.000000,129.708252 500.722412,194.341965 
	C440.749725,151.278931 381.052734,107.939262 321.360565,64.592903 
	C299.127594,48.448116 276.891632,32.307323 254.701859,16.103342 
	C252.535049,14.521041 250.851151,13.357591 248.158401,15.419827 
	C240.228302,21.493008 232.104401,27.313091 224.056351,33.232246 
z"/>
<path fill="#FFFEFE" opacity="1.000000" stroke="none" 
	d="
M1.000001,196.468658 
	C1.949678,198.262009 3.068222,200.469070 3.824655,202.793961 
	C32.245621,290.145111 60.631008,377.507843 89.029747,464.866211 
	C91.190170,471.511993 93.225060,478.210358 95.747581,484.717865 
	C96.334641,486.232330 98.545692,487.383667 100.260536,488.106750 
	C101.534248,488.643799 103.213745,488.221405 104.712502,488.221436 
	C192.806671,488.223511 280.900818,488.225037 369.825256,488.380859 
	C380.305725,488.592896 389.965607,488.416229 399.601898,488.812225 
	C404.085541,488.996460 405.839294,487.401581 407.201294,483.185059 
	C433.720062,401.084229 460.391479,319.032623 487.101288,236.993622 
	C491.567749,223.274902 496.358856,209.661865 501.000000,196.000000 
	C501.000000,297.626587 501.000000,399.253143 501.000000,500.939880 
	C334.439178,500.939880 167.878311,500.939880 1.000000,500.939880 
	C1.000000,399.645996 1.000000,298.291656 1.000001,196.468658 
z"/>
<path fill="#FE5697" opacity="1.000000" stroke="none" 
	d="
M501.000000,195.750000 
	C496.358856,209.661865 491.567749,223.274902 487.101288,236.993622 
	C460.391479,319.032623 433.720062,401.084229 407.201294,483.185059 
	C405.839294,487.401581 404.085541,488.996460 399.601898,488.812225 
	C389.965607,488.416229 380.305725,488.592896 370.287842,488.344727 
	C376.668060,466.919647 383.345428,445.662231 390.181061,424.455811 
	C399.460236,395.668884 408.801086,366.901520 418.226837,338.162292 
	C426.353485,313.383972 434.699036,288.677429 442.828522,263.900024 
	C448.689423,246.036987 454.247955,228.074249 460.180878,210.235626 
	C461.686646,205.708115 458.228058,204.702209 455.906616,203.017410 
	C442.049896,192.960953 428.028717,183.131012 414.180664,173.062805 
	C394.547974,158.788879 375.041718,144.341171 355.436981,130.028580 
	C333.448090,113.975426 311.412781,97.985901 289.391876,81.976639 
	C271.119507,68.692551 252.819504,55.446289 234.578232,42.119659 
	C231.015518,39.516815 227.666183,36.621895 224.137390,33.546967 
	C232.104401,27.313091 240.228302,21.493008 248.158401,15.419827 
	C250.851151,13.357591 252.535049,14.521041 254.701859,16.103342 
	C276.891632,32.307323 299.127594,48.448116 321.360565,64.592903 
	C381.052734,107.939262 440.749725,151.278931 500.722412,194.810623 
	C501.000000,195.000000 501.000000,195.500000 501.000000,195.750000 
z"/>
</svg>