<svg version="1.1" id="Layer_1" xmlns="http://www.w3.org/2000/svg" xmlns:xlink="http://www.w3.org/1999/xlink" x="0px" y="0px"
	 width="100%" viewBox="0 0 500 500" enable-background="new 0 0 500 500" xml:space="preserve">
<path fill="#030303" opacity="1.000000" stroke="none" 
	d="
M287.000000,501.000000 
	C191.333359,501.000000 96.166710,501.000000 1.000051,501.000000 
	C1.000034,334.333405 1.000034,167.666794 1.000017,1.000141 
	C167.666565,1.000094 334.333130,1.000094 500.999756,1.000047 
	C500.999847,167.666519 500.999847,334.333038 500.999939,500.999786 
	C429.833344,501.000000 358.666656,501.000000 287.000000,501.000000 
M312.499634,483.578674 
	C369.401001,483.578674 426.302368,483.578674 483.310120,483.578674 
	C483.310120,328.126160 483.310120,173.570312 483.310120,18.944592 
	C328.183075,18.944592 173.510239,18.944592 18.786552,18.944592 
	C18.786552,173.950470 18.786552,328.505035 18.786552,483.578735 
	C116.610657,483.578735 214.055130,483.578735 312.499634,483.578674 
z"/>
<path fill="#EBF2EF" opacity="1.000000" stroke="none" 
	d="
M311.999634,483.578705 
	C214.055130,483.578735 116.610657,483.578735 18.786552,483.578735 
	C18.786552,328.505035 18.786552,173.950470 18.786552,18.944592 
	C173.510239,18.944592 328.183075,18.944592 483.310120,18.944592 
	C483.310120,173.570312 483.310120,328.126160 483.310120,483.578674 
	C426.302368,483.578674 369.401001,483.578674 311.999634,483.578705 
z"/>
</svg>