<svg version="1.1" id="Layer_1" xmlns="http://www.w3.org/2000/svg" xmlns:xlink="http://www.w3.org/1999/xlink" x="0px" y="0px"
	 width="100%" viewBox="0 0 496 496" enable-background="new 0 0 496 496" xml:space="preserve">
<path fill="#000000" opacity="1.000000" stroke="none" 
	d="
M404.493347,424.565125 
	C405.559082,438.897583 400.471466,450.211426 389.261139,458.301788 
	C377.475159,466.807678 364.488495,468.020721 351.494598,461.420349 
	C328.922516,449.954681 306.598724,438.000122 284.170135,426.251923 
	C274.873474,421.382263 265.488007,416.672607 256.318085,411.575134 
	C252.356689,409.373108 249.133041,409.633240 245.192535,411.726929 
	C214.306381,428.137665 183.363617,444.443817 152.338318,460.590088 
	C131.774384,471.291992 109.205711,463.429199 100.101830,442.671173 
	C95.935326,433.170990 97.416817,423.483826 99.110077,413.756866 
	C104.638481,381.998657 110.084930,350.226135 115.596008,318.464905 
	C116.450523,313.540192 115.407669,309.723663 111.522270,305.988007 
	C86.418961,281.852081 61.507038,257.515625 36.666706,233.108200 
	C21.372711,218.080780 21.095932,194.653366 35.834862,179.738815 
	C42.725044,172.766541 51.495506,170.061691 60.946777,168.711426 
	C90.229103,164.527985 119.488098,160.181412 148.758804,155.916351 
	C153.034912,155.293259 157.311279,154.592651 161.613174,154.246964 
	C166.310150,153.869507 168.883759,151.426270 170.925217,147.250214 
	C186.433014,115.526924 202.024170,83.842781 217.856934,52.280685 
	C224.766678,38.506317 236.421539,31.482859 251.797882,31.799833 
	C266.977081,32.112743 277.945618,39.693184 284.662292,53.291077 
	C299.932770,84.206078 315.242279,115.102531 330.305786,146.118286 
	C332.636719,150.917709 335.433411,153.547226 340.963715,154.277679 
	C362.719147,157.151108 384.416016,160.470062 406.129608,163.657455 
	C419.942200,165.685043 433.839417,167.294205 447.527740,169.966492 
	C461.340088,172.662994 470.811249,181.236893 475.199249,194.686401 
	C480.009430,209.429977 476.175232,222.485596 465.390656,233.153915 
	C440.752655,257.526276 415.895233,281.680054 390.874817,305.659515 
	C386.550842,309.803589 385.687042,313.889984 386.663086,319.440796 
	C392.620667,353.322021 398.358246,387.241943 404.155304,421.151367 
	C404.323120,422.132935 404.336487,423.140930 404.493347,424.565125 
M230.644684,99.066589 
	C219.820297,121.026947 209.051880,143.015137 198.147659,164.935776 
	C192.777969,175.730408 184.186768,183.029327 172.270279,184.994019 
	C149.150040,188.805847 125.914024,191.914948 102.727768,195.327316 
	C89.404366,197.288162 76.070717,199.185806 62.769375,201.287201 
	C57.041439,202.192108 55.743317,206.159424 59.572510,210.466858 
	C61.008617,212.082352 62.624027,213.539795 64.174362,215.052200 
	C88.742775,239.019165 113.379341,262.916809 137.850067,286.983093 
	C146.807693,295.792633 149.960709,306.935730 147.971954,319.093384 
	C142.202026,354.366272 136.048752,389.576630 129.958084,424.796326 
	C129.512878,427.370697 128.910339,429.755249 131.253342,431.654510 
	C133.770248,433.694763 136.254395,432.711426 138.701508,431.425934 
	C140.176376,430.651154 141.653061,429.879822 143.127625,429.104431 
	C173.056808,413.367126 202.974289,397.607452 232.920532,381.902618 
	C244.835892,375.653809 256.902832,375.623596 268.824829,381.774597 
	C285.403900,390.328217 301.880188,399.081024 318.395966,407.757141 
	C333.437195,415.658630 348.470795,423.574585 363.511963,431.476135 
	C365.789337,432.672516 368.118011,433.625214 370.525360,431.806091 
	C372.486633,430.324066 372.750916,428.383179 372.344208,426.017334 
	C366.373413,391.286072 360.598633,356.520569 354.489380,321.813873 
	C351.879364,306.986450 355.665894,294.751068 366.606354,284.246918 
	C391.724731,260.130249 416.551514,235.709946 441.500031,211.416336 
	C443.323059,209.641129 445.264954,207.802460 444.431488,204.978241 
	C443.615356,202.212753 441.245819,201.519409 438.584412,201.134293 
	C404.690582,196.229950 370.842316,190.992386 336.904572,186.417831 
	C321.085602,184.285538 309.690796,177.162155 302.611938,162.557526 
	C287.502075,131.383698 271.955688,100.421410 256.572113,69.380394 
	C255.385620,66.986290 254.232727,64.401314 250.983841,64.350716 
	C247.707947,64.299690 246.531311,66.853691 245.340775,69.265343 
	C240.548004,78.974068 235.777985,88.694023 230.644684,99.066589 
z"/>
</svg>