<svg version="1.1" id="Layer_1" xmlns="http://www.w3.org/2000/svg" xmlns:xlink="http://www.w3.org/1999/xlink" x="0px" y="0px"
	 width="100%" viewBox="0 0 500 500" enable-background="new 0 0 500 500" xml:space="preserve">
<path fill="#FEC108" opacity="1.000000" stroke="none" 
	d="
M248.000000,1.000000 
	C249.388885,1.000000 250.777786,1.000000 252.725784,1.336321 
	C260.457123,2.986781 264.046600,7.905824 266.964325,14.169832 
	C288.261414,59.891750 309.773041,105.513695 331.161530,151.193130 
	C332.781860,154.653671 334.440643,156.894653 338.942688,157.511093 
	C361.521454,160.602737 384.023376,164.256958 406.549835,167.729553 
	C430.874817,171.479446 455.158203,175.531876 479.540222,178.863190 
	C488.954529,180.149460 497.093414,182.290909 501.000000,192.000000 
	C501.000000,194.370560 501.000000,196.741104 500.659485,199.619019 
	C497.731201,203.354172 495.389252,206.820984 492.518250,209.773361 
	C457.784760,245.491531 423.002502,281.162506 388.123047,316.738037 
	C385.510223,319.403015 384.529358,321.867462 385.216980,325.562866 
	C386.983948,335.058716 388.368591,344.625305 389.934845,354.158936 
	C396.872803,396.388794 403.851013,438.612091 410.741760,480.849640 
	C412.253601,490.116699 408.550140,496.292236 399.885498,499.712463 
	C399.195129,499.984985 398.625671,500.563629 398.000000,501.000000 
	C396.611115,501.000000 395.222198,501.000000 393.312622,500.660370 
	C377.896942,492.219086 362.967224,484.180450 348.114166,476.002594 
	C317.218445,458.991974 286.360046,441.913452 255.497513,424.842590 
	C252.972183,423.445740 250.799850,422.407410 247.692215,424.124695 
	C201.173172,449.831299 154.577576,475.399353 108.000000,501.000000 
	C106.611107,501.000000 105.222221,501.000000 103.311447,500.664612 
	C92.746002,495.068481 89.778275,490.118713 91.278358,480.728516 
	C93.246353,468.409302 95.339897,456.110168 97.355560,443.798523 
	C103.837753,404.205353 110.279739,364.605499 116.837875,325.024933 
	C117.383446,321.732239 116.621666,319.467926 114.258804,317.057922 
	C80.326500,282.448730 46.458889,247.775803 12.688369,213.008774 
	C8.463143,208.658859 4.880428,203.684830 1.000001,199.000000 
	C1.000000,196.958328 1.000000,194.916672 1.287277,192.241699 
	C4.143993,184.434219 9.267099,180.868561 16.810783,179.834808 
	C32.468163,177.689163 48.073704,175.162689 63.694798,172.755417 
	C96.910889,167.636703 130.112350,162.420639 163.352875,157.466415 
	C166.977203,156.926239 168.798782,155.484741 170.299377,152.276596 
	C191.112335,107.780098 212.123352,63.376141 232.882675,18.854780 
	C236.357300,11.402932 239.493149,4.026123 248.000000,1.000000 
z"/>
<path fill="#FFFFFF" opacity="1.000000" stroke="none" 
	d="
M247.531342,1.000000 
	C239.493149,4.026123 236.357300,11.402932 232.882675,18.854780 
	C212.123352,63.376141 191.112335,107.780098 170.299377,152.276596 
	C168.798782,155.484741 166.977203,156.926239 163.352875,157.466415 
	C130.112350,162.420639 96.910889,167.636703 63.694798,172.755417 
	C48.073704,175.162689 32.468163,177.689163 16.810783,179.834808 
	C9.267099,180.868561 4.143993,184.434219 1.287277,191.804199 
	C1.000000,128.396973 1.000000,64.793930 1.000000,1.000000 
	C83.020798,1.000000 165.041733,1.000000 247.531342,1.000000 
z"/>
<path fill="#FFFFFF" opacity="1.000000" stroke="none" 
	d="
M501.000000,191.531342 
	C497.093414,182.290909 488.954529,180.149460 479.540222,178.863190 
	C455.158203,175.531876 430.874817,171.479446 406.549835,167.729553 
	C384.023376,164.256958 361.521454,160.602737 338.942688,157.511093 
	C334.440643,156.894653 332.781860,154.653671 331.161530,151.193130 
	C309.773041,105.513695 288.261414,59.891750 266.964325,14.169832 
	C264.046600,7.905824 260.457123,2.986781 253.142456,1.336321 
	C335.584229,1.000000 418.168427,1.000000 501.000000,1.000000 
	C501.000000,64.354012 501.000000,127.708351 501.000000,191.531342 
z"/>
<path fill="#FFFFFE" opacity="1.000000" stroke="none" 
	d="
M1.000001,199.468658 
	C4.880428,203.684830 8.463143,208.658859 12.688369,213.008774 
	C46.458889,247.775803 80.326500,282.448730 114.258804,317.057922 
	C116.621666,319.467926 117.383446,321.732239 116.837875,325.024933 
	C110.279739,364.605499 103.837753,404.205353 97.355560,443.798523 
	C95.339897,456.110168 93.246353,468.409302 91.278358,480.728516 
	C89.778275,490.118713 92.746002,495.068481 102.894791,500.664612 
	C69.036842,501.000000 35.073689,501.000000 1.000000,501.000000 
	C1.000000,400.645813 1.000000,300.291565 1.000001,199.468658 
z"/>
<path fill="#FFFFFE" opacity="1.000000" stroke="none" 
	d="
M398.468658,501.000000 
	C398.625671,500.563629 399.195129,499.984985 399.885498,499.712463 
	C408.550140,496.292236 412.253601,490.116699 410.741760,480.849640 
	C403.851013,438.612091 396.872803,396.388794 389.934845,354.158936 
	C388.368591,344.625305 386.983948,335.058716 385.216980,325.562866 
	C384.529358,321.867462 385.510223,319.403015 388.123047,316.738037 
	C423.002502,281.162506 457.784760,245.491531 492.518250,209.773361 
	C495.389252,206.820984 497.731201,203.354172 500.659485,200.063187 
	C501.000000,300.224579 501.000000,400.449188 501.000000,501.000000 
	C466.979797,501.000000 432.958557,501.000000 398.468658,501.000000 
z"/>
<path fill="#FFFFFE" opacity="1.000000" stroke="none" 
	d="
M108.468658,501.000000 
	C154.577576,475.399353 201.173172,449.831299 247.692215,424.124695 
	C250.799850,422.407410 252.972183,423.445740 255.497513,424.842590 
	C286.360046,441.913452 317.218445,458.991974 348.114166,476.002594 
	C362.967224,484.180450 377.896942,492.219086 392.895996,500.660370 
	C298.312439,501.000000 203.624878,501.000000 108.468658,501.000000 
z"/>
</svg>