<svg version="1.1" id="Layer_1" xmlns="http://www.w3.org/2000/svg" xmlns:xlink="http://www.w3.org/1999/xlink" x="0px" y="0px"
	 width="100%" viewBox="0 0 500 500" enable-background="new 0 0 500 500" xml:space="preserve">
<path fill="#FFFFFF" opacity="1.000000" stroke="none" 
	d="
M0.999999,455.000000 
	C1.000000,303.712646 1.000000,152.425308 1.000000,1.068977 
	C167.570007,1.068977 334.140076,1.068977 501.000000,1.068977 
	C501.000000,152.357285 501.000000,303.714752 500.655457,455.424469 
	C499.182465,453.390350 498.218353,450.909027 496.902100,448.631226 
	C421.130066,317.504730 345.328522,186.395218 269.531372,55.283226 
	C266.364502,49.805248 263.424561,44.181889 259.999969,38.870605 
	C255.551437,31.971273 247.021667,31.533569 242.568298,38.157097 
	C238.787430,43.780388 235.810211,49.944016 232.230469,56.077984 
	C163.828400,174.175507 95.685921,292.070953 27.502377,409.942627 
	C18.777824,425.025116 9.839368,439.983917 0.999999,455.000000 
z"/>
<path fill="#E0240E" opacity="1.000000" stroke="none" 
	d="
M0.999999,455.428467 
	C9.839368,439.983917 18.777824,425.025116 27.502377,409.942627 
	C95.685921,292.070953 163.828400,174.175507 232.616791,56.119854 
	C234.048111,56.727879 235.072540,57.371925 235.610901,58.298431 
	C246.676270,77.341675 257.671539,96.425644 268.711639,115.483612 
	C278.354462,132.129517 288.089844,148.721970 297.685883,165.394714 
	C310.083099,186.934402 322.307617,208.573654 334.748260,230.088058 
	C344.137177,246.324890 353.850250,262.374298 363.236572,278.612579 
	C376.428162,301.433868 389.420471,324.370239 402.555389,347.224396 
	C412.566742,364.643738 422.701233,381.992310 432.715240,399.410095 
	C438.675812,409.777466 444.476501,420.236603 450.408325,430.620667 
	C457.565491,443.149750 464.785370,455.643036 471.545471,468.331482 
	C469.448242,468.549927 467.783600,468.622650 466.118988,468.622711 
	C316.033081,468.629578 165.947128,468.610657 15.861273,468.701080 
	C9.323863,468.705017 4.244443,466.872314 1.000000,461.000000 
	C1.000000,459.285645 1.000000,457.571289 0.999999,455.428467 
z"/>
<path fill="#FFFFFF" opacity="1.000000" stroke="none" 
	d="
M1.000000,461.468658 
	C4.244443,466.872314 9.323863,468.705017 15.861273,468.701080 
	C165.947128,468.610657 316.033081,468.629578 466.118988,468.622711 
	C467.783600,468.622650 469.448242,468.549927 471.957336,468.584412 
	C476.734528,468.767029 480.667603,468.863068 484.599762,468.988586 
	C491.474945,469.208038 497.467896,467.634949 501.000000,461.000000 
	C501.000000,474.323273 501.000000,487.646515 501.000000,500.954041 
	C334.333313,500.954041 167.666656,500.954041 1.000000,500.954041 
	C1.000000,487.917816 1.000000,474.927551 1.000000,461.468658 
z"/>
<path fill="#911D10" opacity="1.000000" stroke="none" 
	d="
M501.000000,460.583344 
	C497.467896,467.634949 491.474945,469.208038 484.599762,468.988586 
	C480.667603,468.863068 476.734528,468.767029 472.389954,468.404785 
	C464.785370,455.643036 457.565491,443.149750 450.408325,430.620667 
	C444.476501,420.236603 438.675812,409.777466 432.715240,399.410095 
	C422.701233,381.992310 412.566742,364.643738 402.555389,347.224396 
	C389.420471,324.370239 376.428162,301.433868 363.236572,278.612579 
	C353.850250,262.374298 344.137177,246.324890 334.748260,230.088058 
	C322.307617,208.573654 310.083099,186.934402 297.685883,165.394714 
	C288.089844,148.721970 278.354462,132.129517 268.711639,115.483612 
	C257.671539,96.425644 246.676270,77.341675 235.610901,58.298431 
	C235.072540,57.371925 234.048111,56.727879 232.863724,55.910431 
	C235.810211,49.944016 238.787430,43.780388 242.568298,38.157097 
	C247.021667,31.533569 255.551437,31.971273 259.999969,38.870605 
	C263.424561,44.181889 266.364502,49.805248 269.531372,55.283226 
	C345.328522,186.395218 421.130066,317.504730 496.902100,448.631226 
	C498.218353,450.909027 499.182465,453.390350 500.655457,455.888367 
	C501.000000,457.388885 501.000000,458.777802 501.000000,460.583344 
z"/>
</svg>