<svg version="1.1" id="Layer_1" xmlns="http://www.w3.org/2000/svg" xmlns:xlink="http://www.w3.org/1999/xlink" x="0px" y="0px"
	 width="100%" viewBox="0 0 496 496" enable-background="new 0 0 496 496" xml:space="preserve">
<path fill="#000000" opacity="1.000000" stroke="none" 
	d="
M0.999995,454.444153 
	C21.280703,418.980042 41.576065,383.968567 61.838608,348.938110 
	C90.444267,299.483856 119.039833,250.023743 147.613480,200.550980 
	C178.103363,147.760452 208.562714,94.952263 239.035477,42.151817 
	C239.535065,41.286160 240.008987,40.404358 240.539856,39.558300 
	C245.978973,30.889639 255.850952,30.694134 261.092102,39.484287 
	C269.536255,53.646389 277.597443,68.036522 285.852142,82.311966 
	C326.207886,152.101791 366.566925,221.889679 406.939026,291.670044 
	C436.800629,343.283752 466.684021,394.884857 496.778870,446.745789 
	C497.000000,453.354401 497.000000,459.708801 496.626984,466.653320 
	C492.690399,468.815765 488.972015,469.310883 485.075073,469.310059 
	C329.159698,469.276733 173.244308,469.255524 17.329063,469.397858 
	C10.428718,469.404144 4.928320,467.822418 1.000000,462.000000 
	C1.000000,459.629425 1.000000,457.258881 0.999995,454.444153 
M343.077972,226.368378 
	C312.586426,173.482208 282.094910,120.596024 251.030823,66.716782 
	C177.920044,193.682541 105.445564,319.543243 32.449902,446.309082 
	C178.895294,446.309082 323.869476,446.309082 469.669373,446.309082 
	C427.330597,372.744232 385.389984,299.871185 343.077972,226.368378 
z"/>
</svg>