<svg version="1.1" id="Layer_1" xmlns="http://www.w3.org/2000/svg" xmlns:xlink="http://www.w3.org/1999/xlink" x="0px" y="0px"
	 width="100%" viewBox="0 0 500 500" enable-background="new 0 0 500 500" xml:space="preserve">
<path fill="#FFFFFF" opacity="1.000000" stroke="none" 
	d="
M260.000000,0.999999 
	C340.294281,1.000000 420.588531,1.000000 500.941406,1.000000 
	C500.941406,167.546555 500.941406,334.093140 500.941406,501.000000 
	C448.312988,501.000000 395.625153,501.000000 342.687805,500.682861 
	C388.254333,492.360107 410.760071,442.291504 385.423431,404.182434 
	C374.989929,388.489288 360.425598,378.760132 340.868347,376.677155 
	C332.343719,376.332642 324.171417,376.237885 315.649231,375.876190 
	C315.142456,373.805511 314.852722,372.002106 314.849182,370.198090 
	C314.813934,352.218475 314.863251,334.238678 314.807678,316.259186 
	C314.782471,308.111481 314.575684,299.964325 314.633453,291.513062 
	C316.928345,289.611725 318.984558,287.932434 321.162689,286.429810 
	C338.883911,274.204498 355.766602,260.941681 370.332367,245.022125 
	C386.060181,227.832565 398.916046,209.019531 401.249664,184.889236 
	C403.548187,161.121536 394.998322,141.725998 376.596161,126.977577 
	C358.850525,112.755341 337.785736,110.773201 315.750153,112.215683 
	C315.136963,111.641647 314.801117,111.298325 314.568604,110.501953 
	C314.436035,92.681366 314.200134,75.313828 314.002563,57.563820 
	C313.764709,55.715633 313.488556,54.249912 313.189209,52.378937 
	C310.838257,37.796318 304.142731,26.109856 292.982300,16.581104 
	C290.013702,14.228642 287.473389,11.555300 284.359344,10.230530 
	C276.375549,6.834056 268.136810,4.036819 260.000000,0.999999 
M437.093719,155.283325 
	C431.964050,134.339951 421.422424,116.611130 405.464508,102.114151 
	C401.701660,98.695824 397.618225,98.712570 394.463409,102.054504 
	C391.301147,105.404358 391.330261,108.879654 395.122620,112.523613 
	C408.766022,125.633110 418.059021,141.220551 422.805695,159.570023 
	C424.191620,164.927811 427.631073,167.362122 431.539886,166.499939 
	C436.050201,165.505096 438.152191,161.718430 437.093719,155.283325 
z"/>
<path fill="#FFFFFF" opacity="1.000000" stroke="none" 
	d="
M162.000000,501.000000 
	C108.359360,501.000000 54.718723,501.000000 1.039043,501.000000 
	C1.039043,334.440216 1.039043,167.880402 1.039043,1.000000 
	C81.020607,1.000000 161.041641,1.000000 241.345764,1.326104 
	C228.708817,4.585645 217.108032,10.017072 207.731354,19.623892 
	C180.276230,47.752922 152.678925,75.745316 125.428627,104.071480 
	C104.097275,126.245003 102.517174,161.626343 121.939720,185.290100 
	C127.117584,191.598648 134.156052,196.380066 140.052841,202.086914 
	C128.676956,213.167175 118.552277,224.808014 111.096313,238.517029 
	C102.371216,254.559570 97.717766,271.504089 101.562477,289.818237 
	C107.975105,320.364563 133.683853,341.899292 164.870361,343.028259 
	C173.140717,343.327698 181.429443,343.119598 189.747116,343.602356 
	C189.824295,351.500275 189.959808,358.941620 189.859406,366.379822 
	C189.815857,369.607330 189.286636,372.828217 188.512024,376.027679 
	C179.887192,376.296722 171.728363,376.590179 163.162079,376.830383 
	C161.101730,376.953186 159.413025,376.968903 157.801224,377.328949 
	C127.720985,384.047943 106.379539,411.424072 108.790611,442.705292 
	C110.497353,464.848389 120.935181,481.520020 139.961441,492.439301 
	C146.719452,496.317749 154.620667,498.204193 162.000000,501.000000 
M80.671638,300.796082 
	C80.053642,298.557007 79.560387,296.273956 78.790573,294.088348 
	C77.374557,290.068146 73.664993,287.944153 69.698822,289.199554 
	C65.751106,290.449188 63.478371,293.554535 64.348892,297.628387 
	C69.138786,320.044128 79.675079,339.256866 97.085686,354.404114 
	C100.083054,357.011810 103.508102,356.782013 106.520401,354.012512 
	C110.301056,350.536560 109.976044,346.523621 105.339561,341.994537 
	C93.694069,330.618805 85.348610,317.273285 80.671638,300.796082 
z"/>
<path fill="#986CCF" opacity="1.000000" stroke="none" 
	d="
M140.340286,201.862610 
	C134.156052,196.380066 127.117584,191.598648 121.939720,185.290100 
	C102.517174,161.626343 104.097275,126.245003 125.428627,104.071480 
	C152.678925,75.745316 180.276230,47.752922 207.731354,19.623892 
	C217.108032,10.017072 228.708817,4.585645 241.814423,1.326104 
	C247.688034,1.000000 253.376083,1.000000 259.532043,0.999999 
	C268.136810,4.036819 276.375549,6.834056 284.359344,10.230530 
	C287.473389,11.555300 290.013702,14.228642 292.768738,16.857471 
	C286.860413,22.730560 280.646912,27.698259 275.204437,33.401672 
	C260.283051,49.038399 253.581650,68.347816 252.144180,89.488243 
	C251.401413,100.411827 252.040710,111.429382 251.914398,122.682442 
	C249.821075,126.144157 247.341034,129.126328 246.031677,132.555511 
	C243.636581,138.828201 245.085022,142.749161 250.066467,146.598633 
	C250.782227,151.262955 251.504654,155.496475 252.161957,160.211548 
	C252.107254,195.135666 252.117691,229.578232 251.958435,264.270447 
	C251.215073,265.249786 250.641388,265.979462 249.769791,266.818542 
	C249.280869,267.018921 249.089890,267.109985 248.580017,267.152283 
	C247.510971,267.662903 246.760788,268.222260 245.653656,268.876587 
	C240.481476,271.169647 235.818665,273.830170 230.821732,275.476776 
	C217.220901,279.958649 203.478806,284.011719 189.799744,287.744324 
	C189.841583,269.332153 189.894119,251.410370 189.872940,233.488663 
	C189.871460,232.229416 189.325256,230.970825 189.107849,229.320343 
	C189.389664,222.644394 189.701263,216.360992 189.757736,210.075302 
	C189.785797,206.950882 187.639267,206.745926 185.216980,207.414139 
	C175.724136,210.032761 166.177765,209.917847 156.744324,207.400360 
	C151.179993,205.915390 145.802048,203.731934 140.340286,201.862610 
M174.460922,145.596405 
	C177.589798,142.927505 179.119934,139.800888 178.222137,135.492767 
	C176.008453,124.870216 167.602722,117.259132 157.596359,117.115181 
	C146.427612,116.954514 138.230621,123.648430 134.987747,135.071442 
	C125.570244,138.451874 122.921654,154.115051 131.491104,161.238693 
	C137.725708,166.421387 144.676117,168.529343 152.712234,168.004196 
	C164.750305,167.217545 175.607422,158.026306 174.460922,145.596405 
M203.224091,165.491272 
	C210.703415,170.621155 219.530090,167.742371 223.870193,163.407333 
	C229.675064,157.609222 230.695724,147.252869 226.542786,140.254776 
	C219.996933,129.224365 208.854095,127.979813 200.170807,137.309250 
	C193.410126,144.572998 194.526093,157.088043 203.224091,165.491272 
z"/>
<path fill="#986BD0" opacity="1.000000" stroke="none" 
	d="
M162.468658,501.000000 
	C154.620667,498.204193 146.719452,496.317749 139.961441,492.439301 
	C120.935181,481.520020 110.497353,464.848389 108.790611,442.705292 
	C106.379539,411.424072 127.720985,384.047943 157.801224,377.328949 
	C159.413025,376.968903 161.101730,376.953186 163.671753,376.867065 
	C168.043533,376.973816 171.503494,377.118500 174.951599,376.976288 
	C179.631821,376.783234 184.302963,376.370575 188.978012,376.052124 
	C189.286636,372.828217 189.815857,369.607330 189.859406,366.379822 
	C189.959808,358.941620 189.824295,351.500275 190.176163,343.524597 
	C205.469849,339.094543 220.415070,335.355347 235.252075,331.227234 
	C240.970123,329.636353 246.442184,327.161407 252.021912,325.552338 
	C252.012695,339.155609 251.885422,352.297211 252.032913,365.435730 
	C252.234161,383.359894 251.696487,401.361450 253.195068,419.185242 
	C255.273987,443.911499 266.953827,464.149261 286.307098,479.730469 
	C296.721039,488.114685 308.197266,494.582092 321.372559,497.747131 
	C324.022583,498.383728 326.462952,499.893036 329.000000,501.000000 
	C273.645782,501.000000 218.291550,501.000000 162.468658,501.000000 
z"/>
<path fill="#B28AE3" opacity="1.000000" stroke="none" 
	d="
M329.333313,501.000000 
	C326.462952,499.893036 324.022583,498.383728 321.372559,497.747131 
	C308.197266,494.582092 296.721039,488.114685 286.307098,479.730469 
	C266.953827,464.149261 255.273987,443.911499 253.195068,419.185242 
	C251.696487,401.361450 252.234161,383.359894 252.032913,365.435730 
	C251.885422,352.297211 252.012695,339.155609 252.009766,325.279205 
	C251.988113,324.361603 251.974197,324.180206 252.336807,323.987213 
	C262.504181,319.421997 272.482056,315.225433 282.036682,310.220734 
	C293.036743,304.458862 303.662781,297.982819 314.451263,291.816895 
	C314.575684,299.964325 314.782471,308.111481 314.807678,316.259186 
	C314.863251,334.238678 314.813934,352.218475 314.849182,370.198090 
	C314.852722,372.002106 315.142456,373.805511 315.739807,376.240112 
	C317.014740,377.238068 317.860931,377.946930 318.681854,377.918793 
	C326.197296,377.661041 333.708344,377.275299 341.220673,376.926910 
	C360.425598,378.760132 374.989929,388.489288 385.423431,404.182434 
	C410.760071,442.291504 388.254333,492.360107 342.219147,500.682861 
	C338.969391,501.000000 335.938812,501.000000 332.373260,500.818787 
	C331.558868,500.758362 331.279419,500.879150 331.000000,501.000000 
	C330.555542,501.000000 330.111115,501.000000 329.333313,501.000000 
z"/>
<path fill="#986BD0" opacity="1.000000" stroke="none" 
	d="
M331.250000,501.000000 
	C331.279419,500.879150 331.558868,500.758362 331.919159,500.818787 
	C332.000000,501.000000 331.500000,501.000000 331.250000,501.000000 
z"/>
<path fill="#FECE72" opacity="1.000000" stroke="none" 
	d="
M314.633453,291.513031 
	C303.662781,297.982819 293.036743,304.458862 282.036682,310.220734 
	C272.482056,315.225433 262.504181,319.421997 252.069733,323.790375 
	C248.615753,318.749451 244.986176,314.180878 243.163635,308.979156 
	C239.230179,297.752625 239.722260,286.482513 245.559647,275.761627 
	C246.797592,273.487976 247.815964,271.094788 248.928741,268.496887 
	C248.914276,267.891754 248.906586,267.546387 248.898895,267.201019 
	C249.089890,267.109985 249.280869,267.018921 250.112610,266.878754 
	C251.368408,266.594727 252.041306,266.452789 252.590179,266.111450 
	C269.976624,255.298019 287.442535,244.607513 304.661743,233.533493 
	C308.866272,230.829483 312.255859,226.858322 316.300110,223.241684 
	C317.340546,222.371414 318.127045,221.757385 318.857666,221.082870 
	C329.972778,210.821442 340.974518,200.406250 346.927795,186.075790 
	C351.388733,175.337631 347.689087,167.997253 336.151794,166.039337 
	C329.596710,164.926926 322.690216,165.885376 315.767731,165.538239 
	C315.406342,164.363297 315.057495,163.561646 315.055908,162.759308 
	C315.025848,147.435669 315.010223,132.111816 315.081970,116.788429 
	C315.088745,115.339645 315.697968,113.893677 316.027527,112.446396 
	C337.785736,110.773201 358.850525,112.755341 376.596161,126.977577 
	C394.998322,141.725998 403.548187,161.121536 401.249664,184.889236 
	C398.916046,209.019531 386.060181,227.832565 370.332367,245.022125 
	C355.766602,260.941681 338.883911,274.204498 321.162689,286.429810 
	C318.984558,287.932434 316.928345,289.611725 314.633453,291.513031 
z"/>
<path fill="#B28AE3" opacity="1.000000" stroke="none" 
	d="
M252.055588,122.404480 
	C252.040710,111.429382 251.401413,100.411827 252.144180,89.488243 
	C253.581650,68.347816 260.283051,49.038399 275.204437,33.401672 
	C280.646912,27.698259 286.860413,22.730560 292.935699,17.150848 
	C304.142731,26.109856 310.838257,37.796318 313.125275,52.779552 
	C313.377777,55.039040 313.670990,56.492664 313.964233,57.946285 
	C314.200134,75.313828 314.436035,92.681366 314.250671,110.673386 
	C313.566437,112.051544 313.076050,112.804604 313.073944,113.559013 
	C313.028229,130.052155 313.000214,146.545685 313.104004,163.038300 
	C313.112366,164.367584 314.098114,165.690750 314.692993,167.480011 
	C314.700348,183.314987 314.644379,198.686707 314.445312,214.220947 
	C314.396881,214.904312 314.491577,215.425186 314.645172,216.321686 
	C314.542969,218.457474 314.381866,220.217636 313.927307,222.151093 
	C311.856171,224.276413 310.325287,226.550949 308.262054,228.129837 
	C290.566528,241.671280 272.106537,254.039719 252.128128,264.020813 
	C252.117691,229.578232 252.107254,195.135666 252.489899,160.322281 
	C260.163086,165.852402 268.185974,169.616318 277.828430,167.912735 
	C289.417938,165.865173 298.894348,159.775421 297.022064,145.404831 
	C296.366699,140.375046 292.757782,136.112701 287.755554,134.582611 
	C284.646149,129.848999 282.512177,124.395180 278.547852,121.244064 
	C269.865784,114.342911 260.659882,116.453247 252.055588,122.404480 
z"/>
<path fill="#FCCF76" opacity="1.000000" stroke="none" 
	d="
M437.216553,155.667816 
	C438.152191,161.718430 436.050201,165.505096 431.539886,166.499939 
	C427.631073,167.362122 424.191620,164.927811 422.805695,159.570023 
	C418.059021,141.220551 408.766022,125.633110 395.122620,112.523613 
	C391.330261,108.879654 391.301147,105.404358 394.463409,102.054504 
	C397.618225,98.712570 401.701660,98.695824 405.464508,102.114151 
	C421.422424,116.611130 431.964050,134.339951 437.216553,155.667816 
z"/>
<path fill="#CEABC6" opacity="1.000000" stroke="none" 
	d="
M314.629669,167.016785 
	C314.098114,165.690750 313.112366,164.367584 313.104004,163.038300 
	C313.000214,146.545685 313.028229,130.052155 313.073944,113.559013 
	C313.076050,112.804604 313.566437,112.051544 314.147339,111.126434 
	C314.801117,111.298325 315.136963,111.641647 315.750122,112.215683 
	C315.697968,113.893677 315.088745,115.339645 315.081970,116.788429 
	C315.010223,132.111816 315.025848,147.435669 315.055908,162.759308 
	C315.057495,163.561646 315.406342,164.363297 315.613281,165.788757 
	C315.298584,166.613770 314.964142,166.815277 314.629669,167.016785 
z"/>
<path fill="#AF96CF" opacity="1.000000" stroke="none" 
	d="
M340.868347,376.677155 
	C333.708344,377.275299 326.197296,377.661041 318.681854,377.918793 
	C317.860931,377.946930 317.014740,377.238068 316.089661,376.507080 
	C324.171417,376.237885 332.343719,376.332642 340.868347,376.677155 
z"/>
<path fill="#CEABC6" opacity="1.000000" stroke="none" 
	d="
M314.002563,57.563820 
	C313.670990,56.492664 313.377777,55.039040 313.148438,53.184807 
	C313.488556,54.249912 313.764709,55.715633 314.002563,57.563820 
z"/>
<path fill="#FDB358" opacity="1.000000" stroke="none" 
	d="
M248.935516,268.756683 
	C247.815964,271.094788 246.797592,273.487976 245.559647,275.761627 
	C239.722260,286.482513 239.230179,297.752625 243.163635,308.979156 
	C244.986176,314.180878 248.615753,318.749451 251.693176,323.801941 
	C251.974197,324.180206 251.988113,324.361603 252.014175,324.816162 
	C246.442184,327.161407 240.970123,329.636353 235.252075,331.227234 
	C220.415070,335.355347 205.469849,339.094543 190.138779,343.066742 
	C181.429443,343.119598 173.140717,343.327698 164.870361,343.028259 
	C133.683853,341.899292 107.975105,320.364563 101.562477,289.818237 
	C97.717766,271.504089 102.371216,254.559570 111.096313,238.517029 
	C118.552277,224.808014 128.676956,213.167175 140.052841,202.086914 
	C145.802048,203.731934 151.179993,205.915390 156.744324,207.400360 
	C166.177765,209.917847 175.724136,210.032761 185.216980,207.414139 
	C187.639267,206.745926 189.785797,206.950882 189.757736,210.075302 
	C189.701263,216.360992 189.389664,222.644394 188.801697,229.498444 
	C181.945679,236.257141 174.844879,241.927780 169.173706,248.781372 
	C163.536804,255.593521 158.346466,263.154083 154.769547,271.191620 
	C150.716766,280.298370 155.129990,287.339020 164.865799,289.371338 
	C173.184326,291.107758 181.596237,291.061127 189.792679,288.234711 
	C203.478806,284.011719 217.220901,279.958649 230.821732,275.476776 
	C235.818665,273.830170 240.481476,271.169647 246.014557,268.947998 
	C247.466797,268.868469 248.201157,268.812561 248.935516,268.756683 
z"/>
<path fill="#FDCF76" opacity="1.000000" stroke="none" 
	d="
M80.764404,301.187225 
	C85.348610,317.273285 93.694069,330.618805 105.339561,341.994537 
	C109.976044,346.523621 110.301056,350.536560 106.520401,354.012512 
	C103.508102,356.782013 100.083054,357.011810 97.085686,354.404114 
	C79.675079,339.256866 69.138786,320.044128 64.348892,297.628387 
	C63.478371,293.554535 65.751106,290.449188 69.698822,289.199554 
	C73.664993,287.944153 77.374557,290.068146 78.790573,294.088348 
	C79.560387,296.273956 80.053642,298.557007 80.764404,301.187225 
z"/>
<path fill="#967DB9" opacity="1.000000" stroke="none" 
	d="
M188.512024,376.027679 
	C184.302963,376.370575 179.631821,376.783234 174.951599,376.976288 
	C171.503494,377.118500 168.043533,376.973816 164.079193,376.920319 
	C171.728363,376.590179 179.887192,376.296722 188.512024,376.027679 
z"/>
<path fill="#FEFDFD" opacity="1.000000" stroke="none" 
	d="
M189.799744,287.744324 
	C181.596237,291.061127 173.184326,291.107758 164.865799,289.371338 
	C155.129990,287.339020 150.716766,280.298370 154.769547,271.191620 
	C158.346466,263.154083 163.536804,255.593521 169.173706,248.781372 
	C174.844879,241.927780 181.945679,236.257141 188.726196,229.890045 
	C189.325256,230.970825 189.871460,232.229416 189.872940,233.488663 
	C189.894119,251.410370 189.841583,269.332153 189.799744,287.744324 
z"/>
<path fill="#F88EA1" opacity="1.000000" stroke="none" 
	d="
M287.900818,134.906799 
	C292.757782,136.112701 296.366699,140.375046 297.022064,145.404831 
	C298.894348,159.775421 289.417938,165.865173 277.828430,167.912735 
	C268.185974,169.616318 260.163086,165.852402 252.555023,159.840744 
	C251.504654,155.496475 250.782227,151.262955 250.475433,146.550705 
	C257.497437,145.894333 258.630829,144.969711 260.348389,138.356781 
	C261.612915,133.488129 265.314972,131.057037 269.055725,133.299484 
	C270.861206,134.381821 272.183136,136.999207 272.802094,139.182846 
	C274.143494,143.915436 276.710510,146.399811 281.006500,146.112854 
	C284.934143,145.850479 287.655914,142.833267 287.916504,138.388474 
	C287.984283,137.232193 287.909882,136.067581 287.900818,134.906799 
z"/>
<path fill="#F88EA1" opacity="1.000000" stroke="none" 
	d="
M173.916168,146.034073 
	C175.607422,158.026306 164.750305,167.217545 152.712234,168.004196 
	C144.676117,168.529343 137.725708,166.421387 131.491104,161.238693 
	C122.921654,154.115051 125.570244,138.451874 135.369736,135.394989 
	C135.132416,139.593063 135.536255,143.478729 139.507858,144.998566 
	C141.785233,145.870056 145.309082,145.724472 147.289368,144.477112 
	C149.123596,143.321762 149.917114,140.175629 150.687820,137.753113 
	C151.731781,134.471695 153.779266,132.042252 157.051819,132.885590 
	C159.300461,133.465073 162.100433,135.722061 162.791687,137.837708 
	C165.209213,145.236862 165.941284,146.122513 173.916168,146.034073 
z"/>
<path fill="#50569B" opacity="1.000000" stroke="none" 
	d="
M202.932800,165.254013 
	C194.526093,157.088043 193.410126,144.572998 200.170807,137.309250 
	C208.854095,127.979813 219.996933,129.224365 226.542786,140.254776 
	C230.695724,147.252869 229.675064,157.609222 223.870193,163.407333 
	C219.530090,167.742371 210.703415,170.621155 202.932800,165.254013 
z"/>
<path fill="#393E46" opacity="1.000000" stroke="none" 
	d="
M287.755554,134.582611 
	C287.909882,136.067581 287.984283,137.232193 287.916504,138.388474 
	C287.655914,142.833267 284.934143,145.850479 281.006500,146.112854 
	C276.710510,146.399811 274.143494,143.915436 272.802094,139.182846 
	C272.183136,136.999207 270.861206,134.381821 269.055725,133.299484 
	C265.314972,131.057037 261.612915,133.488129 260.348389,138.356781 
	C258.630829,144.969711 257.497437,145.894333 250.482117,146.119919 
	C245.085022,142.749161 243.636581,138.828201 246.031677,132.555511 
	C247.341034,129.126328 249.821075,126.144157 251.914398,122.682442 
	C260.659882,116.453247 269.865784,114.342911 278.547852,121.244064 
	C282.512177,124.395180 284.646149,129.848999 287.755554,134.582611 
z"/>
<path fill="#393D46" opacity="1.000000" stroke="none" 
	d="
M174.188538,145.815247 
	C165.941284,146.122513 165.209213,145.236862 162.791687,137.837708 
	C162.100433,135.722061 159.300461,133.465073 157.051819,132.885590 
	C153.779266,132.042252 151.731781,134.471695 150.687820,137.753113 
	C149.917114,140.175629 149.123596,143.321762 147.289368,144.477112 
	C145.309082,145.724472 141.785233,145.870056 139.507858,144.998566 
	C135.536255,143.478729 135.132416,139.593063 135.712921,135.368042 
	C138.230621,123.648430 146.427612,116.954514 157.596359,117.115181 
	C167.602722,117.259132 176.008453,124.870216 178.222137,135.492767 
	C179.119934,139.800888 177.589798,142.927505 174.188538,145.815247 
z"/>
<path fill="#CEABC6" opacity="1.000000" stroke="none" 
	d="
M251.958435,264.270447 
	C272.106537,254.039719 290.566528,241.671280 308.262054,228.129837 
	C310.325287,226.550949 311.856171,224.276413 314.159607,222.324188 
	C315.130280,222.705902 315.575226,223.087845 316.020172,223.469772 
	C312.255859,226.858322 308.866272,230.829483 304.661743,233.533493 
	C287.442535,244.607513 269.976624,255.298019 252.590179,266.111450 
	C252.041306,266.452789 251.368408,266.594727 250.410522,266.769409 
	C250.641388,265.979462 251.215073,265.249786 251.958435,264.270447 
z"/>
<path fill="#CEABC6" opacity="1.000000" stroke="none" 
	d="
M248.928741,268.496887 
	C248.201157,268.812561 247.466797,268.868469 246.371521,268.852966 
	C246.760788,268.222260 247.510971,267.662903 248.580017,267.152283 
	C248.906586,267.546387 248.914276,267.891754 248.928741,268.496887 
z"/>
<path fill="#FFFEFD" opacity="1.000000" stroke="none" 
	d="
M316.300110,223.241684 
	C315.575226,223.087845 315.130280,222.705902 314.453064,222.150879 
	C314.381866,220.217636 314.542969,218.457474 314.750885,216.013153 
	C314.727936,214.905457 314.658173,214.481949 314.588409,214.058441 
	C314.644379,198.686707 314.700348,183.314987 314.692993,167.480011 
	C314.964142,166.815277 315.298584,166.613770 315.787476,166.161743 
	C322.690216,165.885376 329.596710,164.926926 336.151794,166.039337 
	C347.689087,167.997253 351.388733,175.337631 346.927795,186.075790 
	C340.974518,200.406250 329.972778,210.821442 318.857666,221.082870 
	C318.127045,221.757385 317.340546,222.371414 316.300110,223.241684 
z"/>
<path fill="#CEABC6" opacity="1.000000" stroke="none" 
	d="
M314.445312,214.220947 
	C314.658173,214.481949 314.727936,214.905457 314.691986,215.637512 
	C314.491577,215.425186 314.396881,214.904312 314.445312,214.220947 
z"/>
</svg>