<svg version="1.1" id="Layer_1" xmlns="http://www.w3.org/2000/svg" xmlns:xlink="http://www.w3.org/1999/xlink" x="0px" y="0px"
	 width="100%" viewBox="0 0 500 500" enable-background="new 0 0 500 500" xml:space="preserve">
<path fill="#FFFFFF" opacity="1.000000" stroke="none" 
	d="
M1.000001,161.000000 
	C1.000000,107.694008 1.000000,54.388012 1.000000,1.041008 
	C167.553879,1.041008 334.107788,1.041008 501.000000,1.041008 
	C501.000000,64.354362 501.000000,127.709335 500.726440,191.229248 
	C499.919159,186.282639 499.785339,181.091827 498.790039,176.071808 
	C488.646729,124.911880 460.907684,86.996284 413.553558,64.280418 
	C393.508270,54.664661 372.204498,49.905037 349.428101,50.156895 
	C338.918488,51.144142 328.651031,51.287422 318.818634,53.428513 
	C247.975784,68.855194 199.484589,129.975662 199.241318,201.721909 
	C199.130035,234.544220 199.088043,267.368164 199.315598,300.189270 
	C199.374222,308.645020 199.887161,317.214386 201.361786,325.523834 
	C208.680847,366.766724 229.259476,400.005768 263.393951,424.330627 
	C288.877563,442.490692 317.583710,451.550232 349.426025,451.856873 
	C358.964630,451.079224 368.179718,450.970154 377.099701,449.292267 
	C412.142883,442.700623 441.550537,426.008179 464.734924,398.734711 
	C480.751282,379.893494 491.571625,358.403473 496.982727,334.263672 
	C498.559540,327.229095 499.673737,320.090759 501.000000,313.000000 
	C501.000000,375.639801 501.000000,438.279572 501.000000,500.959686 
	C334.431671,500.959686 167.863342,500.959686 1.000000,500.959686 
	C1.000000,391.645416 1.000000,282.290558 1.247720,172.760101 
	C3.581946,187.936798 10.890617,200.158127 23.707281,208.877975 
	C36.741596,217.745926 51.146835,218.837143 66.854149,215.074829 
	C66.854149,217.856232 66.854179,219.973175 66.854149,222.090118 
	C66.853424,281.076141 66.835823,340.062195 66.859161,399.048218 
	C66.870590,427.944122 83.272217,447.366028 111.774498,451.595978 
	C121.104767,452.980682 130.321289,451.591064 138.809906,446.136902 
	C140.621994,445.407959 142.201019,444.825867 143.563400,443.918518 
	C159.366119,433.393860 166.928696,418.413696 166.939041,399.621735 
	C166.992813,301.994659 166.982178,204.367599 166.926178,106.740570 
	C166.923248,101.607895 166.793381,96.384514 165.865982,91.361526 
	C163.756912,79.938477 158.652084,70.044586 149.126068,62.415581 
	C129.628281,45.274635 100.253273,46.028786 81.925110,64.396324 
	C59.710052,86.659103 37.649643,109.089088 16.066925,131.960648 
	C10.862388,137.475983 7.590013,144.897675 3.856606,151.678070 
	C2.322189,154.464813 1.918197,157.873962 1.000001,161.000000 
z"/>
<path fill="#B28AE3" opacity="1.000000" stroke="none" 
	d="
M349.871643,50.237789 
	C372.204498,49.905037 393.508270,54.664661 413.553558,64.280418 
	C460.907684,86.996284 488.646729,124.911880 498.790039,176.071808 
	C499.785339,181.091827 499.919159,186.282639 500.726440,191.697083 
	C501.000000,232.020889 501.000000,272.041779 501.000000,312.531342 
	C499.673737,320.090759 498.559540,327.229095 496.982727,334.263672 
	C491.571625,358.403473 480.751282,379.893494 464.734924,398.734711 
	C441.550537,426.008179 412.142883,442.700623 377.099701,449.292267 
	C368.179718,450.970154 358.964630,451.079224 349.388519,451.527893 
	C345.394684,446.365295 341.359283,441.884338 338.493286,436.750549 
	C326.001404,414.374115 325.845795,391.576019 337.665253,368.920380 
	C340.768616,362.971863 345.167664,357.699249 349.417114,352.065308 
	C378.198090,351.762604 400.810760,329.137360 400.883606,300.767639 
	C400.968719,267.621185 400.966309,234.474030 400.819489,201.327972 
	C400.799866,196.896072 400.067444,192.386322 399.058960,188.053696 
	C394.416016,168.106552 374.442627,149.533218 348.822723,149.608093 
	C344.119446,141.797150 339.565765,134.281174 335.382935,126.851685 
	C347.623383,132.333908 358.800018,131.235413 368.772430,122.749451 
	C370.957123,120.890442 373.044891,117.605911 373.089874,114.942635 
	C373.128662,112.647774 370.557495,108.864578 368.484100,108.341789 
	C365.858948,107.679871 361.977295,108.874916 359.675720,110.630272 
	C352.184113,116.344009 345.608673,116.633629 338.716583,110.184967 
	C335.778992,107.436386 332.717621,106.945595 329.088715,107.300903 
	C329.365601,101.838768 329.515228,96.878494 329.979401,91.947823 
	C331.515137,75.634644 338.468323,61.865231 349.871643,50.237789 
M406.954285,122.351616 
	C406.013184,123.510048 405.128326,124.719994 404.121857,125.818542 
	C397.714905,132.811661 399.071991,146.893112 406.402496,153.213013 
	C414.430206,160.134033 423.202850,161.687241 433.142303,161.098801 
	C440.944427,160.636917 447.545715,158.048447 453.041321,152.418350 
	C463.763611,141.433670 459.230164,124.420486 445.780182,118.310913 
	C437.443115,114.523857 428.927185,114.161629 419.931488,114.124458 
	C419.894318,110.487961 420.068970,106.833450 419.761780,103.219902 
	C419.439453,99.427521 417.500488,96.585983 413.426117,96.072701 
	C409.618011,95.592957 405.821411,96.810310 405.190155,100.719231 
	C404.053131,107.759651 402.369629,115.137794 406.954285,122.351616 
z"/>
<path fill="#986CD0" opacity="1.000000" stroke="none" 
	d="
M138.476196,446.132629 
	C130.321289,451.591064 121.104767,452.980682 111.774498,451.595978 
	C83.272217,447.366028 66.870590,427.944122 66.859161,399.048218 
	C66.835823,340.062195 66.853424,281.076141 66.854149,222.090118 
	C66.854179,219.973175 66.854149,217.856232 66.854149,215.074829 
	C51.146835,218.837143 36.741596,217.745926 23.707281,208.877975 
	C10.890617,200.158127 3.581946,187.936798 1.247720,172.292252 
	C1.000000,168.638718 1.000000,165.277420 1.000001,161.458069 
	C1.918197,157.873962 2.322189,154.464813 3.856606,151.678070 
	C7.590013,144.897675 10.862388,137.475983 16.066925,131.960648 
	C37.649643,109.089088 59.710052,86.659103 81.925110,64.396324 
	C100.253273,46.028786 129.628281,45.274635 148.930084,62.729485 
	C144.443420,68.225136 139.471649,72.771507 135.567780,78.100227 
	C124.018013,93.865448 116.982414,111.358719 116.982964,131.240631 
	C116.985344,216.736008 117.091629,302.231659 116.884880,387.726501 
	C116.845161,404.152069 121.036781,419.222992 128.852890,433.364746 
	C131.405334,437.982910 135.232178,441.896698 138.476196,446.132629 
z"/>
<path fill="#986CD0" opacity="1.000000" stroke="none" 
	d="
M349.428101,50.156895 
	C338.468323,61.865231 331.515137,75.634644 329.979401,91.947823 
	C329.515228,96.878494 329.365601,101.838768 328.893463,107.521881 
	C323.733704,113.482750 323.826294,117.689774 329.172974,122.374496 
	C330.999451,123.974884 333.059021,125.309273 335.012085,126.765182 
	C339.565765,134.281174 344.119446,141.797150 348.398560,149.674713 
	C321.753448,151.031189 300.068146,172.816055 299.910828,199.021744 
	C299.700104,234.121689 299.859070,269.223907 299.900818,304.325134 
	C299.903381,306.472076 300.066193,308.660461 300.497955,310.758881 
	C305.394775,334.560211 323.927979,350.340973 348.971710,352.116241 
	C345.167664,357.699249 340.768616,362.971863 337.665253,368.920380 
	C325.845795,391.576019 326.001404,414.374115 338.493286,436.750549 
	C341.359283,441.884338 345.394684,446.365295 348.929382,451.475647 
	C317.583710,451.550232 288.877563,442.490692 263.393951,424.330627 
	C229.259476,400.005768 208.680847,366.766724 201.361786,325.523834 
	C199.887161,317.214386 199.374222,308.645020 199.315598,300.189270 
	C199.088043,267.368164 199.130035,234.544220 199.241318,201.721909 
	C199.484589,129.975662 247.975784,68.855194 318.818634,53.428513 
	C328.651031,51.287422 338.918488,51.144142 349.428101,50.156895 
M277.324158,115.011642 
	C268.043640,114.925140 258.837067,114.153419 250.331467,119.744904 
	C238.152084,127.751511 236.115250,142.791260 246.464767,152.911545 
	C253.047913,159.348877 261.012390,161.397812 270.144653,161.255814 
	C277.670593,161.138779 284.211975,159.186386 290.170441,154.845703 
	C297.784027,149.299286 300.827240,139.782623 297.373871,130.991241 
	C296.071594,127.676010 293.693481,124.783401 291.964142,120.970703 
	C292.652374,115.190826 293.697754,109.424759 293.921844,103.626938 
	C294.120300,98.493980 291.058990,95.851837 286.273865,95.967636 
	C281.660248,96.079285 279.289185,98.556458 278.986847,103.571556 
	C278.759033,107.350197 278.523956,111.128387 277.324158,115.011642 
z"/>
<path fill="#B28AE3" opacity="1.000000" stroke="none" 
	d="
M138.809906,446.136902 
	C135.232178,441.896698 131.405334,437.982910 128.852890,433.364746 
	C121.036781,419.222992 116.845161,404.152069 116.884880,387.726501 
	C117.091629,302.231659 116.985344,216.736008 116.982964,131.240631 
	C116.982414,111.358719 124.018013,93.865448 135.567780,78.100227 
	C139.471649,72.771507 144.443420,68.225136 149.123123,63.007317 
	C158.652084,70.044586 163.756912,79.938477 165.865982,91.361526 
	C166.793381,96.384514 166.923248,101.607895 166.926178,106.740570 
	C166.982178,204.367599 166.992813,301.994659 166.939041,399.621735 
	C166.928696,418.413696 159.366119,433.393860 143.563400,443.918518 
	C142.201019,444.825867 140.621994,445.407959 138.809906,446.136902 
z"/>
<path fill="#FFFEFF" opacity="1.000000" stroke="none" 
	d="
M349.417114,352.065308 
	C323.927979,350.340973 305.394775,334.560211 300.497955,310.758881 
	C300.066193,308.660461 299.903381,306.472076 299.900818,304.325134 
	C299.859070,269.223907 299.700104,234.121689 299.910828,199.021744 
	C300.068146,172.816055 321.753448,151.031189 348.548157,149.969650 
	C374.442627,149.533218 394.416016,168.106552 399.058960,188.053696 
	C400.067444,192.386322 400.799866,196.896072 400.819489,201.327972 
	C400.966309,234.474030 400.968719,267.621185 400.883606,300.767639 
	C400.810760,329.137360 378.198090,351.762604 349.417114,352.065308 
z"/>
<path fill="#FC8FA1" opacity="1.000000" stroke="none" 
	d="
M420.127441,115.045067 
	C428.927185,114.161629 437.443115,114.523857 445.780182,118.310913 
	C459.230164,124.420486 463.763611,141.433670 453.041321,152.418350 
	C447.545715,158.048447 440.944427,160.636917 433.142303,161.098801 
	C423.202850,161.687241 414.430206,160.134033 406.402496,153.213013 
	C399.071991,146.893112 397.714905,132.811661 404.121857,125.818542 
	C405.128326,124.719994 406.013184,123.510048 407.470886,122.128220 
	C414.919617,124.153961 417.957733,122.437263 420.127441,115.045067 
z"/>
<path fill="#363D48" opacity="1.000000" stroke="none" 
	d="
M335.382935,126.851692 
	C333.059021,125.309273 330.999451,123.974884 329.172974,122.374496 
	C323.826294,117.689774 323.733704,113.482750 328.910309,108.037308 
	C332.717621,106.945595 335.778992,107.436386 338.716583,110.184967 
	C345.608673,116.633629 352.184113,116.344009 359.675720,110.630272 
	C361.977295,108.874916 365.858948,107.679871 368.484100,108.341789 
	C370.557495,108.864578 373.128662,112.647774 373.089874,114.942635 
	C373.044891,117.605911 370.957123,120.890442 368.772430,122.749451 
	C358.800018,131.235413 347.623383,132.333908 335.382935,126.851692 
z"/>
<path fill="#3A3E49" opacity="1.000000" stroke="none" 
	d="
M420.029480,114.584763 
	C417.957733,122.437263 414.919617,124.153961 407.627808,121.799667 
	C402.369629,115.137794 404.053131,107.759651 405.190155,100.719231 
	C405.821411,96.810310 409.618011,95.592957 413.426117,96.072701 
	C417.500488,96.585983 419.439453,99.427521 419.761780,103.219902 
	C420.068970,106.833450 419.894318,110.487961 420.029480,114.584763 
z"/>
<path fill="#FC8FA1" opacity="1.000000" stroke="none" 
	d="
M291.805786,121.698135 
	C293.693481,124.783401 296.071594,127.676010 297.373871,130.991241 
	C300.827240,139.782623 297.784027,149.299286 290.170441,154.845703 
	C284.211975,159.186386 277.670593,161.138779 270.144653,161.255814 
	C261.012390,161.397812 253.047913,159.348877 246.464767,152.911545 
	C236.115250,142.791260 238.152084,127.751511 250.331467,119.744904 
	C258.837067,114.153419 268.043640,114.925140 278.006226,115.240143 
	C280.806030,122.653717 283.613342,123.986908 291.805786,121.698135 
z"/>
<path fill="#373C47" opacity="1.000000" stroke="none" 
	d="
M291.884949,121.334419 
	C283.613342,123.986908 280.806030,122.653717 278.490234,115.187714 
	C278.523956,111.128387 278.759033,107.350197 278.986847,103.571556 
	C279.289185,98.556458 281.660248,96.079285 286.273865,95.967636 
	C291.058990,95.851837 294.120300,98.493980 293.921844,103.626938 
	C293.697754,109.424759 292.652374,115.190826 291.884949,121.334419 
z"/>
</svg>