<svg version="1.1" id="Layer_1" xmlns="http://www.w3.org/2000/svg" xmlns:xlink="http://www.w3.org/1999/xlink" x="0px" y="0px"
	 width="100%" viewBox="0 0 500 500" enable-background="new 0 0 500 500" xml:space="preserve">
<path fill="#FFFFFF" opacity="1.000000" stroke="none" 
	d="
M311.000000,1.000001 
	C374.302307,1.000000 437.604584,1.000000 500.953430,1.000000 
	C500.953430,167.553955 500.953430,334.107910 500.953430,501.000000 
	C433.646149,501.000000 366.291748,501.000000 298.662415,500.667480 
	C330.591583,494.053650 349.761444,467.237122 344.943390,435.208557 
	C341.420776,411.791718 320.500763,391.967621 296.727783,389.605713 
	C276.602509,389.323120 256.817352,389.275879 236.686310,389.181335 
	C235.875000,389.136566 235.409576,389.139130 234.913467,388.772156 
	C235.503510,387.242706 235.988251,385.981689 236.764557,384.937408 
	C266.804169,344.529236 296.870422,304.140869 327.246979,263.924500 
	C332.494537,271.630157 337.971191,278.610138 345.741638,283.535553 
	C351.242676,287.022461 356.660217,287.278351 361.985596,283.592926 
	C379.857330,271.224762 387.612305,253.852325 386.885132,232.417053 
	C386.767944,228.962387 386.346283,225.518036 386.526184,222.086426 
	C404.413239,223.241776 418.824554,217.247818 430.398132,204.116699 
	C437.666992,195.869644 437.680817,189.164505 430.383209,180.798019 
	C419.028992,167.780685 404.747711,161.773148 387.683960,161.919281 
	C400.004761,141.240479 406.063477,119.399284 403.917908,95.601906 
	C402.918793,84.520355 400.487732,73.770866 395.194336,63.450237 
	C380.753723,32.389744 357.115387,12.780806 324.405518,4.077573 
	C319.977539,2.899399 315.470459,2.018533 311.000000,1.000001 
z"/>
<path fill="#FFFFFF" opacity="1.000000" stroke="none" 
	d="
M113.000000,501.000000 
	C75.684860,501.000000 38.369717,501.000000 1.027287,501.000000 
	C1.027287,334.432739 1.027287,167.865479 1.027287,1.000000 
	C96.020683,1.000000 191.041687,1.000000 286.311584,1.321732 
	C260.405457,5.487978 238.492447,17.366400 220.346588,36.469280 
	C215.970398,41.076271 212.503998,45.973873 212.627838,52.869354 
	C209.761856,53.092037 207.332504,53.180687 204.450623,53.191170 
	C151.678360,55.082325 111.494995,78.266525 84.793030,123.215187 
	C68.810410,150.119476 78.493996,183.604431 105.120125,199.125046 
	C131.467972,214.483444 164.461212,206.080002 180.988937,179.634445 
	C186.829483,170.289154 194.943665,165.167892 206.394302,164.794128 
	C209.906570,165.450256 213.176819,165.545258 216.049332,166.662735 
	C234.215485,173.729813 239.751770,194.777298 227.674606,210.884811 
	C178.455841,276.528687 129.231140,342.168274 79.869003,407.704285 
	C72.262444,417.803192 66.907700,428.654572 66.158005,441.345642 
	C64.539520,468.743652 81.867218,492.191315 108.539223,499.150970 
	C110.081947,499.553467 111.515594,500.373993 113.000000,501.000000 
z"/>
<path fill="#56D9FC" opacity="1.000000" stroke="none" 
	d="
M113.468658,501.000000 
	C111.515594,500.373993 110.081947,499.553467 108.539223,499.150970 
	C81.867218,492.191315 64.539520,468.743652 66.158005,441.345642 
	C66.907700,428.654572 72.262444,417.803192 79.869003,407.704285 
	C129.231140,342.168274 178.455841,276.528687 227.674606,210.884811 
	C239.751770,194.777298 234.215485,173.729813 216.049332,166.662735 
	C213.176819,165.545258 209.906570,165.450256 206.394775,164.450607 
	C204.664139,162.199326 203.280701,160.430344 202.069977,158.550156 
	C199.523865,154.596191 197.068375,150.583847 194.992416,146.449631 
	C205.541672,144.777603 215.738800,143.575851 225.777267,141.577148 
	C230.247330,140.687164 232.327057,136.145401 231.269257,132.362625 
	C230.081253,128.114349 226.267029,126.371552 221.398300,127.071129 
	C210.608994,128.621429 199.771545,129.836548 188.585541,131.093735 
	C187.498001,130.176254 186.284225,129.432602 186.137680,128.517960 
	C184.988174,121.344437 183.136307,114.125465 183.236786,106.944786 
	C183.409531,94.598206 186.218521,82.535454 192.300888,71.666016 
	C195.915817,65.205963 200.664291,59.380241 204.903137,53.269329 
	C207.332504,53.180687 209.761856,53.092037 213.058533,52.957729 
	C238.996246,54.949158 262.375580,61.953297 283.270966,76.368896 
	C285.963379,78.226395 288.930450,79.685829 291.828552,81.656929 
	C292.307526,82.493210 292.651215,83.101425 293.160217,83.496819 
	C307.793213,94.863602 319.313507,108.841255 328.381775,124.959389 
	C336.873779,140.053131 342.058136,156.278656 344.754761,173.260803 
	C346.236938,182.594879 347.087830,192.245880 336.224213,197.479156 
	C320.329102,215.862854 316.668945,236.418106 325.271088,259.153748 
	C325.847534,260.677307 326.380157,262.217468 326.933167,263.749908 
	C296.870422,304.140869 266.804169,344.529236 236.764557,384.937408 
	C235.988251,385.981689 235.503510,387.242706 234.715637,389.027466 
	C233.017670,391.136322 231.261871,392.450470 229.991959,394.131622 
	C220.591507,406.576263 211.380341,419.164459 201.932129,431.572327 
	C187.391647,450.667633 188.682770,473.782257 205.206192,489.743378 
	C211.384216,495.711151 219.113266,498.455322 227.000000,501.000000 
	C189.312439,501.000000 151.624878,501.000000 113.468658,501.000000 
M271.531830,136.368942 
	C271.531830,132.436584 271.531830,128.504227 271.531830,124.040260 
	C274.494507,124.040260 276.730743,124.464401 278.721863,123.946381 
	C282.187866,123.044617 285.883850,122.128029 288.782928,120.176842 
	C292.290192,117.816330 293.222565,113.933472 290.753479,110.054642 
	C288.311676,106.218689 284.923950,105.846725 280.731873,107.339615 
	C278.056213,108.292458 274.991699,108.665314 272.147461,108.501366 
	C268.697937,108.302528 265.316376,107.132980 261.870392,106.617592 
	C255.834641,105.714859 250.413788,111.541168 253.482773,116.433296 
	C256.958282,121.973427 256.030396,127.488342 256.300018,133.130508 
	C256.589691,139.191498 258.019775,141.011398 263.986084,143.470276 
	C255.266769,156.102936 257.027161,168.409393 269.086548,176.178528 
	C280.270111,183.383438 292.358093,184.015518 304.234467,178.412552 
	C317.341736,172.228851 323.002594,158.834991 315.129120,146.762817 
	C310.906952,140.289047 304.605042,136.908035 297.306396,135.073181 
	C288.397125,132.833420 279.836578,134.447342 271.531830,136.368942 
z"/>
<path fill="#1EBBEA" opacity="1.000000" stroke="none" 
	d="
M227.468658,501.000000 
	C219.113266,498.455322 211.384216,495.711151 205.206192,489.743378 
	C188.682770,473.782257 187.391647,450.667633 201.932129,431.572327 
	C211.380341,419.164459 220.591507,406.576263 229.991959,394.131622 
	C231.261871,392.450470 233.017670,391.136322 234.746307,389.396973 
	C235.409576,389.139130 235.875000,389.136566 237.011612,389.424377 
	C257.477844,389.756805 277.272858,389.798920 297.067902,389.841034 
	C320.500763,391.967621 341.420776,411.791718 344.943390,435.208557 
	C349.761444,467.237122 330.591583,494.053650 298.193726,500.667480 
	C274.645782,501.000000 251.291550,501.000000 227.468658,501.000000 
z"/>
<path fill="#FD9072" opacity="1.000000" stroke="none" 
	d="
M291.770294,81.329666 
	C288.930450,79.685829 285.963379,78.226395 283.270966,76.368896 
	C262.375580,61.953297 238.996246,54.949158 213.495148,52.823692 
	C212.503998,45.973873 215.970398,41.076271 220.346588,36.469280 
	C238.492447,17.366400 260.405457,5.487978 286.780243,1.321732 
	C294.687592,1.000000 302.375153,1.000000 310.531372,1.000001 
	C315.470459,2.018533 319.977539,2.899399 324.405518,4.077573 
	C357.115387,12.780806 380.753723,32.389744 394.937988,63.737793 
	C393.187805,64.212753 391.519653,64.329002 390.067719,63.823830 
	C378.397736,59.763500 366.224213,57.631992 354.076355,58.354008 
	C343.329132,58.992779 332.533386,61.415730 322.117889,64.332336 
	C310.806335,67.499855 300.428833,73.063141 291.770294,81.329666 
z"/>
<path fill="#FDB39D" opacity="1.000000" stroke="none" 
	d="
M291.828552,81.656937 
	C300.428833,73.063141 310.806335,67.499855 322.117889,64.332336 
	C332.533386,61.415730 343.329132,58.992779 354.076355,58.354008 
	C366.224213,57.631992 378.397736,59.763500 390.067719,63.823830 
	C391.519653,64.329002 393.187805,64.212753 395.012085,64.096893 
	C400.487732,73.770866 402.918793,84.520355 403.917908,95.601906 
	C406.063477,119.399284 400.004761,141.240479 387.437805,162.070740 
	C379.181641,171.827988 371.263885,181.060379 363.227386,190.431198 
	C363.870239,191.105316 364.453461,191.936646 365.231415,192.498199 
	C371.811340,197.247772 376.835297,203.264801 380.328552,210.594696 
	C382.167877,214.454193 384.148499,218.246368 386.065338,222.068924 
	C386.346283,225.518036 386.767944,228.962387 386.885132,232.417053 
	C387.612305,253.852325 379.857330,271.224762 361.985596,283.592926 
	C356.660217,287.278351 351.242676,287.022461 345.741638,283.535553 
	C337.971191,278.610138 332.494537,271.630157 327.246979,263.924500 
	C326.380157,262.217468 325.847534,260.677307 325.271088,259.153748 
	C316.668945,236.418106 320.329102,215.862854 336.224213,197.479156 
	C347.087830,192.245880 346.236938,182.594879 344.754761,173.260803 
	C342.058136,156.278656 336.873779,140.053131 328.381775,124.959389 
	C319.313507,108.841255 307.793213,94.863602 293.160217,83.496819 
	C292.651215,83.101425 292.307526,82.493210 291.828552,81.656937 
z"/>
<path fill="#FD9073" opacity="1.000000" stroke="none" 
	d="
M386.526184,222.086426 
	C384.148499,218.246368 382.167877,214.454193 380.328552,210.594696 
	C376.835297,203.264801 371.811340,197.247772 365.231415,192.498199 
	C364.453461,191.936646 363.870239,191.105316 363.227386,190.431198 
	C371.263885,181.060379 379.181641,171.827988 387.345581,162.444153 
	C404.747711,161.773148 419.028992,167.780685 430.383209,180.798019 
	C437.680817,189.164505 437.666992,195.869644 430.398132,204.116699 
	C418.824554,217.247818 404.413239,223.241776 386.526184,222.086426 
z"/>
<path fill="#56D9FC" opacity="1.000000" stroke="none" 
	d="
M296.727783,389.605713 
	C277.272858,389.798920 257.477844,389.756805 237.357513,389.471680 
	C256.817352,389.275879 276.602509,389.323120 296.727783,389.605713 
z"/>
<path fill="#21BAE7" opacity="1.000000" stroke="none" 
	d="
M194.575699,146.595474 
	C197.068375,150.583847 199.523865,154.596191 202.069977,158.550156 
	C203.280701,160.430344 204.664139,162.199326 205.968872,164.362213 
	C194.943665,165.167892 186.829483,170.289154 180.988937,179.634445 
	C164.461212,206.080002 131.467972,214.483444 105.120125,199.125046 
	C78.493996,183.604431 68.810410,150.119476 84.793030,123.215187 
	C111.494995,78.266525 151.678360,55.082325 204.450623,53.191170 
	C200.664291,59.380241 195.915817,65.205963 192.300888,71.666016 
	C186.218521,82.535454 183.409531,94.598206 183.236786,106.944786 
	C183.136307,114.125465 184.988174,121.344437 186.137680,128.517960 
	C186.284225,129.432602 187.498001,130.176254 188.364380,131.332184 
	C184.571640,132.860580 182.908844,135.713699 183.259552,139.599411 
	C183.598984,143.360168 186.078049,145.454102 189.670639,146.158951 
	C191.272537,146.473221 192.938705,146.460037 194.575699,146.595474 
M127.912216,134.231049 
	C122.700996,135.118225 117.188622,135.215103 112.342964,137.061600 
	C103.045624,140.604523 96.774689,147.234726 96.309166,157.841400 
	C95.927315,166.541473 102.291672,175.041473 111.860252,179.014023 
	C121.758514,183.123428 131.688004,183.046188 141.376923,178.582687 
	C149.529709,174.826874 155.406906,168.890091 155.947906,159.379059 
	C156.486786,149.905823 151.609802,143.329773 143.873993,137.892044 
	C143.935959,132.955063 144.138992,128.014633 144.018448,123.082115 
	C143.907822,118.555588 140.741043,115.354927 136.719345,115.274361 
	C132.506683,115.189972 129.276627,118.517731 129.050766,123.322830 
	C128.879898,126.957649 128.857758,130.599472 127.912216,134.231049 
M152.900192,95.503868 
	C140.699371,90.497108 131.497192,91.816048 125.095848,99.489037 
	C122.178764,102.985611 122.126709,107.359268 124.967384,110.283386 
	C128.005356,113.410599 132.158005,113.817085 135.612488,110.418579 
	C138.718292,107.363129 141.747910,107.616547 145.148972,108.981171 
	C147.300217,109.844345 149.300598,111.077934 151.435349,111.989075 
	C155.417557,113.688759 158.764542,112.521210 160.871109,108.943344 
	C162.959106,105.396996 162.431686,101.792290 159.159607,99.092682 
	C157.521149,97.740883 155.454987,96.907455 152.900192,95.503868 
z"/>
<path fill="#F991A2" opacity="1.000000" stroke="none" 
	d="
M271.388763,137.370972 
	C279.836578,134.447342 288.397125,132.833420 297.306396,135.073181 
	C304.605042,136.908035 310.906952,140.289047 315.129120,146.762817 
	C323.002594,158.834991 317.341736,172.228851 304.234467,178.412552 
	C292.358093,184.015518 280.270111,183.383438 269.086548,176.178528 
	C257.027161,168.409393 255.266769,156.102936 264.436768,143.062317 
	C267.054565,140.893234 269.221680,139.132095 271.388763,137.370972 
z"/>
<path fill="#304349" opacity="1.000000" stroke="none" 
	d="
M271.460297,136.869965 
	C269.221680,139.132095 267.054565,140.893234 264.580414,142.726440 
	C258.019775,141.011398 256.589691,139.191498 256.300018,133.130508 
	C256.030396,127.488342 256.958282,121.973427 253.482773,116.433296 
	C250.413788,111.541168 255.834641,105.714859 261.870392,106.617592 
	C265.316376,107.132980 268.697937,108.302528 272.147461,108.501366 
	C274.991699,108.665314 278.056213,108.292458 280.731873,107.339615 
	C284.923950,105.846725 288.311676,106.218689 290.753479,110.054642 
	C293.222565,113.933472 292.290192,117.816330 288.782928,120.176842 
	C285.883850,122.128029 282.187866,123.044617 278.721863,123.946381 
	C276.730743,124.464401 274.494507,124.040260 271.531830,124.040260 
	C271.531830,128.504227 271.531830,132.436584 271.460297,136.869965 
z"/>
<path fill="#2E434A" opacity="1.000000" stroke="none" 
	d="
M194.992416,146.449631 
	C192.938705,146.460037 191.272537,146.473221 189.670639,146.158951 
	C186.078049,145.454102 183.598984,143.360168 183.259552,139.599411 
	C182.908844,135.713699 184.571640,132.860580 188.732574,131.426788 
	C199.771545,129.836548 210.608994,128.621429 221.398300,127.071129 
	C226.267029,126.371552 230.081253,128.114349 231.269257,132.362625 
	C232.327057,136.145401 230.247330,140.687164 225.777267,141.577148 
	C215.738800,143.575851 205.541672,144.777603 194.992416,146.449631 
z"/>
<path fill="#F790A2" opacity="1.000000" stroke="none" 
	d="
M143.728378,138.672745 
	C151.609802,143.329773 156.486786,149.905823 155.947906,159.379059 
	C155.406906,168.890091 149.529709,174.826874 141.376923,178.582687 
	C131.688004,183.046188 121.758514,183.123428 111.860252,179.014023 
	C102.291672,175.041473 95.927315,166.541473 96.309166,157.841400 
	C96.774689,147.234726 103.045624,140.604523 112.342964,137.061600 
	C117.188622,135.215103 122.700996,135.118225 128.406982,134.594086 
	C131.252640,143.675537 136.702698,145.041351 143.728378,138.672745 
z"/>
<path fill="#2C434B" opacity="1.000000" stroke="none" 
	d="
M153.241241,95.671722 
	C155.454987,96.907455 157.521149,97.740883 159.159607,99.092682 
	C162.431686,101.792290 162.959106,105.396996 160.871109,108.943344 
	C158.764542,112.521210 155.417557,113.688759 151.435349,111.989075 
	C149.300598,111.077934 147.300217,109.844345 145.148972,108.981171 
	C141.747910,107.616547 138.718292,107.363129 135.612488,110.418579 
	C132.158005,113.817085 128.005356,113.410599 124.967384,110.283386 
	C122.126709,107.359268 122.178764,102.985611 125.095848,99.489037 
	C131.497192,91.816048 140.699371,90.497108 153.241241,95.671722 
z"/>
<path fill="#314249" opacity="1.000000" stroke="none" 
	d="
M143.801178,138.282394 
	C136.702698,145.041351 131.252640,143.675537 128.835602,134.597656 
	C128.857758,130.599472 128.879898,126.957649 129.050766,123.322830 
	C129.276627,118.517731 132.506683,115.189972 136.719345,115.274361 
	C140.741043,115.354927 143.907822,118.555588 144.018448,123.082115 
	C144.138992,128.014633 143.935959,132.955063 143.801178,138.282394 
z"/>
</svg>