<svg version="1.1" id="Layer_1" xmlns="http://www.w3.org/2000/svg" xmlns:xlink="http://www.w3.org/1999/xlink" x="0px" y="0px"
	 width="100%" viewBox="0 0 500 500" enable-background="new 0 0 500 500" xml:space="preserve">
<path fill="#FFFFFF" opacity="1.000000" stroke="none" 
	d="
M233.000000,501.000000 
	C155.701355,501.000000 78.402718,501.000000 1.052036,501.000000 
	C1.052036,334.442810 1.052036,167.885590 1.052036,1.000000 
	C80.687798,1.000000 160.376053,1.000000 240.361755,1.335146 
	C229.198517,4.465893 217.708527,7.147469 206.284317,10.084925 
	C190.755081,14.077888 178.608429,22.695419 170.348785,37.078247 
	C165.777542,37.891785 161.512573,38.394264 157.276154,39.074570 
	C144.244614,41.167248 132.382401,45.707710 124.402931,56.886452 
	C109.697617,77.487694 121.548347,108.897514 147.123993,117.590134 
	C147.387741,118.360489 147.518845,118.807022 147.529236,119.352654 
	C147.408524,119.451744 147.477737,119.756317 147.323151,120.150879 
	C137.048859,156.734543 162.982452,190.474091 200.546906,190.127853 
	C212.710220,190.015747 223.089798,185.412415 233.001465,178.780746 
	C242.070633,172.712784 251.838409,172.489136 261.385651,177.819687 
	C270.557343,182.940582 275.283813,190.886688 275.283875,201.538834 
	C275.283966,217.293930 263.322052,228.566986 245.999664,229.048645 
	C222.518860,229.701508 201.853577,245.942978 195.777084,268.520081 
	C189.451813,292.021545 198.880829,316.392303 218.896866,329.074829 
	C228.691452,335.280823 239.451172,337.045441 250.736938,337.870392 
	C266.546722,339.025970 277.611847,353.958252 274.952484,369.710785 
	C272.343750,385.163300 256.507111,395.276276 241.211182,391.286469 
	C233.344894,389.234558 227.884888,384.326721 223.636871,377.509735 
	C212.681824,359.929565 196.388809,351.056549 175.967178,351.502686 
	C134.176071,352.415680 109.298882,397.851715 130.741608,433.690765 
	C150.528412,466.762146 179.470276,487.718536 216.786957,497.158691 
	C222.170685,498.520630 227.594650,499.723541 233.000000,501.000000 
z"/>
<path fill="#FFFFFF" opacity="1.000000" stroke="none" 
	d="
M257.000000,1.000001 
	C338.297302,1.000000 419.594604,1.000000 500.945953,1.000000 
	C500.945953,167.556793 500.945953,334.113586 500.945953,501.000000 
	C421.312195,501.000000 341.623962,501.000000 261.711639,500.680969 
	C292.801422,496.809418 320.208099,484.423126 342.655914,462.399567 
	C366.238312,439.262878 380.089325,411.117676 383.247528,377.843018 
	C386.366577,344.981079 378.409332,315.109406 359.983826,288.011230 
	C357.257477,284.001587 357.662323,281.810242 360.132324,278.183807 
	C383.069305,244.507568 389.236572,207.688095 379.944458,168.197083 
	C375.489014,149.261856 366.478027,132.488007 354.753326,116.804680 
	C354.482849,116.015251 354.208191,115.517044 353.981659,114.601639 
	C353.847107,112.875565 353.780518,111.537933 353.464478,110.262093 
	C348.801880,91.440376 344.143372,72.617508 339.409241,53.813705 
	C332.970947,28.241190 315.960297,13.899184 290.434387,8.158407 
	C288.617035,7.722814 287.181305,7.372456 285.736115,7.066525 
	C276.158539,5.039031 266.578949,3.021069 257.000000,1.000001 
z"/>
<path fill="#1AC08C" opacity="1.000000" stroke="none" 
	d="
M233.468414,501.000000 
	C227.594650,499.723541 222.170685,498.520630 216.786957,497.158691 
	C179.470276,487.718536 150.528412,466.762146 130.741608,433.690765 
	C109.298882,397.851715 134.176071,352.415680 175.967178,351.502686 
	C196.388809,351.056549 212.681824,359.929565 223.636871,377.509735 
	C227.884888,384.326721 233.344894,389.234558 241.211182,391.286469 
	C256.507111,395.276276 272.343750,385.163300 274.952484,369.710785 
	C277.611847,353.958252 266.546722,339.025970 250.736938,337.870392 
	C239.451172,337.045441 228.691452,335.280823 218.896866,329.074829 
	C198.880829,316.392303 189.451813,292.021545 195.777084,268.520081 
	C201.853577,245.942978 222.518860,229.701508 245.999664,229.048645 
	C263.322052,228.566986 275.283966,217.293930 275.283875,201.538834 
	C275.283813,190.886688 270.557343,182.940582 261.385651,177.819687 
	C251.838409,172.489136 242.070633,172.712784 233.001465,178.780746 
	C223.089798,185.412415 212.710220,190.015747 200.546906,190.127853 
	C162.982452,190.474091 137.048859,156.734543 147.409790,120.137650 
	C147.780411,119.566734 147.780045,119.407967 147.649933,119.253563 
	C147.518845,118.807022 147.387741,118.360489 147.507111,117.541252 
	C152.131210,115.340080 156.644440,113.784958 160.853806,111.634926 
	C177.373642,103.197090 195.065826,98.449982 213.151062,95.158325 
	C232.241608,91.683685 251.572952,92.879265 270.906311,93.526894 
	C271.493378,94.915703 271.951477,95.992905 272.537384,96.995422 
	C290.707275,128.084442 297.287964,161.582474 292.974823,197.206131 
	C289.521912,225.724899 278.644287,251.286942 261.312500,274.157227 
	C260.268616,275.534698 259.705536,277.276611 258.575317,278.952972 
	C251.818878,281.775574 250.150238,287.460999 255.249603,292.221008 
	C259.119690,295.833527 264.309723,298.031952 269.050720,301.180969 
	C279.493591,315.752014 287.254089,331.225800 292.225861,348.142212 
	C298.192200,368.442566 300.336578,389.082825 297.795319,410.066895 
	C295.790710,426.619263 291.233398,442.579773 284.058014,457.650421 
	C276.312378,473.918762 266.620026,488.892151 253.000000,501.000000 
	C246.645599,501.000000 240.291214,501.000000 233.468414,501.000000 
M234.117081,268.193237 
	C228.039032,265.938812 222.902878,268.082489 222.332703,273.563324 
	C221.855789,278.147675 221.550461,282.960541 222.479233,287.398010 
	C222.999420,289.883392 225.797852,292.676178 228.263031,293.774902 
	C231.455826,295.197845 234.739487,293.632324 236.705261,290.370789 
	C239.186981,286.253296 237.952545,272.491119 234.117081,268.193237 
z"/>
<path fill="#70DCBA" opacity="1.000000" stroke="none" 
	d="
M258.918732,278.848938 
	C259.705536,277.276611 260.268616,275.534698 261.312500,274.157227 
	C278.644287,251.286942 289.521912,225.724899 292.974823,197.206131 
	C297.287964,161.582474 290.707275,128.084442 272.537384,96.995422 
	C271.951477,95.992905 271.493378,94.915703 271.351318,93.470604 
	C281.665680,94.601059 291.874603,95.176407 301.481445,97.886169 
	C316.868805,102.226410 331.857086,107.981453 347.184326,113.419899 
	C349.819458,114.832840 352.284302,115.964371 354.749176,117.095901 
	C366.478027,132.488007 375.489014,149.261856 379.944458,168.197083 
	C389.236572,207.688095 383.069305,244.507568 360.132324,278.183807 
	C357.662323,281.810242 357.257477,284.001587 359.983826,288.011230 
	C378.409332,315.109406 386.366577,344.981079 383.247528,377.843018 
	C380.089325,411.117676 366.238312,439.262878 342.655914,462.399567 
	C320.208099,484.423126 292.801422,496.809418 261.243774,500.680969 
	C258.629456,501.000000 256.258881,501.000000 253.444153,501.000000 
	C266.620026,488.892151 276.312378,473.918762 284.058014,457.650421 
	C291.233398,442.579773 295.790710,426.619263 297.795319,410.066895 
	C300.336578,389.082825 298.192200,368.442566 292.225861,348.142212 
	C287.254089,331.225800 279.493591,315.752014 269.479004,301.189026 
	C280.662689,302.971100 290.154327,300.308380 297.972382,292.350403 
	C301.729523,288.526001 301.795898,284.226349 298.429230,280.926727 
	C295.435852,277.992950 291.003540,278.209930 287.315704,281.470795 
	C279.996124,287.942932 273.719818,287.860626 265.988922,281.702240 
	C264.083618,280.184479 261.299072,279.770416 258.918732,278.848938 
M320.320160,293.599945 
	C326.386749,294.636078 330.261749,292.680511 330.772552,287.667206 
	C331.241150,283.068298 331.231018,278.353607 330.797180,273.749725 
	C330.408600,269.626221 327.582214,267.153870 323.357941,267.161560 
	C319.138184,267.169250 316.431305,269.604584 315.993561,273.782196 
	C315.563263,277.888397 315.208832,282.124817 315.780273,286.168549 
	C316.130524,288.647186 318.285004,290.870819 320.320160,293.599945 
z"/>
<path fill="#E85D71" opacity="1.000000" stroke="none" 
	d="
M256.533142,1.000001 
	C266.578949,3.021069 276.158539,5.039031 285.736115,7.066525 
	C287.181305,7.372456 288.617035,7.722814 290.186859,8.380405 
	C268.701569,14.717401 253.276901,27.526106 245.484360,49.129505 
	C243.739899,49.087975 242.396484,49.075497 240.747772,48.993187 
	C240.027374,48.881985 239.612259,48.840622 239.082336,48.482639 
	C237.971420,47.845169 236.975342,47.524319 235.612701,47.123451 
	C234.251083,46.943485 233.256012,46.843533 232.137772,46.443108 
	C230.344910,45.715961 228.675217,45.289284 226.715424,44.828987 
	C226.036407,44.778469 225.647491,44.761574 225.111725,44.421627 
	C223.636169,43.820557 222.307449,43.542538 220.598602,43.180340 
	C219.183716,43.012356 218.148987,42.928555 216.918839,42.567142 
	C215.472153,41.956520 214.220871,41.623505 212.641281,41.220009 
	C211.866196,41.145668 211.419418,41.141808 210.740509,41.079582 
	C210.508347,41.021221 210.032928,41.077721 209.637299,40.985497 
	C198.461578,39.895855 187.679077,38.923088 176.903412,37.879715 
	C174.811310,37.677139 172.745880,37.199360 170.668137,36.848526 
	C178.608429,22.695419 190.755081,14.077888 206.284317,10.084925 
	C217.708527,7.147469 229.198517,4.465893 240.829590,1.335146 
	C246.022095,1.000000 251.044189,1.000000 256.533142,1.000001 
z"/>
<path fill="#686FB1" opacity="1.000000" stroke="none" 
	d="
M239.197159,48.799255 
	C239.612259,48.840622 240.027374,48.881985 240.952225,49.270668 
	C246.681732,51.372517 251.901489,53.127045 257.432800,54.915264 
	C258.148407,55.053017 258.552460,55.157085 259.039581,55.584576 
	C261.488708,56.874622 263.854767,57.841248 266.519287,58.846577 
	C267.202484,58.998085 267.587219,59.110889 268.046631,59.552284 
	C275.799133,63.548687 283.476898,67.216507 291.365845,70.921387 
	C291.577026,70.958458 291.975525,71.116776 292.036407,71.451324 
	C293.483948,72.462593 294.870605,73.139313 296.448486,73.849487 
	C296.639679,73.882942 296.994324,74.040840 297.117249,74.270576 
	C297.554016,74.627953 297.867920,74.755600 298.491364,74.935646 
	C299.520996,75.405449 300.241089,75.822838 301.016541,76.568375 
	C303.435883,78.224777 305.799835,79.553047 308.370758,80.918625 
	C308.577728,80.955940 308.966187,81.117188 309.022369,81.437210 
	C309.772797,82.129295 310.467041,82.501366 311.369995,82.923813 
	C311.578674,82.974205 311.971619,83.147194 312.027344,83.459526 
	C312.764069,84.133675 313.445038,84.495483 314.119629,84.904594 
	C314.113281,84.951897 314.108551,84.864372 314.205688,85.185059 
	C315.242004,85.955185 316.181213,86.404633 317.097015,86.879005 
	C317.073608,86.903931 317.110657,86.867416 317.208069,87.187889 
	C318.243561,87.957314 319.181641,88.406258 320.094788,88.883957 
	C320.069855,88.912712 320.110260,88.867477 320.211456,89.187210 
	C321.250763,89.970970 322.188873,90.434998 323.376984,91.014221 
	C324.075684,91.447968 324.524384,91.766525 325.016296,92.427612 
	C326.120911,93.453659 327.182404,94.137184 328.436310,94.864777 
	C328.628754,94.908836 328.981232,95.086746 329.021057,95.428558 
	C330.115112,96.455948 331.169403,97.141541 332.418823,97.878563 
	C332.614014,97.930000 332.974304,98.111977 333.013031,98.446770 
	C334.069946,99.480667 335.088104,100.179771 336.083130,100.880035 
	C336.059937,100.881203 336.095764,100.908188 336.173035,101.150909 
	C336.537750,101.552765 336.825226,101.711891 337.109253,101.862656 
	C337.105835,101.854294 337.130432,101.848022 337.216003,102.178864 
	C339.255890,103.962746 341.210205,105.415794 343.371643,106.934998 
	C343.578796,107.001167 343.961029,107.208641 344.007141,107.537003 
	C345.040161,109.623070 346.027130,111.380783 347.014069,113.138489 
	C331.857086,107.981453 316.868805,102.226410 301.481445,97.886169 
	C291.874603,95.176407 281.665680,94.601059 271.281921,93.124184 
	C251.572952,92.879265 232.241608,91.683685 213.151062,95.158325 
	C195.065826,98.449982 177.373642,103.197090 160.853806,111.634926 
	C156.644440,113.784958 152.131210,115.340080 147.374481,117.217422 
	C121.548347,108.897514 109.697617,77.487694 124.402931,56.886452 
	C132.382401,45.707710 144.244614,41.167248 157.276154,39.074570 
	C161.512573,38.394264 165.777542,37.891785 170.348785,37.078247 
	C172.745880,37.199360 174.811310,37.677139 176.903412,37.879715 
	C187.679077,38.923088 198.461578,39.895855 209.713501,41.138844 
	C210.447769,41.302261 210.710205,41.220104 210.972656,41.137947 
	C211.419418,41.141808 211.866196,41.145668 212.739685,41.548244 
	C214.482361,42.246223 215.798309,42.545486 217.114258,42.844749 
	C218.148987,42.928555 219.183716,43.012356 220.696259,43.517685 
	C222.535583,44.207703 223.897095,44.476192 225.258591,44.744682 
	C225.647491,44.761574 226.036407,44.778469 226.913727,45.126190 
	C229.021729,45.885876 230.641342,46.314732 232.260941,46.743584 
	C233.256012,46.843533 234.251083,46.943485 235.691101,47.454212 
	C237.156403,48.176411 238.176788,48.487835 239.197159,48.799255 
z"/>
<path fill="#686FB1" opacity="1.000000" stroke="none" 
	d="
M147.529236,119.352654 
	C147.780045,119.407967 147.780411,119.566734 147.564392,119.743088 
	C147.477737,119.756317 147.408524,119.451744 147.529236,119.352654 
z"/>
<path fill="#FD8FA0" opacity="1.000000" stroke="none" 
	d="
M324.973114,92.085068 
	C324.524384,91.766525 324.075684,91.447968 323.283936,90.694725 
	C321.997314,89.795845 321.053802,89.331657 320.110260,88.867477 
	C320.110260,88.867477 320.069855,88.912712 320.001099,88.569275 
	C318.991760,87.773026 318.051208,87.320213 317.110657,86.867416 
	C317.110657,86.867416 317.073608,86.903931 317.008087,86.562370 
	C315.997894,85.768661 315.053223,85.316521 314.108551,84.864380 
	C314.108551,84.864372 314.113281,84.951897 314.043640,84.605255 
	C313.306549,83.888138 312.639099,83.517662 311.971619,83.147186 
	C311.971619,83.147194 311.578674,82.974205 311.277527,82.625748 
	C310.306305,81.890594 309.636230,81.503891 308.966187,81.117188 
	C308.966187,81.117188 308.577728,80.955940 308.257263,80.602936 
	C305.611603,78.913361 303.286377,77.576797 300.961151,76.240234 
	C300.241089,75.822838 299.520996,75.405449 298.349823,74.723877 
	C297.597260,74.320076 297.295776,74.180458 296.994324,74.040840 
	C296.994324,74.040840 296.639679,73.882942 296.317200,73.545105 
	C294.654999,72.510429 293.315247,71.813599 291.975525,71.116776 
	C291.975525,71.116776 291.577026,70.958458 291.258240,70.598656 
	C283.283600,66.567131 275.627747,62.895409 267.971924,59.223690 
	C267.587219,59.110889 267.202484,58.998085 266.386871,58.533066 
	C263.622803,57.207615 261.289673,56.234379 258.956512,55.261147 
	C258.552460,55.157085 258.148407,55.053017 257.236816,54.625771 
	C253.114639,52.587910 249.500015,50.873234 245.885406,49.158558 
	C253.276901,27.526106 268.701569,14.717401 290.564087,8.486191 
	C315.960297,13.899184 332.970947,28.241190 339.409241,53.813705 
	C344.143372,72.617508 348.801880,91.440376 353.464478,110.262093 
	C353.780518,111.537933 353.847107,112.875565 353.685608,114.457596 
	C350.214661,112.223381 347.087860,109.716011 343.961029,107.208641 
	C343.961029,107.208641 343.578796,107.001167 343.288391,106.604156 
	C341.042175,104.754105 339.086304,103.301064 337.130432,101.848022 
	C337.130432,101.848022 337.105835,101.854294 337.019684,101.630394 
	C336.725861,101.120041 336.446594,100.953941 336.095764,100.908188 
	C336.095764,100.908188 336.059937,100.881203 336.018127,100.558952 
	C334.975677,99.528458 333.974976,98.820221 332.974304,98.111984 
	C332.974304,98.111977 332.614014,97.930000 332.320221,97.565247 
	C331.011353,96.495903 329.996307,95.791328 328.981232,95.086746 
	C328.981232,95.086746 328.628754,94.908836 328.330078,94.553894 
	C327.011963,93.494316 325.992554,92.789696 324.973114,92.085068 
z"/>
<path fill="#8A82A0" opacity="1.000000" stroke="none" 
	d="
M344.007141,107.537003 
	C347.087860,109.716011 350.214661,112.223381 353.637512,114.874794 
	C354.208191,115.517044 354.482849,116.015251 354.753326,116.804672 
	C352.284302,115.964371 349.819458,114.832840 347.184326,113.419899 
	C346.027130,111.380783 345.040161,109.623070 344.007141,107.537003 
z"/>
<path fill="#304344" opacity="1.000000" stroke="none" 
	d="
M258.575317,278.952972 
	C261.299072,279.770416 264.083618,280.184479 265.988922,281.702240 
	C273.719818,287.860626 279.996124,287.942932 287.315704,281.470795 
	C291.003540,278.209930 295.435852,277.992950 298.429230,280.926727 
	C301.795898,284.226349 301.729523,288.526001 297.972382,292.350403 
	C290.154327,300.308380 280.662689,302.971100 269.340698,300.867676 
	C264.309723,298.031952 259.119690,295.833527 255.249603,292.221008 
	C250.150238,287.460999 251.818878,281.775574 258.575317,278.952972 
z"/>
<path fill="#2C4543" opacity="1.000000" stroke="none" 
	d="
M234.443954,268.408997 
	C237.952545,272.491119 239.186981,286.253296 236.705261,290.370789 
	C234.739487,293.632324 231.455826,295.197845 228.263031,293.774902 
	C225.797852,292.676178 222.999420,289.883392 222.479233,287.398010 
	C221.550461,282.960541 221.855789,278.147675 222.332703,273.563324 
	C222.902878,268.082489 228.039032,265.938812 234.443954,268.408997 
z"/>
<path fill="#304545" opacity="1.000000" stroke="none" 
	d="
M319.974731,293.404480 
	C318.285004,290.870819 316.130524,288.647186 315.780273,286.168549 
	C315.208832,282.124817 315.563263,277.888397 315.993561,273.782196 
	C316.431305,269.604584 319.138184,267.169250 323.357941,267.161560 
	C327.582214,267.153870 330.408600,269.626221 330.797180,273.749725 
	C331.231018,278.353607 331.241150,283.068298 330.772552,287.667206 
	C330.261749,292.680511 326.386749,294.636078 319.974731,293.404480 
z"/>
<path fill="#8A82A0" opacity="1.000000" stroke="none" 
	d="
M245.484360,49.129505 
	C249.500015,50.873234 253.114639,52.587910 256.925232,54.592079 
	C251.901489,53.127045 246.681732,51.372517 241.257523,49.340504 
	C242.396484,49.075497 243.739899,49.087975 245.484360,49.129505 
z"/>
<path fill="#8A82A0" opacity="1.000000" stroke="none" 
	d="
M232.137772,46.443108 
	C230.641342,46.314732 229.021729,45.885876 227.203827,45.159817 
	C228.675217,45.289284 230.344910,45.715961 232.137772,46.443108 
z"/>
<path fill="#8A82A0" opacity="1.000000" stroke="none" 
	d="
M225.111725,44.421627 
	C223.897095,44.476192 222.535583,44.207703 221.076416,43.601868 
	C222.307449,43.542538 223.636169,43.820557 225.111725,44.421627 
z"/>
<path fill="#8A82A0" opacity="1.000000" stroke="none" 
	d="
M216.918839,42.567139 
	C215.798309,42.545486 214.482361,42.246223 213.068008,41.618725 
	C214.220871,41.623505 215.472153,41.956520 216.918839,42.567139 
z"/>
<path fill="#8A82A0" opacity="1.000000" stroke="none" 
	d="
M239.082336,48.482635 
	C238.176788,48.487835 237.156403,48.176411 236.057648,47.534225 
	C236.975342,47.524319 237.971420,47.845169 239.082336,48.482635 
z"/>
<path fill="#8A82A0" opacity="1.000000" stroke="none" 
	d="
M210.740509,41.079582 
	C210.710205,41.220104 210.447769,41.302261 210.109131,41.231071 
	C210.032928,41.077721 210.508347,41.021221 210.740509,41.079582 
z"/>
<path fill="#8A82A0" opacity="1.000000" stroke="none" 
	d="
M268.046631,59.552277 
	C275.627747,62.895409 283.283600,66.567131 291.047058,70.561584 
	C283.476898,67.216507 275.799133,63.548687 268.046631,59.552277 
z"/>
<path fill="#8A82A0" opacity="1.000000" stroke="none" 
	d="
M301.016541,76.568367 
	C303.286377,77.576797 305.611603,78.913361 308.050293,80.565620 
	C305.799835,79.553047 303.435883,78.224777 301.016541,76.568367 
z"/>
<path fill="#8A82A0" opacity="1.000000" stroke="none" 
	d="
M337.216003,102.178856 
	C339.086304,103.301064 341.042175,104.754105 343.081268,106.537994 
	C341.210205,105.415794 339.255890,103.962746 337.216003,102.178856 
z"/>
<path fill="#8A82A0" opacity="1.000000" stroke="none" 
	d="
M259.039581,55.584572 
	C261.289673,56.234379 263.622803,57.207615 266.088379,58.494358 
	C263.854767,57.841248 261.488708,56.874622 259.039581,55.584572 
z"/>
<path fill="#8A82A0" opacity="1.000000" stroke="none" 
	d="
M292.036407,71.451324 
	C293.315247,71.813599 294.654999,72.510429 296.125977,73.511650 
	C294.870605,73.139313 293.483948,72.462593 292.036407,71.451324 
z"/>
<path fill="#8A82A0" opacity="1.000000" stroke="none" 
	d="
M325.016296,92.427605 
	C325.992554,92.789696 327.011963,93.494316 328.137634,94.509827 
	C327.182404,94.137184 326.120911,93.453659 325.016296,92.427605 
z"/>
<path fill="#8A82A0" opacity="1.000000" stroke="none" 
	d="
M333.013031,98.446777 
	C333.974976,98.820221 334.975677,99.528458 336.041321,100.557785 
	C335.088104,100.179771 334.069946,99.480667 333.013031,98.446777 
z"/>
<path fill="#8A82A0" opacity="1.000000" stroke="none" 
	d="
M329.021057,95.428558 
	C329.996307,95.791328 331.011353,96.495903 332.125061,97.513809 
	C331.169403,97.141541 330.115112,96.455948 329.021057,95.428558 
z"/>
<path fill="#8A82A0" opacity="1.000000" stroke="none" 
	d="
M320.211456,89.187210 
	C321.053802,89.331657 321.997314,89.795845 323.033936,90.579529 
	C322.188873,90.434998 321.250763,89.970970 320.211456,89.187210 
z"/>
<path fill="#8A82A0" opacity="1.000000" stroke="none" 
	d="
M317.208069,87.187881 
	C318.051208,87.320213 318.991760,87.773026 320.026001,88.540520 
	C319.181641,88.406258 318.243561,87.957314 317.208069,87.187881 
z"/>
<path fill="#8A82A0" opacity="1.000000" stroke="none" 
	d="
M314.205688,85.185059 
	C315.053223,85.316521 315.997894,85.768661 317.031494,86.537445 
	C316.181213,86.404633 315.242004,85.955185 314.205688,85.185059 
z"/>
<path fill="#8A82A0" opacity="1.000000" stroke="none" 
	d="
M312.027344,83.459518 
	C312.639099,83.517662 313.306549,83.888138 314.050018,84.557953 
	C313.445038,84.495483 312.764069,84.133675 312.027344,83.459518 
z"/>
<path fill="#8A82A0" opacity="1.000000" stroke="none" 
	d="
M309.022369,81.437210 
	C309.636230,81.503891 310.306305,81.890594 311.068817,82.575363 
	C310.467041,82.501366 309.772797,82.129295 309.022369,81.437210 
z"/>
<path fill="#8A82A0" opacity="1.000000" stroke="none" 
	d="
M336.173035,101.150909 
	C336.446594,100.953941 336.725861,101.120041 337.023102,101.638756 
	C336.825226,101.711891 336.537750,101.552765 336.173035,101.150909 
z"/>
<path fill="#8A82A0" opacity="1.000000" stroke="none" 
	d="
M297.117249,74.270576 
	C297.295776,74.180458 297.597260,74.320076 298.040253,74.671463 
	C297.867920,74.755600 297.554016,74.627953 297.117249,74.270576 
z"/>
</svg>