<svg version="1.1" id="Layer_1" xmlns="http://www.w3.org/2000/svg" xmlns:xlink="http://www.w3.org/1999/xlink" x="0px" y="0px"
	 width="100%" viewBox="0 0 500 500" enable-background="new 0 0 500 500" xml:space="preserve">
<path fill="#FFFFFF" opacity="1.000000" stroke="none" 
	d="
M316.000000,501.000000 
	C211.040985,501.000000 106.081963,501.000000 1.061471,501.000000 
	C1.061471,334.439392 1.061471,167.878738 1.061471,1.000000 
	C98.022415,1.000000 195.045166,1.000000 292.316711,1.329359 
	C275.585602,7.179041 258.170258,11.659725 241.757538,18.534204 
	C227.501831,24.505219 219.808640,36.674919 218.845245,52.641129 
	C218.396652,60.075512 217.081879,67.453377 216.417984,74.879951 
	C215.222519,88.252922 214.221527,101.643280 212.988525,115.335625 
	C210.784088,118.670212 208.763168,121.718361 206.671860,124.717453 
	C175.654358,169.198685 144.610474,213.661530 113.609116,258.154022 
	C94.301895,285.863312 74.972214,313.557648 55.820129,341.374054 
	C47.308102,353.736847 43.466782,367.664734 45.343929,382.551270 
	C49.170788,412.899872 72.353851,435.441528 102.402481,437.863220 
	C103.495201,437.952911 104.235161,437.920624 105.442337,437.945282 
	C142.470886,438.023712 179.032242,438.032715 215.593567,438.072479 
	C231.378662,438.089630 247.163696,438.170410 262.965851,438.648804 
	C264.760773,465.117615 276.654541,484.426270 300.792267,495.398895 
	C305.696747,497.628357 310.922394,499.151306 316.000000,501.000000 
z"/>
<path fill="#FFFFFE" opacity="1.000000" stroke="none" 
	d="
M306.000000,0.999999 
	C370.967072,1.000000 435.934143,1.000000 500.950623,1.000000 
	C500.950623,167.549316 500.950623,334.098633 500.950623,501.000000 
	C444.979584,501.000000 388.958466,501.000000 332.731201,500.722839 
	C361.432434,495.111847 380.269653,477.613525 386.297516,450.311859 
	C387.180084,446.314453 387.468872,442.185883 388.492920,438.100891 
	C392.952698,437.931854 396.951965,437.779999 401.230225,437.717804 
	C402.012360,437.582428 402.515472,437.357422 403.395569,437.143311 
	C404.520874,437.070892 405.269196,436.987549 406.291931,436.909485 
	C406.863403,436.711639 407.160492,436.508484 407.848724,436.318756 
	C423.752014,433.379303 435.672272,424.900909 445.006042,412.439362 
	C465.392578,385.221069 458.580505,344.635620 430.612946,325.247772 
	C417.685150,316.285858 403.391510,313.268005 387.860229,313.542969 
	C387.526093,311.360352 387.192322,309.558960 387.190704,307.757233 
	C387.133667,243.766327 387.107788,179.775406 387.536865,115.761551 
	C402.476379,115.533829 416.986786,115.839485 431.428406,114.984192 
	C446.619873,114.084488 457.688934,100.371284 456.972900,84.686684 
	C456.320374,70.394073 443.638245,58.156593 428.967468,58.007996 
	C413.645020,57.852802 398.319489,57.998787 382.828003,57.642704 
	C382.410339,55.656113 382.079620,54.047684 381.922760,52.422474 
	C380.937012,42.207291 377.520020,33.178020 369.725342,26.071018 
	C359.331116,16.593792 346.439240,12.538436 333.046814,8.654205 
	C323.852753,5.924347 314.926361,3.462172 306.000000,0.999999 
z"/>
<path fill="#FFCE71" opacity="1.000000" stroke="none" 
	d="
M388.032410,438.118011 
	C387.468872,442.185883 387.180084,446.314453 386.297516,450.311859 
	C380.269653,477.613525 361.432434,495.111847 332.262512,500.722839 
	C326.977905,501.000000 321.955811,501.000000 316.466858,501.000000 
	C310.922394,499.151306 305.696747,497.628357 300.792267,495.398895 
	C276.654541,484.426270 264.760773,465.117615 262.975464,438.159790 
	C262.961273,396.100586 262.954559,354.956940 262.970245,313.360870 
	C263.006287,296.160278 263.019897,279.412048 263.003967,262.217102 
	C262.963837,247.075058 262.953247,232.379807 263.375336,217.618225 
	C272.344360,217.817764 279.789398,215.130554 286.001770,209.235565 
	C290.260162,205.194702 290.867920,200.971008 287.817474,197.427872 
	C284.639893,193.737030 280.455841,193.956299 275.717041,198.061981 
	C270.377533,202.688126 264.831451,203.430923 259.057861,200.024811 
	C260.433136,199.576080 261.619019,199.421051 262.485199,199.307816 
	C263.054535,189.310806 263.013855,179.649994 264.273438,170.161789 
	C266.584778,152.750748 272.533386,136.500885 282.161072,121.712997 
	C289.156189,110.968658 296.984924,100.958771 307.266510,93.055565 
	C308.865479,91.826469 309.799347,89.732033 311.492981,88.018097 
	C325.801422,88.242813 339.380646,90.826172 351.959259,96.244377 
	C364.155701,101.497955 375.519867,108.683693 387.219849,115.214767 
	C387.190155,115.408661 387.077515,115.784470 387.077515,115.784470 
	C387.107788,179.775406 387.133667,243.766327 387.190704,307.757233 
	C387.192322,309.558960 387.526093,311.360352 387.856201,314.018127 
	C388.015778,355.955566 388.024078,397.036774 388.032410,438.118011 
M322.987488,209.240524 
	C321.929504,210.726059 320.899323,212.232346 319.808807,213.693604 
	C314.431946,220.898392 314.751587,231.450623 320.637299,238.088806 
	C334.633575,253.874466 359.893585,252.251556 371.687195,236.792099 
	C377.946869,228.586716 374.739136,214.223831 366.180878,208.307632 
	C356.833649,201.846054 346.666351,201.617035 336.015503,201.125366 
	C335.993774,197.481949 336.150482,193.826248 335.900574,190.198547 
	C335.645599,186.496887 333.475769,184.009659 329.832001,183.283920 
	C326.148163,182.550201 322.428040,184.056259 321.795471,187.480270 
	C320.500122,194.492035 318.999969,201.835022 322.987488,209.240524 
z"/>
<path fill="#E95D6F" opacity="1.000000" stroke="none" 
	d="
M305.536804,0.999999 
	C314.926361,3.462172 323.852753,5.924347 332.669800,8.776186 
	C323.895966,12.510678 315.105225,15.568701 306.613922,19.306993 
	C301.450073,21.580368 296.729340,24.884380 294.445618,30.855385 
	C277.510559,31.820065 269.346619,40.106281 268.782349,57.302338 
	C274.566956,56.571045 280.248962,55.852722 285.966064,55.582195 
	C285.318298,66.655968 284.635437,77.281937 283.541443,87.952866 
	C281.512817,88.319740 279.883118,88.590401 278.279785,88.971977 
	C268.513611,91.296257 258.259399,92.461044 249.111893,96.275970 
	C236.677170,101.461823 225.089966,108.679855 213.139297,115.026367 
	C214.221527,101.643280 215.222519,88.252922 216.417984,74.879951 
	C217.081879,67.453377 218.396652,60.075512 218.845245,52.641129 
	C219.808640,36.674919 227.501831,24.505219 241.757538,18.534204 
	C258.170258,11.659725 275.585602,7.179041 292.782776,1.329359 
	C297.024536,1.000000 301.049103,1.000000 305.536804,0.999999 
z"/>
<path fill="#FEB357" opacity="1.000000" stroke="none" 
	d="
M212.988525,115.335617 
	C225.089966,108.679855 236.677170,101.461823 249.111893,96.275970 
	C258.259399,92.461044 268.513611,91.296257 278.279785,88.971977 
	C279.883118,88.590401 281.512817,88.319740 283.979614,87.985031 
	C286.277893,87.796089 287.730103,87.446396 289.175323,87.473030 
	C296.464813,87.607368 303.752502,87.839775 311.040802,88.037766 
	C309.799347,89.732033 308.865479,91.826469 307.266510,93.055565 
	C296.984924,100.958771 289.156189,110.968658 282.161072,121.712997 
	C272.533386,136.500885 266.584778,152.750748 264.273438,170.161789 
	C263.013855,179.649994 263.054535,189.310806 262.485199,199.307816 
	C261.619019,199.421051 260.433136,199.576080 258.726593,199.914185 
	C257.404816,199.523590 256.547089,199.014160 255.811737,198.365875 
	C250.777206,193.927338 246.729324,193.585831 243.384354,197.359344 
	C239.906616,201.282669 240.449936,206.215973 246.137711,209.910156 
	C251.261200,213.237823 257.304840,215.148743 262.942627,217.684540 
	C262.953247,232.379807 262.963837,247.075058 262.635651,262.297058 
	C260.673157,264.963501 258.981598,267.055481 257.436829,269.250732 
	C247.903275,282.798950 238.393311,296.363800 228.911133,309.947968 
	C228.223801,310.932648 227.818665,312.114288 226.982758,313.813263 
	C239.487518,313.813263 251.217667,313.813263 262.947815,313.813263 
	C262.954559,354.956940 262.961273,396.100586 262.958374,437.733276 
	C247.163696,438.170410 231.378662,438.089630 215.593567,438.072479 
	C179.032242,438.032715 142.470886,438.023712 105.263054,437.719513 
	C103.760948,437.538300 102.905342,437.639801 102.049728,437.741272 
	C72.353851,435.441528 49.170788,412.899872 45.343929,382.551270 
	C43.466782,367.664734 47.308102,353.736847 55.820129,341.374054 
	C74.972214,313.557648 94.301895,285.863312 113.609116,258.154022 
	C144.610474,213.661530 175.654358,169.198685 206.671860,124.717453 
	C208.763168,121.718361 210.784088,118.670212 212.988525,115.335617 
M209.037537,207.067825 
	C209.452713,201.497803 210.274200,195.919388 210.159439,190.360306 
	C210.060806,185.583038 206.645554,182.898331 202.376694,183.117676 
	C198.172531,183.333694 195.360046,186.369476 195.152328,191.093277 
	C194.991913,194.741547 194.987778,198.396683 193.988892,202.036240 
	C183.204742,201.392502 172.873123,201.999817 163.698273,209.060760 
	C154.008179,216.518234 153.398544,233.666809 163.010773,240.973373 
	C175.171173,250.216888 187.933990,252.093857 201.898056,244.969849 
	C213.540695,239.030136 218.271515,227.122894 212.839569,215.979584 
	C211.503067,213.237808 210.126801,210.515427 209.037537,207.067825 
z"/>
<path fill="#FFCE71" opacity="1.000000" stroke="none" 
	d="
M102.402481,437.863220 
	C102.905342,437.639801 103.760948,437.538300 104.795837,437.662567 
	C104.235161,437.920624 103.495201,437.952911 102.402481,437.863220 
z"/>
<path fill="#FDB357" opacity="1.000000" stroke="none" 
	d="
M388.492920,438.100891 
	C388.024078,397.036774 388.015778,355.955566 388.011475,314.399170 
	C403.391510,313.268005 417.685150,316.285858 430.612946,325.247772 
	C458.580505,344.635620 465.392578,385.221069 445.006042,412.439362 
	C435.672272,424.900909 423.752014,433.379303 407.564148,436.289032 
	C406.598083,436.465332 406.307800,436.684753 406.017517,436.904175 
	C405.269196,436.987549 404.520874,437.070892 403.264282,436.899292 
	C402.154388,436.972260 401.552826,437.300201 400.951263,437.628113 
	C396.951965,437.779999 392.952698,437.931854 388.492920,438.100891 
z"/>
<path fill="#FE8F9E" opacity="1.000000" stroke="none" 
	d="
M311.492981,88.018105 
	C303.752502,87.839775 296.464813,87.607368 289.175323,87.473030 
	C287.730103,87.446396 286.277893,87.796089 284.390747,87.940079 
	C284.635437,77.281937 285.318298,66.655968 286.440186,55.534836 
	C293.851776,55.033051 300.836700,54.765205 307.793396,55.094494 
	C314.522552,55.413017 321.227448,56.301353 327.933380,57.028202 
	C331.397644,57.403690 332.457703,55.697674 331.950104,52.632446 
	C330.848969,45.983433 328.972656,39.858372 322.779907,35.830856 
	C314.111420,30.193254 304.556091,30.296240 294.859619,30.802980 
	C296.729340,24.884380 301.450073,21.580368 306.613922,19.306993 
	C315.105225,15.568701 323.895966,12.510678 332.937500,9.043871 
	C346.439240,12.538436 359.331116,16.593792 369.725342,26.071018 
	C377.520020,33.178020 380.937012,42.207291 381.922760,52.422474 
	C382.079620,54.047684 382.410339,55.656113 382.832489,58.081364 
	C383.328827,62.675137 383.615692,66.463539 383.985413,70.243820 
	C384.885803,79.449318 385.967194,88.639793 386.695465,97.858452 
	C387.145752,103.558281 387.082367,109.298676 387.249542,115.020866 
	C375.519867,108.683693 364.155701,101.497955 351.959259,96.244377 
	C339.380646,90.826172 325.801422,88.242813 311.492981,88.018105 
z"/>
<path fill="#E95C70" opacity="1.000000" stroke="none" 
	d="
M387.219849,115.214767 
	C387.082367,109.298676 387.145752,103.558281 386.695465,97.858452 
	C385.967194,88.639793 384.885803,79.449318 383.985413,70.243820 
	C383.615692,66.463539 383.328827,62.675137 382.999786,58.451767 
	C398.319489,57.998787 413.645020,57.852802 428.967468,58.007996 
	C443.638245,58.156593 456.320374,70.394073 456.972900,84.686684 
	C457.688934,100.371284 446.619873,114.084488 431.428406,114.984192 
	C416.986786,115.839485 402.476379,115.533829 387.536865,115.761551 
	C387.077515,115.784470 387.190155,115.408661 387.219849,115.214767 
z"/>
<path fill="#FFCE71" opacity="1.000000" stroke="none" 
	d="
M401.230225,437.717773 
	C401.552826,437.300201 402.154388,436.972260 402.887299,436.888367 
	C402.515472,437.357422 402.012360,437.582428 401.230225,437.717773 
z"/>
<path fill="#FFCE71" opacity="1.000000" stroke="none" 
	d="
M406.291931,436.909485 
	C406.307800,436.684753 406.598083,436.465332 407.172974,436.275604 
	C407.160492,436.508484 406.863403,436.711639 406.291931,436.909485 
z"/>
<path fill="#FD909C" opacity="1.000000" stroke="none" 
	d="
M336.134155,202.061111 
	C346.666351,201.617035 356.833649,201.846054 366.180878,208.307632 
	C374.739136,214.223831 377.946869,228.586716 371.687195,236.792099 
	C359.893585,252.251556 334.633575,253.874466 320.637299,238.088806 
	C314.751587,231.450623 314.431946,220.898392 319.808807,213.693604 
	C320.899323,212.232346 321.929504,210.726059 323.505249,209.067505 
	C330.934052,211.663925 334.738342,209.517471 336.134155,202.061111 
z"/>
<path fill="#FFFDFB" opacity="1.000000" stroke="none" 
	d="
M262.970245,313.360870 
	C251.217667,313.813263 239.487518,313.813263 226.982758,313.813263 
	C227.818665,312.114288 228.223801,310.932648 228.911133,309.947968 
	C238.393311,296.363800 247.903275,282.798950 257.436829,269.250732 
	C258.981598,267.055481 260.673157,264.963501 262.665192,262.743835 
	C263.019897,279.412048 263.006287,296.160278 262.970245,313.360870 
z"/>
<path fill="#3A403D" opacity="1.000000" stroke="none" 
	d="
M263.375336,217.618225 
	C257.304840,215.148743 251.261200,213.237823 246.137711,209.910156 
	C240.449936,206.215973 239.906616,201.282669 243.384354,197.359344 
	C246.729324,193.585831 250.777206,193.927338 255.811737,198.365875 
	C256.547089,199.014160 257.404816,199.523590 258.537231,200.207901 
	C264.831451,203.430923 270.377533,202.688126 275.717041,198.061981 
	C280.455841,193.956299 284.639893,193.737030 287.817474,197.427872 
	C290.867920,200.971008 290.260162,205.194702 286.001770,209.235565 
	C279.789398,215.130554 272.344360,217.817764 263.375336,217.618225 
z"/>
<path fill="#3A3F3D" opacity="1.000000" stroke="none" 
	d="
M336.074829,201.593231 
	C334.738342,209.517471 330.934052,211.663925 323.672424,208.732574 
	C318.999969,201.835022 320.500122,194.492035 321.795471,187.480270 
	C322.428040,184.056259 326.148163,182.550201 329.832001,183.283920 
	C333.475769,184.009659 335.645599,186.496887 335.900574,190.198547 
	C336.150482,193.826248 335.993774,197.481949 336.074829,201.593231 
z"/>
<path fill="#FEB15A" opacity="1.000000" stroke="none" 
	d="
M294.445618,30.855385 
	C304.556091,30.296240 314.111420,30.193254 322.779907,35.830856 
	C328.972656,39.858372 330.848969,45.983433 331.950104,52.632446 
	C332.457703,55.697674 331.397644,57.403690 327.933380,57.028202 
	C321.227448,56.301353 314.522552,55.413017 307.793396,55.094494 
	C300.836700,54.765205 293.851776,55.033051 286.405090,55.087040 
	C280.248962,55.852722 274.566956,56.571045 268.782349,57.302338 
	C269.346619,40.106281 277.510559,31.820065 294.445618,30.855385 
z"/>
<path fill="#FE909C" opacity="1.000000" stroke="none" 
	d="
M208.768829,207.784119 
	C210.126801,210.515427 211.503067,213.237808 212.839569,215.979584 
	C218.271515,227.122894 213.540695,239.030136 201.898056,244.969849 
	C187.933990,252.093857 175.171173,250.216888 163.010773,240.973373 
	C153.398544,233.666809 154.008179,216.518234 163.698273,209.060760 
	C172.873123,201.999817 183.204742,201.392502 194.544281,202.404205 
	C196.923782,210.355011 201.813980,212.148056 208.768829,207.784119 
z"/>
<path fill="#3C3F3C" opacity="1.000000" stroke="none" 
	d="
M208.903183,207.425964 
	C201.813980,212.148056 196.923782,210.355011 195.006927,202.410477 
	C194.987778,198.396683 194.991913,194.741547 195.152328,191.093277 
	C195.360046,186.369476 198.172531,183.333694 202.376694,183.117676 
	C206.645554,182.898331 210.060806,185.583038 210.159439,190.360306 
	C210.274200,195.919388 209.452713,201.497803 208.903183,207.425964 
z"/>
</svg>