<svg version="1.1" id="Layer_1" xmlns="http://www.w3.org/2000/svg" xmlns:xlink="http://www.w3.org/1999/xlink" x="0px" y="0px"
	 width="100%" viewBox="0 0 500 500" enable-background="new 0 0 500 500" xml:space="preserve">
<path fill="#FFFFFF" opacity="1.000000" stroke="none" 
	d="
M226.000000,501.000000 
	C151.036697,501.000000 76.073402,501.000000 1.055052,501.000000 
	C1.055052,334.451599 1.055052,167.903198 1.055052,1.000000 
	C57.020393,1.000000 113.041542,1.000000 169.347382,1.330529 
	C163.960495,3.537907 157.920654,4.703115 152.681046,7.414658 
	C129.856384,19.226618 117.554047,38.112011 117.354782,63.970024 
	C116.999077,110.130234 117.138138,156.294083 116.991859,202.456146 
	C116.877380,238.585251 144.118164,266.057373 180.295593,266.248505 
	C202.282486,266.364655 224.291992,266.034363 246.248795,266.938293 
	C268.389313,267.849792 283.949066,279.369263 293.172607,299.504547 
	C294.231812,301.816772 295.676971,303.952240 296.929413,306.530487 
	C296.930084,308.513000 296.708466,310.178009 296.996704,311.749451 
	C299.076416,323.086639 297.876404,334.071533 292.761322,344.356842 
	C282.360229,365.270905 265.103180,375.557709 241.488159,376.123840 
	C221.012222,374.629669 205.752075,365.411774 195.293365,348.165741 
	C181.675156,325.709778 155.809723,313.782684 130.906586,318.326599 
	C87.974556,326.160095 65.615730,373.693573 87.912239,411.383636 
	C115.026245,457.217224 155.107452,485.720123 207.213074,497.124878 
	C213.458878,498.491974 219.736893,499.711914 226.000000,501.000000 
z"/>
<path fill="#FFFFFF" opacity="1.000000" stroke="none" 
	d="
M339.000000,1.000000 
	C392.973877,1.000000 446.947784,1.000000 500.960815,1.000000 
	C500.960815,167.559952 500.960815,334.119934 500.960815,501.000000 
	C420.312714,501.000000 339.625031,501.000000 258.714294,500.681671 
	C261.283905,499.969360 264.075989,499.571503 266.869232,499.182068 
	C312.494324,492.820679 350.854828,472.504303 380.064117,436.999908 
	C422.637848,385.250763 433.684631,326.660889 412.820587,262.892975 
	C401.449188,228.137894 380.199219,199.826248 350.963745,177.786285 
	C326.601929,159.420441 299.304779,147.855881 268.856873,143.717239 
	C268.569580,143.412140 268.390900,143.433945 267.844177,143.538879 
	C266.911194,143.394226 266.369995,143.362701 265.643494,143.055069 
	C267.170593,140.188126 268.711151,135.536377 270.626343,135.376678 
	C277.532928,134.800720 281.251343,130.530334 285.478516,125.872360 
	C300.596954,125.923187 315.250580,125.816551 329.901642,125.964325 
	C364.979309,126.318138 396.929932,96.012352 393.156769,57.857899 
	C391.250885,38.585079 382.285919,23.648245 366.839294,12.297652 
	C358.499084,6.169035 348.801453,3.478869 339.000000,1.000000 
z"/>
<path fill="#FE8F71" opacity="1.000000" stroke="none" 
	d="
M268.941711,143.847885 
	C299.304779,147.855881 326.601929,159.420441 350.963745,177.786285 
	C380.199219,199.826248 401.449188,228.137894 412.820587,262.892975 
	C433.684631,326.660889 422.637848,385.250763 380.064117,436.999908 
	C350.854828,472.504303 312.494324,492.820679 266.869232,499.182068 
	C264.075989,499.571503 261.283905,499.969360 258.245667,500.681671 
	C252.977905,501.000000 247.955811,501.000000 242.328293,500.689331 
	C240.765640,499.036499 239.741974,497.736389 238.862320,496.345184 
	C234.193054,488.961090 228.844467,481.899109 225.073257,474.078400 
	C218.576294,460.605011 216.676254,446.146912 217.889771,431.149719 
	C218.896698,418.705536 221.963913,406.968689 228.295624,396.278412 
	C232.408188,389.334869 237.341965,382.877716 241.907806,376.202637 
	C265.103180,375.557709 282.360229,365.270905 292.761322,344.356842 
	C297.876404,334.071533 299.076416,323.086639 296.996704,311.749451 
	C296.708466,310.178009 296.930084,308.513000 297.078125,306.169006 
	C297.168915,303.035889 297.043243,300.625275 297.035339,298.214264 
	C297.009369,290.301422 297.760651,282.306549 296.889557,274.490723 
	C294.219788,250.536896 282.412231,231.402237 264.135132,216.128036 
	C253.712204,207.417587 240.793182,203.458160 228.681503,197.883759 
	C215.838318,191.972672 208.355042,181.378143 208.094193,166.951263 
	C207.726807,146.631210 208.018570,126.299248 208.460785,105.967422 
	C210.907761,106.007889 212.922440,106.053299 215.004028,106.476158 
	C217.719040,113.583618 219.753693,120.657883 223.259888,126.906433 
	C225.170853,130.312057 229.262924,133.774246 232.941956,134.568878 
	C237.122025,135.471725 239.207672,137.247543 241.062805,140.557465 
	C243.653442,145.179657 247.690887,148.519501 253.040726,147.813492 
	C257.424225,147.235001 261.574921,144.891983 265.828796,143.331177 
	C266.369995,143.362701 266.911194,143.394226 267.943726,143.612671 
	C268.435089,143.799591 268.683746,143.871613 268.683746,143.871613 
	C268.683746,143.871613 268.941711,143.847885 268.941711,143.847885 
z"/>
<path fill="#FE6F4E" opacity="1.000000" stroke="none" 
	d="
M208.028488,105.972382 
	C208.018570,126.299248 207.726807,146.631210 208.094193,166.951263 
	C208.355042,181.378143 215.838318,191.972672 228.681503,197.883759 
	C240.793182,203.458160 253.712204,207.417587 264.135132,216.128036 
	C282.412231,231.402237 294.219788,250.536896 296.889557,274.490723 
	C297.760651,282.306549 297.009369,290.301422 297.035339,298.214264 
	C297.043243,300.625275 297.168915,303.035889 297.091919,305.808167 
	C295.676971,303.952240 294.231812,301.816772 293.172607,299.504547 
	C283.949066,279.369263 268.389313,267.849792 246.248795,266.938293 
	C224.291992,266.034363 202.282486,266.364655 180.295593,266.248505 
	C144.118164,266.057373 116.877380,238.585251 116.991859,202.456146 
	C117.138138,156.294083 116.999077,110.130234 117.354782,63.970024 
	C117.554047,38.112011 129.856384,19.226618 152.681046,7.414658 
	C157.920654,4.703115 163.960495,3.537907 169.816040,1.330529 
	C199.354233,1.000000 228.708450,1.000000 258.291595,1.276519 
	C255.091934,2.723734 251.627243,3.798930 248.240570,5.080359 
	C222.953369,14.648335 206.712479,39.022774 208.082489,65.485924 
	C205.211777,71.817581 201.946808,77.640488 199.751648,83.842072 
	C196.167053,93.968948 198.905121,100.533752 208.028488,105.972382 
M196.484192,42.141521 
	C190.788940,37.624516 184.065689,39.388233 183.298035,45.907036 
	C182.738434,50.658966 182.869644,55.563602 183.320541,60.340923 
	C183.690750,64.263260 186.493851,66.527107 190.474899,66.718452 
	C194.250885,66.899948 197.527298,64.981613 197.725388,61.330074 
	C198.059814,55.165367 197.276321,48.940022 196.484192,42.141521 
z"/>
<path fill="#FE6F4E" opacity="1.000000" stroke="none" 
	d="
M241.488159,376.123840 
	C237.341965,382.877716 232.408188,389.334869 228.295624,396.278412 
	C221.963913,406.968689 218.896698,418.705536 217.889771,431.149719 
	C216.676254,446.146912 218.576294,460.605011 225.073257,474.078400 
	C228.844467,481.899109 234.193054,488.961090 238.862320,496.345184 
	C239.741974,497.736389 240.765640,499.036499 241.861435,500.689331 
	C236.977905,501.000000 231.955811,501.000000 226.466858,501.000000 
	C219.736893,499.711914 213.458878,498.491974 207.213074,497.124878 
	C155.107452,485.720123 115.026245,457.217224 87.912239,411.383636 
	C65.615730,373.693573 87.974556,326.160095 130.906586,318.326599 
	C155.809723,313.782684 181.675156,325.709778 195.293365,348.165741 
	C205.752075,365.411774 221.012222,374.629669 241.488159,376.123840 
z"/>
<path fill="#FD9072" opacity="1.000000" stroke="none" 
	d="
M208.168671,65.147232 
	C206.712479,39.022774 222.953369,14.648335 248.240570,5.080359 
	C251.627243,3.798930 255.091934,2.723734 258.760254,1.276519 
	C285.354218,1.000000 311.708466,1.000000 338.531342,1.000000 
	C348.801453,3.478869 358.499084,6.169035 366.839294,12.297652 
	C382.285919,23.648245 391.250885,38.585079 393.156769,57.857899 
	C396.929932,96.012352 364.979309,126.318138 329.901642,125.964325 
	C315.250580,125.816551 300.596954,125.923187 285.528503,125.531616 
	C287.436676,118.794945 289.760803,112.440788 292.505859,106.075394 
	C303.670044,107.670029 311.255493,95.423317 308.252716,86.494339 
	C304.468231,75.240700 299.685059,65.023201 290.572113,57.007820 
	C278.697998,46.563766 265.266144,44.706806 253.065125,52.502678 
	C249.452118,48.390732 244.690308,45.978100 239.367172,47.150425 
	C233.626541,48.414703 227.721985,50.203793 222.708740,53.156048 
	C217.362320,56.304512 212.974823,61.081318 208.168671,65.147232 
M308.692017,47.333382 
	C308.768951,51.487793 308.600067,55.665455 308.990143,59.790253 
	C309.401703,64.142128 312.687897,66.838699 316.688660,66.711433 
	C320.644440,66.585602 323.643158,63.638695 323.904480,59.208504 
	C324.119873,55.556496 323.917450,51.881550 323.969055,48.217743 
	C324.033752,43.624886 322.150970,40.446396 317.467773,39.529568 
	C313.393188,38.731892 310.245819,41.385330 308.692017,47.333382 
z"/>
<path fill="#FECE72" opacity="1.000000" stroke="none" 
	d="
M292.084930,106.086624 
	C289.760803,112.440788 287.436676,118.794945 285.062531,125.489838 
	C281.251343,130.530334 277.532928,134.800720 270.626343,135.376678 
	C268.711151,135.536377 267.170593,140.188126 265.643494,143.055069 
	C261.574921,144.891983 257.424225,147.235001 253.040726,147.813492 
	C247.690887,148.519501 243.653442,145.179657 241.062805,140.557465 
	C239.207672,137.247543 237.122025,135.471725 232.941956,134.568878 
	C229.262924,133.774246 225.170853,130.312057 223.259888,126.906433 
	C219.753693,120.657883 217.719040,113.583618 215.373566,106.407242 
	C223.275742,104.244827 226.920258,98.697304 228.815216,91.824135 
	C231.082550,83.600327 235.868851,78.150078 244.290756,76.082909 
	C245.880066,75.692810 247.741135,75.375969 248.873856,74.355843 
	C252.110046,71.441269 255.127533,72.024193 258.334961,74.167511 
	C259.291779,74.806877 260.278900,75.705284 261.335938,75.843399 
	C272.614044,77.316895 277.144836,85.417686 279.743927,94.985321 
	C281.542664,101.606781 285.405548,105.236237 292.084930,106.086624 
z"/>
<path fill="#FECE72" opacity="1.000000" stroke="none" 
	d="
M268.856873,143.717239 
	C268.941711,143.847885 268.683746,143.871613 268.683746,143.871613 
	C268.683746,143.871613 268.435089,143.799591 268.335510,143.725800 
	C268.390900,143.433945 268.569580,143.412140 268.856873,143.717239 
z"/>
<path fill="#FCE29F" opacity="1.000000" stroke="none" 
	d="
M292.505859,106.075394 
	C285.405548,105.236237 281.542664,101.606781 279.743927,94.985321 
	C277.144836,85.417686 272.614044,77.316895 261.335938,75.843399 
	C260.278900,75.705284 259.291779,74.806877 258.334961,74.167511 
	C255.127533,72.024193 252.110046,71.441269 248.873856,74.355843 
	C247.741135,75.375969 245.880066,75.692810 244.290756,76.082909 
	C235.868851,78.150078 231.082550,83.600327 228.815216,91.824135 
	C226.920258,98.697304 223.275742,104.244827 215.306671,106.029800 
	C212.922440,106.053299 210.907761,106.007889 208.460785,105.967422 
	C198.905121,100.533752 196.167053,93.968948 199.751648,83.842072 
	C201.946808,77.640488 205.211777,71.817581 208.082489,65.485931 
	C212.974823,61.081318 217.362320,56.304512 222.708740,53.156048 
	C227.721985,50.203793 233.626541,48.414703 239.367172,47.150425 
	C244.690308,45.978100 249.452118,48.390732 253.065125,52.502678 
	C265.266144,44.706806 278.697998,46.563766 290.572113,57.007820 
	C299.685059,65.023201 304.468231,75.240700 308.252716,86.494339 
	C311.255493,95.423317 303.670044,107.670029 292.505859,106.075394 
z"/>
<path fill="#3F3C3C" opacity="1.000000" stroke="none" 
	d="
M196.723572,42.440849 
	C197.276321,48.940022 198.059814,55.165367 197.725388,61.330074 
	C197.527298,64.981613 194.250885,66.899948 190.474899,66.718452 
	C186.493851,66.527107 183.690750,64.263260 183.320541,60.340923 
	C182.869644,55.563602 182.738434,50.658966 183.298035,45.907036 
	C184.065689,39.388233 190.788940,37.624516 196.723572,42.440849 
z"/>
<path fill="#3E3E3F" opacity="1.000000" stroke="none" 
	d="
M308.758820,46.925415 
	C310.245819,41.385330 313.393188,38.731892 317.467773,39.529568 
	C322.150970,40.446396 324.033752,43.624886 323.969055,48.217743 
	C323.917450,51.881550 324.119873,55.556496 323.904480,59.208504 
	C323.643158,63.638695 320.644440,66.585602 316.688660,66.711433 
	C312.687897,66.838699 309.401703,64.142128 308.990143,59.790253 
	C308.600067,55.665455 308.768951,51.487793 308.758820,46.925415 
z"/>
</svg>