<svg version="1.1" id="Layer_1" xmlns="http://www.w3.org/2000/svg" xmlns:xlink="http://www.w3.org/1999/xlink" x="0px" y="0px"
	 width="100%" viewBox="0 0 500 500" enable-background="new 0 0 500 500" xml:space="preserve">
<path fill="#FFFFFF" opacity="1.000000" stroke="none" 
	d="
M246.000000,0.999998 
	C330.962860,1.000000 415.925720,1.000000 500.944275,1.000000 
	C500.944275,167.556702 500.944275,334.113403 500.944275,501.000000 
	C421.644958,501.000000 342.289459,501.000000 262.747131,500.697906 
	C269.795319,499.492401 277.122528,499.046722 284.250061,497.610138 
	C325.981873,489.198730 361.028168,469.157562 388.316376,436.305725 
	C421.272369,396.630554 434.662903,350.955719 428.997955,299.723602 
	C424.776306,261.544006 409.043518,228.335663 383.283173,200.308090 
	C353.519562,167.924881 316.600189,148.444000 272.465942,143.255325 
	C273.042694,141.378983 273.535278,139.787521 274.224915,138.286591 
	C281.651947,122.122437 289.183960,106.006134 296.543884,89.811569 
	C310.772614,58.502907 298.062836,22.622093 267.089142,7.713289 
	C260.507233,4.545168 253.052567,3.190281 246.000000,0.999998 
z"/>
<path fill="#FFFFFF" opacity="1.000000" stroke="none" 
	d="
M237.000000,501.000000 
	C158.368774,501.000000 79.737534,501.000000 1.053151,501.000000 
	C1.053151,334.443848 1.053151,167.887680 1.053151,1.000000 
	C78.021118,1.000000 155.042709,1.000000 232.299057,1.309824 
	C209.687927,5.339248 193.013092,17.344809 183.163635,38.462814 
	C177.465698,50.679615 171.784683,62.904751 166.179886,75.164452 
	C140.641434,131.026260 115.387924,187.020172 89.519539,242.728638 
	C73.464554,277.303589 68.178406,313.138184 74.040085,350.714172 
	C85.269905,422.702454 143.882629,483.469940 215.220306,497.052795 
	C222.467972,498.432800 229.739532,499.687286 237.000000,501.000000 
z"/>
<path fill="#EA5C70" opacity="1.000000" stroke="none" 
	d="
M237.460632,501.000000 
	C229.739532,499.687286 222.467972,498.432800 215.220306,497.052795 
	C143.882629,483.469940 85.269905,422.702454 74.040085,350.714172 
	C68.178406,313.138184 73.464554,277.303589 89.519539,242.728638 
	C115.387924,187.020172 140.641434,131.026260 166.179886,75.164452 
	C171.784683,62.904751 177.465698,50.679615 183.163635,38.462814 
	C193.013092,17.344809 209.687927,5.339248 232.766907,1.309824 
	C237.024551,1.000000 241.049088,1.000000 245.536819,0.999998 
	C253.052567,3.190281 260.507233,4.545168 267.089142,7.713289 
	C298.062836,22.622093 310.772614,58.502907 296.543884,89.811569 
	C289.183960,106.006134 281.651947,122.122437 274.224915,138.286591 
	C273.535278,139.787521 273.042694,141.378983 272.235626,143.595520 
	C265.241547,159.039642 258.549133,173.853455 251.661102,188.575745 
	C248.871338,194.538528 245.654938,200.301682 242.250504,206.165802 
	C232.110840,204.058258 223.720261,207.171310 217.005173,213.945847 
	C210.647522,220.359756 205.120193,227.596710 199.194336,234.016083 
	C201.899216,221.574631 197.843231,213.424622 185.902161,206.557068 
	C185.834396,203.433502 185.896393,200.766144 185.778931,198.106720 
	C185.570572,193.388885 182.150253,189.618454 178.290115,189.714676 
	C173.626450,189.830963 170.583878,193.009827 170.230484,198.148163 
	C170.116638,199.803436 170.026932,201.460388 169.529999,203.166260 
	C163.755615,204.802719 157.978455,205.609863 153.072937,208.120300 
	C137.452972,216.113937 136.663025,235.190323 151.197189,245.053238 
	C166.393692,255.365616 184.703308,252.119995 198.259644,237.162506 
	C197.595169,246.036285 199.958282,248.901367 208.381210,248.790115 
	C213.607376,248.721069 218.822083,247.784271 224.027893,247.604980 
	C220.218903,256.572632 216.377029,265.151947 212.647888,273.779999 
	C210.641800,278.421448 208.829041,283.146454 206.783539,288.156616 
	C204.710953,291.913635 202.572662,295.248138 200.897598,298.801025 
	C196.394150,308.353088 194.668091,318.473602 196.582489,328.865631 
	C201.790085,357.134277 221.307816,374.301025 249.812286,376.513245 
	C248.673126,378.125610 247.774094,379.522888 246.699066,380.768188 
	C233.478104,396.083527 226.096771,413.947754 225.183899,434.028412 
	C224.222031,455.186310 230.216537,474.550293 243.027100,491.653503 
	C245.237518,494.604614 247.019897,497.876373 249.000000,501.000000 
	C245.307098,501.000000 241.614182,501.000000 237.460632,501.000000 
z"/>
<path fill="#FE8F9F" opacity="1.000000" stroke="none" 
	d="
M249.463181,501.000000 
	C247.019897,497.876373 245.237518,494.604614 243.027100,491.653503 
	C230.216537,474.550293 224.222031,455.186310 225.183899,434.028412 
	C226.096771,413.947754 233.478104,396.083527 246.699066,380.768188 
	C247.774094,379.522888 248.673126,378.125610 250.262634,376.445862 
	C279.269287,376.321320 303.124817,354.988800 305.749359,326.583282 
	C307.684113,305.643524 299.580933,288.298126 282.260284,276.268097 
	C265.146973,264.382019 246.346985,262.288574 227.591827,271.937042 
	C219.990067,275.847717 213.775085,282.454041 206.929062,287.833740 
	C208.829041,283.146454 210.641800,278.421448 212.647888,273.779999 
	C216.377029,265.151947 220.218903,256.572632 224.389404,247.451111 
	C234.660172,244.630829 244.452530,242.131851 250.453812,233.356628 
	C254.229553,236.314056 257.270569,239.544189 260.990448,241.447586 
	C271.355530,246.751251 282.758728,248.405258 294.208984,248.604340 
	C301.559235,248.732117 303.400208,246.445068 304.678894,239.893112 
	C306.256470,240.764893 307.747131,241.341385 308.723511,242.394623 
	C318.115570,252.525970 337.105865,253.848969 349.325409,246.336304 
	C362.538361,238.212860 365.305481,222.798355 354.165283,212.493256 
	C347.694763,206.507828 340.131165,203.996841 331.514160,203.306870 
	C331.402740,201.083252 331.470123,199.249512 331.279846,197.442932 
	C330.775024,192.650070 327.838379,189.728043 323.756989,189.805359 
	C319.569885,189.884689 316.396057,193.272324 316.200806,198.012360 
	C316.064484,201.321274 316.076599,204.636307 315.666321,207.980072 
	C303.956177,214.193771 300.058838,222.306305 302.545959,232.316742 
	C302.674377,232.833694 302.243774,233.489548 301.782471,233.899048 
	C295.551636,226.798401 290.155884,219.299759 283.545502,213.095230 
	C273.414368,203.586105 264.581635,203.687637 250.786194,211.856049 
	C248.054733,209.946411 245.343704,208.051041 242.632690,206.155685 
	C245.654938,200.301682 248.871338,194.538528 251.661102,188.575745 
	C258.549133,173.853455 265.241547,159.039642 272.242920,143.922440 
	C316.600189,148.444000 353.519562,167.924881 383.283173,200.308090 
	C409.043518,228.335663 424.776306,261.544006 428.997955,299.723602 
	C434.662903,350.955719 421.272369,396.630554 388.316376,436.305725 
	C361.028168,469.157562 325.981873,489.198730 284.250061,497.610138 
	C277.122528,499.046722 269.795319,499.492401 262.280151,500.697906 
	C257.975464,501.000000 253.950912,501.000000 249.463181,501.000000 
z"/>
<path fill="#FFFEFE" opacity="1.000000" stroke="none" 
	d="
M206.783539,288.156616 
	C213.775085,282.454041 219.990067,275.847717 227.591827,271.937042 
	C246.346985,262.288574 265.146973,264.382019 282.260284,276.268097 
	C299.580933,288.298126 307.684113,305.643524 305.749359,326.583282 
	C303.124817,354.988800 279.269287,376.321320 250.420959,376.160156 
	C221.307816,374.301025 201.790085,357.134277 196.582489,328.865631 
	C194.668091,318.473602 196.394150,308.353088 200.897598,298.801025 
	C202.572662,295.248138 204.710953,291.913635 206.783539,288.156616 
z"/>
<path fill="#515697" opacity="1.000000" stroke="none" 
	d="
M242.250504,206.165802 
	C245.343704,208.051041 248.054733,209.946411 250.786194,211.856049 
	C264.581635,203.687637 273.414368,203.586105 283.545502,213.095230 
	C290.155884,219.299759 295.551636,226.798401 301.845673,234.230469 
	C302.917694,236.435425 303.635529,238.127228 304.353363,239.819046 
	C303.400208,246.445068 301.559235,248.732117 294.208984,248.604340 
	C282.758728,248.405258 271.355530,246.751251 260.990448,241.447586 
	C257.270569,239.544189 254.229553,236.314056 250.453812,233.356628 
	C244.452530,242.131851 234.660172,244.630829 224.403442,247.083099 
	C218.822083,247.784271 213.607376,248.721069 208.381210,248.790115 
	C199.958282,248.901367 197.595169,246.036285 198.343506,236.940536 
	C198.700287,235.667404 198.963989,235.069565 199.227707,234.471710 
	C205.120193,227.596710 210.647522,220.359756 217.005173,213.945847 
	C223.720261,207.171310 232.110840,204.058258 242.250504,206.165802 
z"/>
<path fill="#FED8DD" opacity="1.000000" stroke="none" 
	d="
M199.194336,234.016083 
	C198.963989,235.069565 198.700287,235.667404 198.352707,236.487213 
	C184.703308,252.119995 166.393692,255.365616 151.197189,245.053238 
	C136.663025,235.190323 137.452972,216.113937 153.072937,208.120300 
	C157.978455,205.609863 163.755615,204.802719 169.684113,203.569214 
	C170.366013,206.072311 170.360413,208.241409 170.658951,210.367813 
	C171.211182,214.301392 173.496109,216.712708 177.524780,216.997726 
	C181.833817,217.302597 184.337296,214.896713 185.461899,210.950409 
	C185.819733,209.694733 185.798752,208.331085 185.951111,207.016846 
	C197.843231,213.424622 201.899216,221.574631 199.194336,234.016083 
z"/>
<path fill="#3D3E43" opacity="1.000000" stroke="none" 
	d="
M185.902161,206.557068 
	C185.798752,208.331085 185.819733,209.694733 185.461899,210.950409 
	C184.337296,214.896713 181.833817,217.302597 177.524780,216.997726 
	C173.496109,216.712708 171.211182,214.301392 170.658951,210.367813 
	C170.360413,208.241409 170.366013,206.072311 170.080292,203.519516 
	C170.026932,201.460388 170.116638,199.803436 170.230484,198.148163 
	C170.583878,193.009827 173.626450,189.830963 178.290115,189.714676 
	C182.150253,189.618454 185.570572,193.388885 185.778931,198.106720 
	C185.896393,200.766144 185.834396,203.433502 185.902161,206.557068 
z"/>
<path fill="#FED9DE" opacity="1.000000" stroke="none" 
	d="
M304.678894,239.893112 
	C303.635529,238.127228 302.917694,236.435425 302.136658,234.412170 
	C302.243774,233.489548 302.674377,232.833694 302.545959,232.316742 
	C300.058838,222.306305 303.956177,214.193771 315.754242,208.361404 
	C317.035400,214.571579 319.497284,217.176331 324.053467,217.022278 
	C328.604980,216.868378 331.051666,213.830795 331.249634,208.149216 
	C331.301331,206.667206 331.463837,205.189056 331.575470,203.709137 
	C340.131165,203.996841 347.694763,206.507828 354.165283,212.493256 
	C365.305481,222.798355 362.538361,238.212860 349.325409,246.336304 
	C337.105865,253.848969 318.115570,252.525970 308.723511,242.394623 
	C307.747131,241.341385 306.256470,240.764893 304.678894,239.893112 
z"/>
<path fill="#3B3F43" opacity="1.000000" stroke="none" 
	d="
M331.514160,203.306870 
	C331.463837,205.189056 331.301331,206.667206 331.249634,208.149216 
	C331.051666,213.830795 328.604980,216.868378 324.053467,217.022278 
	C319.497284,217.176331 317.035400,214.571579 316.110352,208.329941 
	C316.076599,204.636307 316.064484,201.321274 316.200806,198.012360 
	C316.396057,193.272324 319.569885,189.884689 323.756989,189.805359 
	C327.838379,189.728043 330.775024,192.650070 331.279846,197.442932 
	C331.470123,199.249512 331.402740,201.083252 331.514160,203.306870 
z"/>
</svg>