<svg version="1.1" id="Layer_1" xmlns="http://www.w3.org/2000/svg" xmlns:xlink="http://www.w3.org/1999/xlink" x="0px" y="0px"
	 width="100%" viewBox="0 0 500 500" enable-background="new 0 0 500 500" xml:space="preserve">
<path fill="#FFFFFF" opacity="1.000000" stroke="none" 
	d="
M212.000000,501.000000 
	C141.703796,501.000000 71.407593,501.000000 1.062193,501.000000 
	C1.062193,334.333344 1.062193,167.666656 1.062193,1.000000 
	C40.103817,1.000000 79.083252,1.000000 118.298012,1.306169 
	C81.070526,7.699729 57.601284,41.664494 65.965256,77.689049 
	C72.348091,105.180626 97.478729,125.618317 125.786995,125.919319 
	C149.572739,126.172241 173.362946,126.008537 197.148682,126.422440 
	C196.720413,128.246094 196.322632,129.685593 195.864563,131.105667 
	C190.390594,148.076309 188.235443,165.431870 193.656845,182.604324 
	C197.541382,194.908661 203.461716,206.566345 208.365234,218.556946 
	C209.144791,220.463150 209.351822,222.603455 209.584839,224.938354 
	C205.015762,242.637451 200.700729,260.037537 196.351990,277.429230 
	C184.192963,326.055969 171.940552,374.659546 159.880890,423.310913 
	C152.017487,455.033691 169.419678,486.802216 200.275375,497.449249 
	C204.132690,498.780304 208.089355,499.823456 212.000000,501.000000 
z"/>
<path fill="#FFFFFF" opacity="1.000000" stroke="none" 
	d="
M321.000000,1.000001 
	C380.972534,1.000000 440.945099,1.000000 500.958801,1.000000 
	C500.958801,167.562943 500.958801,334.125916 500.958801,501.000000 
	C410.312134,501.000000 319.623932,501.000000 228.685287,500.680481 
	C236.243515,497.523193 244.052155,494.685394 252.192642,491.759338 
	C267.378021,482.418213 276.714935,469.185425 280.949005,452.271301 
	C289.201141,419.305847 297.483917,386.348053 305.691711,353.371582 
	C309.537964,337.918396 313.239441,322.429169 317.154968,306.640137 
	C317.931183,304.986359 318.334259,303.473724 319.219879,302.337036 
	C336.281494,280.438995 351.972015,257.598389 365.861511,233.568604 
	C376.348206,215.425873 386.358887,197.014542 391.138702,176.314941 
	C391.497192,174.762527 392.441528,173.345383 393.481934,171.943604 
	C402.141388,173.316101 410.405487,175.423096 418.730377,175.699783 
	C429.240662,176.049133 435.350311,171.234589 436.780029,162.906555 
	C439.485352,147.148346 436.672577,132.323853 426.833344,119.633904 
	C422.039917,113.451691 415.560364,108.576790 410.057770,102.835030 
	C424.572388,90.716080 430.258179,75.323395 428.797302,57.094292 
	C428.369385,51.754902 426.469177,46.713432 421.298004,44.449810 
	C417.760132,42.901146 413.627197,42.304321 409.716125,42.090755 
	C397.063751,41.399864 386.052582,46.115799 375.620850,52.892410 
	C371.596375,33.894722 361.642853,19.565384 344.872742,9.646269 
	C336.763885,6.589854 328.881927,3.794928 321.000000,1.000001 
z"/>
<path fill="#D6948D" opacity="1.000000" stroke="none" 
	d="
M320.531342,1.000001 
	C328.881927,3.794928 336.763885,6.589854 344.708130,9.952973 
	C331.735657,19.741274 322.037994,31.394526 317.628601,47.148338 
	C310.710968,45.440540 304.290283,42.877949 297.104919,44.852825 
	C285.308685,33.784096 265.522034,38.596016 261.330933,55.309093 
	C259.111938,64.157936 262.699402,68.266266 271.896423,68.050346 
	C273.559021,77.857185 277.995575,85.505783 287.223755,88.703690 
	C293.142944,90.754898 299.684845,91.009224 305.966187,92.488907 
	C305.840851,94.218964 305.846741,95.566475 305.530853,96.833771 
	C299.854309,119.606659 294.100525,142.360336 288.447418,165.139008 
	C285.506714,176.988174 282.728851,188.877777 279.583618,200.808228 
	C278.897980,200.940231 278.506165,201.013092 277.769226,200.918610 
	C266.768036,197.606476 256.098053,194.378052 247.351837,187.141617 
	C236.461884,178.131470 228.638092,167.184738 229.148102,152.357315 
	C229.367172,145.988419 230.970886,139.617416 232.411545,133.354584 
	C233.783020,127.392494 233.033752,126.004478 227.149872,126.003998 
	C217.150299,126.003197 207.150742,126.019913 197.151169,126.029274 
	C173.362946,126.008537 149.572739,126.172241 125.786995,125.919319 
	C97.478729,125.618317 72.348091,105.180626 65.965256,77.689049 
	C57.601284,41.664494 81.070526,7.699729 118.766670,1.306169 
	C186.020889,1.000000 253.041794,1.000000 320.531342,1.000001 
M142.518188,44.517891 
	C132.437057,43.884777 123.354866,46.488445 116.076202,53.634010 
	C107.609337,61.946056 107.830231,74.121460 116.084877,82.651100 
	C124.678093,91.530586 135.487061,93.471733 146.911087,91.631279 
	C160.611649,89.424095 169.246460,80.040291 170.903229,67.907211 
	C178.017517,67.431999 180.795166,63.648716 179.578033,56.638672 
	C176.917450,41.315102 157.573792,32.079109 142.518188,44.517891 
M207.864761,78.760727 
	C201.950104,79.178795 200.056900,77.799850 198.844696,72.190788 
	C197.686523,66.831696 194.393951,64.053833 190.005936,64.733734 
	C185.435013,65.441971 183.136993,69.341644 183.813232,74.943863 
	C184.620987,81.635796 187.728043,86.940193 193.386414,90.540382 
	C202.588455,96.395287 211.622940,95.617279 220.216812,89.164047 
	C221.674759,90.069328 222.914383,90.892944 224.203064,91.630936 
	C237.786682,99.409943 255.719528,89.884277 256.903503,74.269981 
	C257.302429,69.008911 254.810852,65.426422 250.287582,64.757393 
	C245.972656,64.119179 242.829330,66.577400 241.798935,71.794090 
	C241.017654,75.749504 239.512909,78.955650 234.976929,78.975647 
	C230.275192,78.996368 228.428955,75.949387 227.834778,71.616440 
	C227.233093,67.228729 224.403671,64.676575 220.044937,64.700928 
	C215.815125,64.724564 213.811661,67.473183 212.730469,71.541992 
	C212.067902,74.035355 210.024185,76.161697 207.864761,78.760727 
z"/>
<path fill="#D7958D" opacity="1.000000" stroke="none" 
	d="
M251.860779,491.847595 
	C244.052155,494.685394 236.243515,497.523193 228.217438,500.680481 
	C222.977905,501.000000 217.955811,501.000000 212.466858,501.000000 
	C208.089355,499.823456 204.132690,498.780304 200.275375,497.449249 
	C169.419678,486.802216 152.017487,455.033691 159.880890,423.310913 
	C171.940552,374.659546 184.192963,326.055969 196.351990,277.429230 
	C200.700729,260.037537 205.015762,242.637451 209.945160,225.058899 
	C213.197433,228.939575 215.799774,233.036850 218.512772,237.059494 
	C230.129715,254.284485 241.792542,271.478577 253.394775,288.713409 
	C254.461334,290.297760 255.217087,292.091309 256.066528,294.205231 
	C251.810242,311.496155 247.597519,328.367859 243.400497,345.243408 
	C236.839523,371.624023 230.262527,398.000671 223.744431,424.391876 
	C219.858963,440.123840 222.547791,454.990936 230.082062,469.093597 
	C235.203415,478.679749 243.123581,485.676239 251.860779,491.847595 
z"/>
<path fill="#9FA2E1" opacity="1.000000" stroke="none" 
	d="
M256.117157,293.787720 
	C255.217087,292.091309 254.461334,290.297760 253.394775,288.713409 
	C241.792542,271.478577 230.129715,254.284485 218.512772,237.059494 
	C215.799774,233.036850 213.197433,228.939575 210.183853,224.756088 
	C209.351822,222.603455 209.144791,220.463150 208.365234,218.556946 
	C203.461716,206.566345 197.541382,194.908661 193.656845,182.604324 
	C188.235443,165.431870 190.390594,148.076309 195.864563,131.105667 
	C196.322632,129.685593 196.720413,128.246094 197.148682,126.422440 
	C207.150742,126.019913 217.150299,126.003197 227.149872,126.003998 
	C233.033752,126.004478 233.783020,127.392494 232.411545,133.354584 
	C230.970886,139.617416 229.367172,145.988419 229.148102,152.357315 
	C228.638092,167.184738 236.461884,178.131470 247.351837,187.141617 
	C256.098053,194.378052 266.768036,197.606476 277.593445,201.201950 
	C270.438080,208.028046 265.542328,216.110565 267.264313,225.740921 
	C270.699188,244.950912 274.873627,264.065735 279.697357,282.976318 
	C282.553436,294.172913 287.234314,304.904022 290.659119,315.889526 
	C278.670013,315.587921 270.050751,309.922913 263.044159,301.149231 
	C260.948486,298.525024 258.437744,296.232300 256.117157,293.787720 
z"/>
<path fill="#D5D4FD" opacity="1.000000" stroke="none" 
	d="
M291.094635,315.844452 
	C287.234314,304.904022 282.553436,294.172913 279.697357,282.976318 
	C274.873627,264.065735 270.699188,244.950912 267.264313,225.740921 
	C265.542328,216.110565 270.438080,208.028046 277.938507,201.369293 
	C278.506165,201.013092 278.897980,200.940231 280.058105,200.901154 
	C296.996033,201.592209 313.042725,201.583939 327.558990,192.754135 
	C339.610535,185.423538 349.746155,176.563400 353.236908,162.029129 
	C355.189819,153.897858 357.535492,145.861771 359.596527,137.755417 
	C362.799896,125.156303 365.889465,112.528229 369.115662,99.935059 
	C369.312195,99.167946 370.283600,98.599335 371.078674,98.231934 
	C380.473541,109.679199 386.763489,122.173050 390.453278,136.276047 
	C393.546997,148.100739 392.734375,159.971985 393.113525,171.865372 
	C392.441528,173.345383 391.497192,174.762527 391.138702,176.314941 
	C386.358887,197.014542 376.348206,215.425873 365.861511,233.568604 
	C351.972015,257.598389 336.281494,280.438995 319.219879,302.337036 
	C318.334259,303.473724 317.931183,304.986359 316.798828,306.680725 
	C315.246918,307.526154 313.980255,307.784454 313.187134,308.539917 
	C306.954987,314.476074 299.014526,315.102051 291.094635,315.844452 
z"/>
<path fill="#E8B5B1" opacity="1.000000" stroke="none" 
	d="
M290.659119,315.889526 
	C299.014526,315.102051 306.954987,314.476074 313.187134,308.539917 
	C313.980255,307.784454 315.246918,307.526154 316.650330,306.996887 
	C313.239441,322.429169 309.537964,337.918396 305.691711,353.371582 
	C297.483917,386.348053 289.201141,419.305847 280.949005,452.271301 
	C276.714935,469.185425 267.378021,482.418213 252.192657,491.759338 
	C243.123581,485.676239 235.203415,478.679749 230.082062,469.093597 
	C222.547791,454.990936 219.858963,440.123840 223.744431,424.391876 
	C230.262527,398.000671 236.839523,371.624023 243.400497,345.243408 
	C247.597519,328.367859 251.810242,311.496155 256.066528,294.205231 
	C258.437744,296.232300 260.948486,298.525024 263.044159,301.149231 
	C270.050751,309.922913 278.670013,315.587921 290.659119,315.889526 
z"/>
<path fill="#E8B5B1" opacity="1.000000" stroke="none" 
	d="
M370.894501,97.938370 
	C370.283600,98.599335 369.312195,99.167946 369.115662,99.935059 
	C365.889465,112.528229 362.799896,125.156303 359.596527,137.755417 
	C357.535492,145.861771 355.189819,153.897858 353.236908,162.029129 
	C349.746155,176.563400 339.610535,185.423538 327.558990,192.754135 
	C313.042725,201.583939 296.996033,201.592209 280.351868,200.842010 
	C282.728851,188.877777 285.506714,176.988174 288.447418,165.139008 
	C294.100525,142.360336 299.854309,119.606659 305.530853,96.833771 
	C305.846741,95.566475 305.840851,94.218964 306.388184,92.455978 
	C314.800690,91.578445 321.646515,88.325905 326.859924,82.432022 
	C332.017120,76.601707 334.219879,69.844955 331.528442,61.839317 
	C329.156738,54.784737 323.419647,51.246429 318.029846,47.196148 
	C322.037994,31.394526 331.735657,19.741274 344.935059,10.214460 
	C361.642853,19.565384 371.596375,33.894722 375.652832,53.340897 
	C375.391815,62.243553 375.110199,70.439468 374.218262,78.568413 
	C373.541870,84.733353 372.088013,90.812981 370.955017,97.182205 
	C370.918091,97.602020 370.906311,97.770203 370.894501,97.938370 
z"/>
<path fill="#9FA3E2" opacity="1.000000" stroke="none" 
	d="
M371.078674,98.231941 
	C370.906311,97.770203 370.918091,97.602020 371.371674,97.139969 
	C373.770569,96.558601 375.718719,96.148399 377.686340,96.003838 
	C389.106232,95.164772 399.653900,98.344833 409.844086,103.110107 
	C415.560364,108.576790 422.039917,113.451691 426.833344,119.633904 
	C436.672577,132.323853 439.485352,147.148346 436.780029,162.906555 
	C435.350311,171.234589 429.240662,176.049133 418.730377,175.699783 
	C410.405487,175.423096 402.141388,173.316101 393.481934,171.943604 
	C392.734375,159.971985 393.546997,148.100739 390.453278,136.276047 
	C386.763489,122.173050 380.473541,109.679199 371.078674,98.231941 
z"/>
<path fill="#D5D4FD" opacity="1.000000" stroke="none" 
	d="
M410.057770,102.835037 
	C399.653900,98.344833 389.106232,95.164772 377.686340,96.003838 
	C375.718719,96.148399 373.770569,96.558601 371.396790,96.888336 
	C372.088013,90.812981 373.541870,84.733353 374.218262,78.568413 
	C375.110199,70.439468 375.391815,62.243553 375.903870,53.627945 
	C386.052582,46.115799 397.063751,41.399864 409.716125,42.090755 
	C413.627197,42.304321 417.760132,42.901146 421.298004,44.449810 
	C426.469177,46.713432 428.369385,51.754902 428.797302,57.094292 
	C430.258179,75.323395 424.572388,90.716080 410.057770,102.835037 
z"/>
<path fill="#FDD9DD" opacity="1.000000" stroke="none" 
	d="
M317.628601,47.148338 
	C323.419647,51.246429 329.156738,54.784737 331.528442,61.839317 
	C334.219879,69.844955 332.017120,76.601707 326.859924,82.432022 
	C321.646515,88.325905 314.800690,91.578445 306.369629,92.036095 
	C299.684845,91.009224 293.142944,90.754898 287.223755,88.703690 
	C277.995575,85.505783 273.559021,77.857185 272.104309,67.788666 
	C273.385925,65.024254 275.216919,63.034203 275.668762,60.769051 
	C276.419708,57.004314 278.004761,54.306282 281.912567,54.206238 
	C286.101593,54.098995 287.840942,56.823635 288.506104,60.856743 
	C289.330536,65.855515 293.026062,68.472832 297.239197,67.711075 
	C301.540894,66.933304 304.617889,63.123741 303.356506,58.434967 
	C302.098145,53.757355 299.425873,49.460117 297.373474,44.996120 
	C304.290283,42.877949 310.710968,45.440540 317.628601,47.148338 
z"/>
<path fill="#FCD9DD" opacity="1.000000" stroke="none" 
	d="
M170.108505,67.938591 
	C169.246460,80.040291 160.611649,89.424095 146.911087,91.631279 
	C135.487061,93.471733 124.678093,91.530586 116.084877,82.651100 
	C107.830231,74.121460 107.609337,61.946056 116.076202,53.634010 
	C123.354866,46.488445 132.437057,43.884777 142.657059,45.100475 
	C140.962448,49.360077 138.531189,52.868641 137.436371,56.753811 
	C135.817322,62.499317 138.414444,66.723061 143.138947,67.665619 
	C147.718719,68.579308 150.891922,65.978668 152.053192,59.987263 
	C152.765778,56.310715 154.880203,54.218140 158.449081,54.207359 
	C161.839951,54.197113 163.429642,56.503872 164.678589,59.663101 
	C165.866379,62.667572 168.250427,65.199112 170.108505,67.938591 
z"/>
<path fill="#383E41" opacity="1.000000" stroke="none" 
	d="
M208.232727,78.606796 
	C210.024185,76.161697 212.067902,74.035355 212.730469,71.541992 
	C213.811661,67.473183 215.815125,64.724564 220.044937,64.700928 
	C224.403671,64.676575 227.233093,67.228729 227.834778,71.616440 
	C228.428955,75.949387 230.275192,78.996368 234.976929,78.975647 
	C239.512909,78.955650 241.017654,75.749504 241.798935,71.794090 
	C242.829330,66.577400 245.972656,64.119179 250.287582,64.757393 
	C254.810852,65.426422 257.302429,69.008911 256.903503,74.269981 
	C255.719528,89.884277 237.786682,99.409943 224.203064,91.630936 
	C222.914383,90.892944 221.674759,90.069328 220.216812,89.164047 
	C211.622940,95.617279 202.588455,96.395287 193.386414,90.540382 
	C187.728043,86.940193 184.620987,81.635796 183.813232,74.943863 
	C183.136993,69.341644 185.435013,65.441971 190.005936,64.733734 
	C194.393951,64.053833 197.686523,66.831696 198.844696,72.190788 
	C200.056900,77.799850 201.950104,79.178795 208.232727,78.606796 
z"/>
<path fill="#383F42" opacity="1.000000" stroke="none" 
	d="
M297.104919,44.852825 
	C299.425873,49.460117 302.098145,53.757355 303.356506,58.434967 
	C304.617889,63.123741 301.540894,66.933304 297.239197,67.711075 
	C293.026062,68.472832 289.330536,65.855515 288.506104,60.856743 
	C287.840942,56.823635 286.101593,54.098995 281.912567,54.206238 
	C278.004761,54.306282 276.419708,57.004314 275.668762,60.769051 
	C275.216919,63.034203 273.385925,65.024254 271.966766,67.399612 
	C262.699402,68.266266 259.111938,64.157936 261.330933,55.309093 
	C265.522034,38.596016 285.308685,33.784096 297.104919,44.852825 
z"/>
<path fill="#393F43" opacity="1.000000" stroke="none" 
	d="
M170.505859,67.922897 
	C168.250427,65.199112 165.866379,62.667572 164.678589,59.663101 
	C163.429642,56.503872 161.839951,54.197113 158.449081,54.207359 
	C154.880203,54.218140 152.765778,56.310715 152.053192,59.987263 
	C150.891922,65.978668 147.718719,68.579308 143.138947,67.665619 
	C138.414444,66.723061 135.817322,62.499317 137.436371,56.753811 
	C138.531189,52.868641 140.962448,49.360077 142.941025,45.374565 
	C157.573792,32.079109 176.917450,41.315102 179.578033,56.638672 
	C180.795166,63.648716 178.017517,67.431999 170.505859,67.922897 
z"/>
</svg>