<svg version="1.1" id="Layer_1" xmlns="http://www.w3.org/2000/svg" xmlns:xlink="http://www.w3.org/1999/xlink" x="0px" y="0px"
	 width="100%" viewBox="0 0 500 500" enable-background="new 0 0 500 500" xml:space="preserve">
<path fill="#FDB357" opacity="1.000000" stroke="none" 
	d="
M253.000000,501.000000 
	C249.307098,501.000000 245.614182,501.000000 241.253555,500.661652 
	C238.304916,499.909607 236.028931,499.466095 233.742340,499.086639 
	C186.852890,491.304993 150.978348,466.997589 129.284271,424.828064 
	C104.538406,376.726379 109.217682,329.475403 139.046219,284.548950 
	C139.711670,283.546661 139.736008,282.118713 140.017593,280.541260 
	C139.455505,279.156677 139.060425,278.031189 138.396484,277.096771 
	C125.013725,258.262878 117.288597,237.344925 114.717857,214.388870 
	C111.753311,187.916092 115.665459,162.646011 127.619690,138.815170 
	C131.554764,130.970581 136.395859,123.580490 141.149673,115.862549 
	C146.420624,110.240456 151.312424,104.690231 156.330368,99.256500 
	C158.863586,96.513390 161.625214,93.981247 164.632004,91.297394 
	C173.009644,86.240479 180.787338,80.765831 189.123154,76.343185 
	C204.055710,68.420586 219.994370,63.455265 237.363937,62.606956 
	C241.213470,62.862541 244.776794,62.508907 248.163132,63.126228 
	C250.863083,63.618427 254.104126,64.627220 255.803345,66.554375 
	C266.227814,78.377235 275.118774,91.182907 281.992615,105.549484 
	C292.333984,127.163353 297.650116,149.844299 297.835052,173.593582 
	C297.978546,192.020828 295.184692,210.295792 288.475922,227.524994 
	C284.245270,238.389999 278.302429,248.599640 272.946045,259.009827 
	C270.557129,263.652679 267.721252,268.065552 264.845978,272.779266 
	C263.656311,273.640930 262.650177,274.236847 261.770721,274.982239 
	C254.429398,281.204346 247.517807,281.248749 240.339859,275.083130 
	C236.166611,271.498444 232.044830,271.401123 228.917633,274.813385 
	C225.856003,278.154114 226.290146,282.384705 230.094406,286.280457 
	C239.246460,295.652618 251.377258,297.305328 266.047791,291.492859 
	C268.176636,294.185577 270.679840,296.299194 272.226074,298.967346 
	C280.396210,313.065643 288.784302,326.961365 293.640686,342.821899 
	C300.502289,365.231232 302.381805,387.750336 299.098694,410.897858 
	C295.663544,435.117218 286.656830,457.184875 273.148743,477.299164 
	C267.404694,485.852325 259.773560,493.138214 253.000000,501.000000 
M189.444244,279.925354 
	C183.162323,278.324341 177.054977,278.744476 170.907700,280.911621 
	C163.612045,283.483643 156.936234,286.397003 153.427109,294.160004 
	C148.878647,304.222229 153.649750,317.647949 163.475647,322.023773 
	C172.466797,326.027893 181.243500,328.020630 191.263336,325.155670 
	C205.049530,321.213806 218.293106,304.875183 205.360916,289.739410 
	C204.477325,288.705231 204.320023,287.050476 204.129013,285.012482 
	C204.707565,279.828583 205.607620,274.655090 205.776154,269.457886 
	C205.952087,264.032410 202.879562,260.783386 198.375732,260.686401 
	C193.682922,260.585358 190.662994,263.932526 190.464417,269.586060 
	C190.342285,273.063293 190.357269,276.545319 189.444244,279.925354 
M239.270096,173.537094 
	C228.158936,179.329559 222.291199,188.425903 223.250397,201.005692 
	C224.105804,212.224594 230.198746,220.320267 240.608963,224.618362 
	C251.537216,229.130386 261.730225,226.890930 270.139771,218.946442 
	C278.081879,211.443542 280.715271,201.928299 277.824951,191.130356 
	C273.811615,176.136810 256.601532,166.366791 239.270096,173.537094 
M240.265976,389.415222 
	C245.788040,389.923889 251.453278,391.472626 256.803955,390.736115 
	C270.108337,388.904846 279.746246,375.649445 278.868988,361.763947 
	C278.004547,348.081848 266.452698,336.580200 252.964096,335.971680 
	C238.793777,335.332428 227.458023,343.666626 223.837433,357.386078 
	C220.569702,369.768463 226.959412,382.656097 240.265976,389.415222 
z"/>
<path fill="#FFFFFF" opacity="1.000000" stroke="none" 
	d="
M140.059402,280.889343 
	C139.736008,282.118713 139.711670,283.546661 139.046219,284.548950 
	C109.217682,329.475403 104.538406,376.726379 129.284271,424.828064 
	C150.978348,466.997589 186.852890,491.304993 233.742340,499.086639 
	C236.028931,499.466095 238.304916,499.909607 240.792908,500.661652 
	C161.035828,501.000000 81.071671,501.000000 1.053751,501.000000 
	C1.053751,334.443848 1.053751,167.887650 1.053751,1.000000 
	C79.687248,1.000000 158.374969,1.000000 237.283295,1.329279 
	C208.260223,3.767478 180.907272,12.157508 155.305252,26.380163 
	C142.072739,33.731205 138.598419,46.537571 146.128403,59.787312 
	C147.397568,62.020542 148.077179,64.588837 148.682068,67.032417 
	C138.564377,76.717995 128.349258,85.975029 119.197800,96.185417 
	C114.091660,101.882378 110.753593,109.164040 106.272346,115.891319 
	C104.667679,116.413162 103.431740,116.933365 102.147964,117.114471 
	C58.711658,123.241844 26.645107,163.888870 31.843903,207.617172 
	C35.894981,241.691757 59.690632,269.589233 92.877090,278.190247 
	C108.455719,282.227814 124.288940,280.767700 140.059402,280.889343 
z"/>
<path fill="#FFFFFF" opacity="1.000000" stroke="none" 
	d="
M263.000000,1.000002 
	C342.298004,1.000000 421.596039,1.000000 500.947021,1.000000 
	C500.947021,167.557129 500.947021,334.114258 500.947021,501.000000 
	C420.978851,501.000000 340.957275,501.000000 260.758362,500.719788 
	C265.351410,499.873077 270.195312,499.659851 274.880737,498.685028 
	C319.030426,489.499298 352.210327,465.388489 373.209595,425.294281 
	C385.559265,401.714905 389.783051,376.490326 387.203888,349.974396 
	C385.389618,331.322388 380.091888,313.885742 370.879089,297.607971 
	C367.733246,292.049713 364.538696,286.519073 361.800659,280.980438 
	C375.519104,280.594391 389.029419,281.624756 402.046173,279.553345 
	C445.492218,272.639496 475.287354,232.507278 470.052429,190.144119 
	C465.836700,156.028549 446.931183,133.317612 415.249847,121.054642 
	C408.818787,118.565353 401.796082,117.604568 395.034729,115.571274 
	C394.581818,113.970161 394.393768,112.554497 393.658478,111.532616 
	C387.970123,103.627213 382.816986,95.204178 376.241364,88.105583 
	C369.113037,80.410324 360.628906,73.970978 352.775879,66.606506 
	C353.960388,63.847809 354.954590,61.379311 356.274994,59.099808 
	C363.191925,47.159061 359.858429,33.334801 347.648682,27.043476 
	C336.884094,21.496799 325.923370,15.929935 314.443176,12.276141 
	C300.614563,7.874918 286.145905,5.484734 271.524353,2.149937 
	C268.396271,1.717265 265.698120,1.358634 263.000000,1.000002 
z"/>
<path fill="#FECE72" opacity="1.000000" stroke="none" 
	d="
M361.366394,280.975800 
	C364.538696,286.519073 367.733246,292.049713 370.879089,297.607971 
	C380.091888,313.885742 385.389618,331.322388 387.203888,349.974396 
	C389.783051,376.490326 385.559265,401.714905 373.209595,425.294281 
	C352.210327,465.388489 319.030426,489.499298 274.880737,498.685028 
	C270.195312,499.659851 265.351410,499.873077 260.290527,500.719788 
	C257.958344,501.000000 255.916672,501.000000 253.437500,501.000000 
	C259.773560,493.138214 267.404694,485.852325 273.148743,477.299164 
	C286.656830,457.184875 295.663544,435.117218 299.098694,410.897858 
	C302.381805,387.750336 300.502289,365.231232 293.640686,342.821899 
	C288.784302,326.961365 280.396210,313.065643 272.226074,298.967346 
	C270.679840,296.299194 268.176636,294.185577 266.297607,291.251831 
	C268.150482,289.351715 269.880890,288.083679 271.477997,286.665527 
	C274.566101,283.923523 276.260956,280.627960 274.258667,276.571564 
	C272.392395,272.790741 269.085541,271.754120 265.088226,272.582825 
	C267.721252,268.065552 270.557129,263.652679 272.946045,259.009827 
	C278.302429,248.599640 284.245270,238.389999 288.475922,227.524994 
	C295.184692,210.295792 297.978546,192.020828 297.835052,173.593582 
	C297.650116,149.844299 292.333984,127.163353 281.992615,105.549484 
	C275.118774,91.182907 266.227814,78.377235 255.803345,66.554375 
	C254.104126,64.627220 250.863083,63.618427 248.163132,63.126228 
	C244.776794,62.508907 241.213470,62.862541 237.807236,62.454140 
	C242.272446,61.711456 246.656952,61.311752 251.468903,60.990189 
	C254.700424,61.348324 257.498535,61.737278 260.309509,61.890881 
	C280.697510,63.004971 299.812012,68.513672 317.470703,78.751389 
	C324.476654,82.813126 331.164642,87.423241 338.119385,92.115891 
	C343.008362,96.983467 347.861938,101.432289 352.512482,106.084068 
	C355.718536,109.290970 358.643494,112.778839 361.752258,116.498215 
	C364.589691,121.348732 367.575958,125.728752 370.110870,130.356033 
	C379.110626,146.784134 385.372559,164.061310 387.320007,182.896988 
	C389.557281,204.535583 388.027863,225.771408 379.771149,245.878891 
	C374.775146,258.045532 367.575775,269.307404 361.366394,280.975800 
M311.500031,279.094299 
	C311.425751,275.132233 312.073853,270.964722 311.025635,267.279694 
	C310.315643,264.783752 307.467865,261.654541 305.123779,261.213562 
	C302.774597,260.771637 299.005402,262.637939 297.381256,264.694824 
	C294.194641,268.730560 296.038269,282.641357 298.807556,286.995972 
	C286.900055,298.901306 290.028259,313.638092 302.801544,321.256653 
	C315.309631,328.717041 328.256470,328.063751 340.491913,320.520874 
	C346.667419,316.713867 351.002441,310.411346 350.690521,303.141998 
	C350.231354,292.440979 343.440948,284.530457 332.739716,281.195374 
	C325.886139,279.059418 318.818726,278.100952 311.500031,279.094299 
z"/>
<path fill="#986CCF" opacity="1.000000" stroke="none" 
	d="
M251.041458,60.912048 
	C246.656952,61.311752 242.272446,61.711456 237.444641,62.263977 
	C219.994370,63.455265 204.055710,68.420586 189.123154,76.343185 
	C180.787338,80.765831 173.009644,86.240479 164.336945,91.051361 
	C162.739456,89.123451 161.866180,87.334824 160.817093,85.656075 
	C156.919113,79.418579 152.963287,73.217239 149.029175,67.002319 
	C148.077179,64.588837 147.397568,62.020542 146.128403,59.787312 
	C138.598419,46.537571 142.072739,33.731205 155.305252,26.380163 
	C180.907272,12.157508 208.260223,3.767478 237.751953,1.329279 
	C246.020905,1.000000 254.041809,1.000000 262.531372,1.000002 
	C265.698120,1.358634 268.396271,1.717265 271.493561,2.480381 
	C268.187347,8.108178 263.946442,13.037373 260.883972,18.613760 
	C253.687515,31.717607 250.388306,45.897022 251.041458,60.912048 
z"/>
<path fill="#996CCF" opacity="1.000000" stroke="none" 
	d="
M140.017593,280.541260 
	C124.288940,280.767700 108.455719,282.227814 92.877090,278.190247 
	C59.690632,269.589233 35.894981,241.691757 31.843903,207.617172 
	C26.645107,163.888870 58.711658,123.241844 102.147964,117.114471 
	C103.431740,116.933365 104.667679,116.413162 106.769829,115.988419 
	C118.683372,115.944710 129.753006,115.963638 140.822662,115.982567 
	C136.395859,123.580490 131.554764,130.970581 127.619690,138.815170 
	C115.665459,162.646011 111.753311,187.916092 114.717857,214.388870 
	C117.288597,237.344925 125.013725,258.262878 138.396484,277.096771 
	C139.060425,278.031189 139.455505,279.156677 140.017593,280.541260 
z"/>
<path fill="#FFFEFC" opacity="1.000000" stroke="none" 
	d="
M239.623627,173.380676 
	C256.601532,166.366791 273.811615,176.136810 277.824951,191.130356 
	C280.715271,201.928299 278.081879,211.443542 270.139771,218.946442 
	C261.730225,226.890930 251.537216,229.130386 240.608963,224.618362 
	C230.198746,220.320267 224.105804,212.224594 223.250397,201.005692 
	C222.291199,188.425903 228.158936,179.329559 239.623627,173.380676 
z"/>
<path fill="#FFFEFD" opacity="1.000000" stroke="none" 
	d="
M239.914246,389.258881 
	C226.959412,382.656097 220.569702,369.768463 223.837433,357.386078 
	C227.458023,343.666626 238.793777,335.332428 252.964096,335.971680 
	C266.452698,336.580200 278.004547,348.081848 278.868988,361.763947 
	C279.746246,375.649445 270.108337,388.904846 256.803955,390.736115 
	C251.453278,391.472626 245.788040,389.923889 239.914246,389.258881 
z"/>
<path fill="#FE909C" opacity="1.000000" stroke="none" 
	d="
M203.824936,285.684357 
	C204.320023,287.050476 204.477325,288.705231 205.360916,289.739410 
	C218.293106,304.875183 205.049530,321.213806 191.263336,325.155670 
	C181.243500,328.020630 172.466797,326.027893 163.475647,322.023773 
	C153.649750,317.647949 148.878647,304.222229 153.427109,294.160004 
	C156.936234,286.397003 163.612045,283.483643 170.907700,280.911621 
	C177.054977,278.744476 183.162323,278.324341 190.002243,280.291534 
	C193.047363,288.046234 196.804199,289.469879 203.824936,285.684357 
z"/>
<path fill="#A0A2E1" opacity="1.000000" stroke="none" 
	d="
M141.149658,115.862534 
	C129.753006,115.963638 118.683372,115.944710 107.116249,115.828682 
	C110.753593,109.164040 114.091660,101.882378 119.197800,96.185417 
	C128.349258,85.975029 138.564377,76.717995 148.682068,67.032417 
	C152.963287,73.217239 156.919113,79.418579 160.817093,85.656075 
	C161.866180,87.334824 162.739456,89.123451 163.988495,91.107681 
	C161.625214,93.981247 158.863586,96.513390 156.330368,99.256500 
	C151.312424,104.690231 146.420624,110.240456 141.149658,115.862534 
z"/>
<path fill="#3A403D" opacity="1.000000" stroke="none" 
	d="
M264.845978,272.779266 
	C269.085541,271.754120 272.392395,272.790741 274.258667,276.571564 
	C276.260956,280.627960 274.566101,283.923523 271.477997,286.665527 
	C269.880890,288.083679 268.150482,289.351715 266.230408,290.928589 
	C251.377258,297.305328 239.246460,295.652618 230.094406,286.280457 
	C226.290146,282.384705 225.856003,278.154114 228.917633,274.813385 
	C232.044830,271.401123 236.166611,271.498444 240.339859,275.083130 
	C247.517807,281.248749 254.429398,281.204346 261.770721,274.982239 
	C262.650177,274.236847 263.656311,273.640930 264.845978,272.779266 
z"/>
<path fill="#3B3F3D" opacity="1.000000" stroke="none" 
	d="
M203.976974,285.348419 
	C196.804199,289.469879 193.047363,288.046234 190.435455,280.341461 
	C190.357269,276.545319 190.342285,273.063293 190.464417,269.586060 
	C190.662994,263.932526 193.682922,260.585358 198.375732,260.686401 
	C202.879562,260.783386 205.952087,264.032410 205.776154,269.457886 
	C205.607620,274.655090 204.707565,279.828583 203.976974,285.348419 
z"/>
<path fill="#B38BE2" opacity="1.000000" stroke="none" 
	d="
M361.800659,280.980438 
	C367.575775,269.307404 374.775146,258.045532 379.771149,245.878891 
	C388.027863,225.771408 389.557281,204.535583 387.320007,182.896988 
	C385.372559,164.061310 379.110626,146.784134 370.110870,130.356033 
	C367.575958,125.728752 364.589691,121.348732 362.251373,116.458374 
	C373.476898,116.020668 384.261536,115.979897 395.046143,115.939133 
	C401.796082,117.604568 408.818787,118.565353 415.249847,121.054642 
	C446.931183,133.317612 465.836700,156.028549 470.052429,190.144119 
	C475.287354,232.507278 445.492218,272.639496 402.046173,279.553345 
	C389.029419,281.624756 375.519104,280.594391 361.800659,280.980438 
z"/>
<path fill="#B28BE2" opacity="1.000000" stroke="none" 
	d="
M251.468903,60.990189 
	C250.388306,45.897022 253.687515,31.717607 260.883972,18.613760 
	C263.946442,13.037373 268.187347,8.108178 271.923523,2.554423 
	C286.145905,5.484734 300.614563,7.874918 314.443176,12.276141 
	C325.923370,15.929935 336.884094,21.496799 347.648682,27.043476 
	C359.858429,33.334801 363.191925,47.159061 356.274994,59.099808 
	C354.954590,61.379311 353.960388,63.847809 352.503723,66.774353 
	C347.460327,75.474304 342.728882,83.628998 337.997406,91.783691 
	C331.164642,87.423241 324.476654,82.813126 317.470703,78.751389 
	C299.812012,68.513672 280.697510,63.004971 260.309509,61.890881 
	C257.498535,61.737278 254.700424,61.348324 251.468903,60.990189 
z"/>
<path fill="#D6D4FC" opacity="1.000000" stroke="none" 
	d="
M338.119385,92.115891 
	C342.728882,83.628998 347.460327,75.474304 352.463928,67.151772 
	C360.628906,73.970978 369.113037,80.410324 376.241364,88.105583 
	C382.816986,95.204178 387.970123,103.627213 393.658478,111.532616 
	C394.393768,112.554497 394.581818,113.970161 395.034729,115.571274 
	C384.261536,115.979897 373.476898,116.020668 362.193176,116.101288 
	C358.643494,112.778839 355.718536,109.290970 352.512482,106.084068 
	C347.861938,101.432289 343.008362,96.983467 338.119385,92.115891 
z"/>
<path fill="#FD909D" opacity="1.000000" stroke="none" 
	d="
M311.665924,280.008362 
	C318.818726,278.100952 325.886139,279.059418 332.739716,281.195374 
	C343.440948,284.530457 350.231354,292.440979 350.690521,303.141998 
	C351.002441,310.411346 346.667419,316.713867 340.491913,320.520874 
	C328.256470,328.063751 315.309631,328.717041 302.801544,321.256653 
	C290.028259,313.638092 286.900055,298.901306 299.484985,286.947693 
	C306.516083,288.736847 309.654449,286.856873 311.665924,280.008362 
z"/>
<path fill="#3B403E" opacity="1.000000" stroke="none" 
	d="
M311.582977,279.551331 
	C309.654449,286.856873 306.516083,288.736847 299.826569,286.779175 
	C296.038269,282.641357 294.194641,268.730560 297.381256,264.694824 
	C299.005402,262.637939 302.774597,260.771637 305.123779,261.213562 
	C307.467865,261.654541 310.315643,264.783752 311.025635,267.279694 
	C312.073853,270.964722 311.425751,275.132233 311.582977,279.551331 
z"/>
</svg>