<svg version="1.1" id="Layer_1" xmlns="http://www.w3.org/2000/svg" xmlns:xlink="http://www.w3.org/1999/xlink" x="0px" y="0px"
	 width="100%" viewBox="0 0 500 500" enable-background="new 0 0 500 500" xml:space="preserve">
<path fill="#FFFFFF" opacity="1.000000" stroke="none" 
	d="
M252.000000,501.000000 
	C168.370514,501.000000 84.741043,501.000000 1.055781,501.000000 
	C1.055781,334.444611 1.055781,167.889206 1.055781,1.000000 
	C77.354439,1.000000 153.709366,1.000000 230.304916,1.348470 
	C209.921494,3.464978 189.661835,7.131649 169.853958,13.219694 
	C158.308014,16.768394 153.355194,24.354885 155.132126,36.262695 
	C156.529999,45.630363 158.261871,54.951141 159.509857,64.337357 
	C160.654449,72.945938 161.350235,81.614182 162.305267,90.850769 
	C159.054840,89.501152 156.816971,88.404579 154.472916,87.628967 
	C146.287308,84.920502 138.961700,86.678345 132.806427,92.565308 
	C126.606895,98.494606 124.761803,105.798721 127.163940,114.062599 
	C128.996216,120.366035 133.565735,124.406288 138.600525,128.012924 
	C106.784447,164.153992 94.214821,205.826370 100.983154,253.143936 
	C110.438400,319.245758 165.486710,372.830597 231.668213,380.796326 
	C231.623505,382.365997 231.616211,383.722107 231.104385,384.849091 
	C225.261536,397.714111 219.447906,410.594269 213.420334,423.373138 
	C200.968964,449.770935 208.634796,478.124573 232.927322,493.021881 
	C238.732559,496.581909 245.613708,498.387482 252.000000,501.000000 
z"/>
<path fill="#FFFFFF" opacity="1.000000" stroke="none" 
	d="
M271.000000,1.000001 
	C347.631958,1.000000 424.263947,1.000000 500.947937,1.000000 
	C500.947937,167.556519 500.947937,334.113037 500.947937,501.000000 
	C423.645538,501.000000 346.290619,501.000000 268.676086,500.686005 
	C285.066895,497.201477 297.873138,488.432831 306.308777,473.718597 
	C309.443085,468.251526 311.847809,462.358795 314.477112,456.610687 
	C338.763458,403.516174 362.831451,350.320648 387.360596,297.338593 
	C405.264160,258.667450 408.066223,219.345596 394.038422,179.021866 
	C387.343842,159.777985 377.175354,142.560516 363.153564,127.576180 
	C364.047516,126.868530 364.761078,126.441864 365.450745,125.979584 
	C373.296783,120.720474 376.951782,112.348228 375.190582,103.685486 
	C373.344788,94.606827 366.786743,88.391937 357.302460,86.568466 
	C350.937317,85.344688 345.612030,88.029778 340.188965,90.390335 
	C342.208862,72.697647 343.911438,55.372219 346.571198,38.195000 
	C348.612274,25.013355 344.599579,16.669647 331.649414,13.205627 
	C318.055634,9.569444 304.214966,6.825236 290.424835,3.967970 
	C284.019867,2.640888 277.479156,1.968939 271.000000,1.000001 
z"/>
<path fill="#FD8F72" opacity="1.000000" stroke="none" 
	d="
M362.962097,127.840614 
	C377.175354,142.560516 387.343842,159.777985 394.038422,179.021866 
	C408.066223,219.345596 405.264160,258.667450 387.360596,297.338593 
	C362.831451,350.320648 338.763458,403.516174 314.477112,456.610687 
	C311.847809,462.358795 309.443085,468.251526 306.308777,473.718597 
	C297.873138,488.432831 285.066895,497.201477 268.208221,500.686005 
	C262.977905,501.000000 257.955811,501.000000 252.466858,501.000000 
	C245.613708,498.387482 238.732559,496.581909 232.927322,493.021881 
	C208.634796,478.124573 200.968964,449.770935 213.420334,423.373138 
	C219.447906,410.594269 225.261536,397.714111 231.104385,384.849091 
	C231.616211,383.722107 231.623505,382.365997 232.049164,380.633850 
	C232.911606,379.296387 233.784973,378.533295 234.238571,377.572144 
	C239.169540,367.123657 244.133392,356.688538 248.881180,346.156464 
	C251.787048,339.710388 254.333710,333.102386 257.463074,326.635376 
	C258.859131,326.903687 259.836121,327.092926 260.808044,327.305298 
	C273.787598,330.141266 286.090759,321.352783 287.666656,308.116577 
	C288.455475,301.490997 283.344360,296.246307 278.077667,298.866943 
	C275.578674,300.110413 273.533691,303.411163 272.520569,306.225372 
	C271.029144,310.368225 269.336365,313.118835 264.610870,311.562927 
	C270.798767,298.170013 276.918945,285.215698 282.758240,272.135986 
	C284.538025,268.149353 285.544586,263.817535 286.961365,259.321838 
	C302.428101,238.390518 300.401306,212.741318 281.900085,195.472641 
	C272.644287,186.833435 261.330719,183.677612 248.897720,183.267502 
	C247.366928,180.597733 245.716599,178.344086 244.440536,175.895401 
	C240.534500,168.399872 236.772263,160.829437 233.415970,153.190491 
	C249.157990,152.718384 264.544312,153.323959 279.687286,151.683517 
	C293.772156,150.157715 307.848297,147.099442 321.468323,143.135391 
	C335.587402,139.026047 349.153900,133.018143 362.962097,127.840614 
M321.556549,292.238739 
	C321.509369,290.419617 321.544403,288.593933 321.399323,286.782654 
	C320.991333,281.689392 318.162476,278.913239 313.570587,278.996124 
	C309.166168,279.075623 306.263977,282.115326 306.176819,287.182587 
	C306.094421,291.973358 306.347321,296.769897 305.880615,302.084076 
	C298.261566,311.232941 302.043396,321.322449 307.144012,326.333832 
	C316.473633,335.500305 335.016693,335.233215 344.495758,327.751556 
	C353.160889,320.912354 354.330017,309.077667 346.591919,301.174500 
	C339.735413,294.171783 330.878448,293.255280 321.556549,292.238739 
z"/>
<path fill="#686FB1" opacity="1.000000" stroke="none" 
	d="
M363.153564,127.576180 
	C349.153900,133.018143 335.587402,139.026047 321.468323,143.135391 
	C307.848297,147.099442 293.772156,150.157715 279.687286,151.683517 
	C264.544312,153.323959 249.157990,152.718384 232.992737,153.068390 
	C228.976425,152.674133 225.794144,152.545288 222.722580,151.894119 
	C206.680634,148.493210 190.470245,145.661438 174.706421,141.246460 
	C162.462372,137.817261 150.787674,132.355255 138.859909,127.796776 
	C133.565735,124.406288 128.996216,120.366035 127.163940,114.062599 
	C124.761803,105.798721 126.606895,98.494606 132.806427,92.565308 
	C138.961700,86.678345 146.287308,84.920502 154.472916,87.628967 
	C156.816971,88.404579 159.054840,89.501152 162.305267,90.850769 
	C161.350235,81.614182 160.654449,72.945938 159.509857,64.337357 
	C158.261871,54.951141 156.529999,45.630363 155.132126,36.262695 
	C153.355194,24.354885 158.308014,16.768394 169.853958,13.219694 
	C189.661835,7.131649 209.921494,3.464978 230.772766,1.348470 
	C233.700012,1.000000 236.400024,1.000000 239.675507,1.303072 
	C239.505447,3.222481 239.108902,5.162725 237.957947,6.402753 
	C230.290939,14.663196 227.451492,24.017609 229.926788,35.218689 
	C231.742401,43.434643 232.832535,51.823959 233.972595,60.173340 
	C236.097076,75.732307 237.952820,91.328392 240.168640,106.873642 
	C240.337936,108.061356 242.480347,109.882988 243.684525,109.866539 
	C255.803864,109.700974 268.050812,110.198433 280.005798,108.597313 
	C300.914886,105.796959 321.080139,99.764076 340.283508,90.821373 
	C345.612030,88.029778 350.937317,85.344688 357.302460,86.568466 
	C366.786743,88.391937 373.344788,94.606827 375.190582,103.685486 
	C376.951782,112.348228 373.296783,120.720474 365.450745,125.979584 
	C364.761078,126.441864 364.047516,126.868530 363.153564,127.576180 
z"/>
<path fill="#8388CC" opacity="1.000000" stroke="none" 
	d="
M340.188965,90.390335 
	C321.080139,99.764076 300.914886,105.796959 280.005798,108.597313 
	C268.050812,110.198433 255.803864,109.700974 243.684525,109.866539 
	C242.480347,109.882988 240.337936,108.061356 240.168640,106.873642 
	C237.952820,91.328392 236.097076,75.732307 233.972595,60.173340 
	C232.832535,51.823959 231.742401,43.434643 229.926788,35.218689 
	C227.451492,24.017609 230.290939,14.663196 237.957947,6.402753 
	C239.108902,5.162725 239.505447,3.222481 240.125488,1.303072 
	C250.020889,1.000000 260.041779,1.000000 270.531342,1.000001 
	C277.479156,1.968939 284.019867,2.640888 290.424835,3.967970 
	C304.214966,6.825236 318.055634,9.569444 331.649414,13.205627 
	C344.599579,16.669647 348.612274,25.013355 346.571198,38.195000 
	C343.911438,55.372219 342.208862,72.697647 340.188965,90.390335 
z"/>
<path fill="#FD704F" opacity="1.000000" stroke="none" 
	d="
M138.600525,128.012924 
	C150.787674,132.355255 162.462372,137.817261 174.706421,141.246460 
	C190.470245,145.661438 206.680634,148.493210 222.722580,151.894119 
	C225.794144,152.545288 228.976425,152.674133 232.530853,153.166046 
	C236.772263,160.829437 240.534500,168.399872 244.440536,175.895401 
	C245.716599,178.344086 247.366928,180.597733 248.493774,183.351379 
	C246.500092,183.891632 244.858719,184.021072 242.872223,184.083923 
	C241.687500,184.273483 240.847946,184.529602 239.659012,184.926239 
	C237.273315,185.787582 235.201065,186.421234 233.206207,187.242783 
	C213.231033,195.469254 201.296432,217.386383 205.377640,238.288834 
	C209.685318,260.351288 228.305237,275.988739 250.421402,276.204895 
	C265.177399,276.349121 277.096375,270.346191 286.905273,259.643829 
	C285.544586,263.817535 284.538025,268.149353 282.758240,272.135986 
	C276.918945,285.215698 270.798767,298.170013 264.251587,311.478485 
	C262.093628,309.755737 259.580719,307.939514 259.034973,305.653625 
	C257.936279,301.051483 255.538269,298.351959 250.987854,298.328613 
	C246.620987,298.306183 243.879562,300.921387 243.379364,305.371490 
	C242.908295,309.562408 241.093781,312.322540 236.545425,312.334991 
	C231.931046,312.347595 230.380936,309.397400 229.713257,305.318268 
	C228.901489,300.358734 225.380493,297.678040 221.096405,298.325470 
	C216.521530,299.016846 214.094040,302.262604 214.410629,307.264893 
	C215.387085,322.693054 231.909103,332.763428 245.701477,325.717682 
	C250.325104,323.355713 253.465256,323.412231 257.041656,326.567078 
	C254.333710,333.102386 251.787048,339.710388 248.881180,346.156464 
	C244.133392,356.688538 239.169540,367.123657 234.238571,377.572144 
	C233.784973,378.533295 232.911606,379.296387 231.852219,380.313904 
	C165.486710,372.830597 110.438400,319.245758 100.983154,253.143936 
	C94.214821,205.826370 106.784447,164.153992 138.600525,128.012924 
M195.614090,300.571899 
	C195.671219,295.914124 195.880310,291.251862 195.742783,286.599823 
	C195.605103,281.941406 192.579117,279.062683 188.218842,279.008331 
	C183.679764,278.951752 180.836243,281.599792 180.433762,286.314209 
	C180.236191,288.628784 180.116287,290.949982 179.078171,293.301575 
	C172.287918,292.949493 165.825974,294.138092 159.913605,297.609406 
	C147.438049,304.934143 146.796921,320.226654 158.668671,328.391052 
	C167.617981,334.545624 177.165512,334.760620 187.155411,331.117065 
	C198.783905,326.875885 205.673203,312.527344 195.614090,300.571899 
z"/>
<path fill="#FFFEFE" opacity="1.000000" stroke="none" 
	d="
M243.217361,184.150497 
	C244.858719,184.021072 246.500092,183.891632 248.545410,183.678314 
	C261.330719,183.677612 272.644287,186.833435 281.900085,195.472641 
	C300.401306,212.741318 302.428101,238.390518 286.961395,259.321838 
	C277.096375,270.346191 265.177399,276.349121 250.421402,276.204895 
	C228.305237,275.988739 209.685318,260.351288 205.377640,238.288834 
	C201.296432,217.386383 213.231033,195.469254 233.206207,187.242783 
	C235.201065,186.421234 237.273315,185.787582 239.994873,184.988068 
	C241.525848,184.656433 242.371597,184.403473 243.217361,184.150497 
z"/>
<path fill="#3B3D3F" opacity="1.000000" stroke="none" 
	d="
M257.463074,326.635376 
	C253.465256,323.412231 250.325104,323.355713 245.701477,325.717682 
	C231.909103,332.763428 215.387085,322.693054 214.410629,307.264893 
	C214.094040,302.262604 216.521530,299.016846 221.096405,298.325470 
	C225.380493,297.678040 228.901489,300.358734 229.713257,305.318268 
	C230.380936,309.397400 231.931046,312.347595 236.545425,312.334991 
	C241.093781,312.322540 242.908295,309.562408 243.379364,305.371490 
	C243.879562,300.921387 246.620987,298.306183 250.987854,298.328613 
	C255.538269,298.351959 257.936279,301.051483 259.034973,305.653625 
	C259.580719,307.939514 262.093628,309.755737 264.075928,311.868896 
	C269.336365,313.118835 271.029144,310.368225 272.520569,306.225372 
	C273.533691,303.411163 275.578674,300.110413 278.077667,298.866943 
	C283.344360,296.246307 288.455475,301.490997 287.666656,308.116577 
	C286.090759,321.352783 273.787598,330.141266 260.808044,327.305298 
	C259.836121,327.092926 258.859131,326.903687 257.463074,326.635376 
z"/>
<path fill="#FDD9DC" opacity="1.000000" stroke="none" 
	d="
M321.780457,293.115173 
	C330.878448,293.255280 339.735413,294.171783 346.591919,301.174500 
	C354.330017,309.077667 353.160889,320.912354 344.495758,327.751556 
	C335.016693,335.233215 316.473633,335.500305 307.144012,326.333832 
	C302.043396,321.322449 298.261566,311.232941 306.401306,302.079773 
	C309.209229,305.413544 312.270630,307.016846 316.243164,305.634796 
	C320.279358,304.230621 321.339966,300.909698 321.250366,296.957642 
	C321.221466,295.681488 321.592407,294.396240 321.780457,293.115173 
z"/>
<path fill="#3D4042" opacity="1.000000" stroke="none" 
	d="
M321.668518,292.676941 
	C321.592407,294.396240 321.221466,295.681488 321.250366,296.957642 
	C321.339966,300.909698 320.279358,304.230621 316.243164,305.634796 
	C312.270630,307.016846 309.209229,305.413544 306.687347,301.819702 
	C306.347321,296.769897 306.094421,291.973358 306.176819,287.182587 
	C306.263977,282.115326 309.166168,279.075623 313.570587,278.996124 
	C318.162476,278.913239 320.991333,281.689392 321.399323,286.782654 
	C321.544403,288.593933 321.509369,290.419617 321.668518,292.676941 
z"/>
<path fill="#FDD8DB" opacity="1.000000" stroke="none" 
	d="
M195.497025,301.402466 
	C205.673203,312.527344 198.783905,326.875885 187.155411,331.117065 
	C177.165512,334.760620 167.617981,334.545624 158.668671,328.391052 
	C146.796921,320.226654 147.438049,304.934143 159.913605,297.609406 
	C165.825974,294.138092 172.287918,292.949493 179.689972,293.646881 
	C180.392960,294.801208 180.573135,295.611603 180.560303,296.418976 
	C180.496628,300.424866 181.191910,304.093536 185.511154,305.622864 
	C190.011246,307.216217 193.033249,304.862091 195.497025,301.402466 
z"/>
<path fill="#3F3F41" opacity="1.000000" stroke="none" 
	d="
M195.555557,300.987183 
	C193.033249,304.862091 190.011246,307.216217 185.511154,305.622864 
	C181.191910,304.093536 180.496628,300.424866 180.560303,296.418976 
	C180.573135,295.611603 180.392960,294.801208 180.131500,293.630188 
	C180.116287,290.949982 180.236191,288.628784 180.433762,286.314209 
	C180.836243,281.599792 183.679764,278.951752 188.218842,279.008331 
	C192.579117,279.062683 195.605103,281.941406 195.742783,286.599823 
	C195.880310,291.251862 195.671219,295.914124 195.555557,300.987183 
z"/>
<path fill="#FD8F72" opacity="1.000000" stroke="none" 
	d="
M242.872223,184.083923 
	C242.371597,184.403473 241.525848,184.656433 240.344238,184.847565 
	C240.847946,184.529602 241.687500,184.273483 242.872223,184.083923 
z"/>
</svg>